<?xml version="1.0" encoding="utf-8"?>
<!-- Generator: Adobe Illustrator 16.0.0, SVG Export Plug-In . SVG Version: 6.00 Build 0)  -->
<!DOCTYPE svg PUBLIC "-//W3C//DTD SVG 1.1//EN" "http://www.w3.org/Graphics/SVG/1.1/DTD/svg11.dtd">
<svg version="1.1" id="Layer_1" xmlns="http://www.w3.org/2000/svg" xmlns:xlink="http://www.w3.org/1999/xlink" x="0px" y="0px"
	 width="95px" height="93px" viewBox="0 0 95 93" enable-background="new 0 0 95 93" xml:space="preserve">
<g>
	<path fill="#FFFFFF" d="M93.584,46.986c0-17.411-9.779-32.536-24.144-40.192c-0.893,2.12-2.831,4.957-6.813,5.022
		c-4.594,0.077-7.943-6.47-11.978-6.901c-2.144-0.23-8.298,1.193-7.509,9.339c0.619,6.414,10.935,6.47,10.935,6.47
		s-2.401,4.02-2.207,5.48c0.402,3.03,5.768,6.43,7.713,8.551c4.163,4.542,6.37,9.459,5.889,12.993
		c-1.051,7.71-4.858,11.174-6.774,12.456c0.462,0.367,0.737,0.587,0.737,0.587l6.088-1.829l-2.231,6.497
		c0,0,4.264,7.309,2.435,15.223c-1.13,4.909-4.634,8.553-7.064,10.574C78.688,86.478,93.584,68.478,93.584,46.986z"/>
	<path fill="#FFFFFF" d="M33.65,81.294c4.595-0.076,7.941,6.471,11.977,6.9c2.146,0.23,8.297-1.192,7.511-9.336
		c-0.619-6.417-10.937-6.471-10.937-6.471s2.401-4.021,2.207-5.481c-0.4-3.029-5.768-6.429-7.713-8.552
		c-4.16-4.543-6.368-9.458-5.886-12.993c1.05-7.708,4.856-11.171,6.771-12.456c-0.46-0.365-0.732-0.583-0.732-0.583l-6.092,1.825
		l2.231-6.496c0,0-4.261-7.309-2.435-15.225c0.943-4.088,3.534-7.302,5.777-9.428C16.877,8.173,2.539,25.902,2.539,46.986
		c0,17.355,9.713,32.437,23.999,40.117C27.258,84.987,29.146,81.367,33.65,81.294z"/>
	<path fill="#FFFFFF" d="M46.691,39.374c-2.369-1.29-6.212-4.203-8.327-5.854c-0.566,2.377-1.476,7.686,0.362,11.842
		c1.648,3.73,7.021,6.282,10.858,8.376c2.369,1.29,6.214,4.202,8.329,5.853c0.564-2.376,1.476-7.684-0.362-11.842
		C55.902,44.018,50.531,41.467,46.691,39.374z"/>
</g>
</svg>
