<?xml version="1.0" encoding="utf-8"?>
<!-- Generator: Adobe Illustrator 16.0.0, SVG Export Plug-In . SVG Version: 6.00 Build 0)  -->
<!DOCTYPE svg PUBLIC "-//W3C//DTD SVG 1.1//EN" "http://www.w3.org/Graphics/SVG/1.1/DTD/svg11.dtd">
<svg version="1.1" id="Layer_1" xmlns="http://www.w3.org/2000/svg" xmlns:xlink="http://www.w3.org/1999/xlink" x="0px" y="0px"
	 width="305px" height="92px" viewBox="0 0 305 92" enable-background="new 0 0 305 92" xml:space="preserve">
<g>
	<g>
		<path fill="#FFFFFF" d="M94.336,45.367c0-17.411-9.779-32.536-24.144-40.192c-0.893,2.12-2.831,4.957-6.813,5.022
			c-4.594,0.077-7.943-6.47-11.978-6.901c-2.144-0.23-8.298,1.193-7.509,9.339c0.619,6.414,10.935,6.47,10.935,6.47
			s-2.401,4.02-2.207,5.48c0.402,3.03,5.768,6.43,7.713,8.551c4.163,4.542,6.37,9.459,5.889,12.993
			c-1.051,7.71-4.858,11.174-6.774,12.456c0.462,0.367,0.737,0.587,0.737,0.587l6.088-1.829l-2.231,6.497
			c0,0,4.264,7.309,2.435,15.223c-1.13,4.909-4.634,8.553-7.064,10.574C79.44,84.858,94.336,66.858,94.336,45.367z"/>
		<path fill="#FFFFFF" d="M34.403,79.675c4.595-0.076,7.941,6.471,11.977,6.9c2.146,0.23,8.297-1.192,7.511-9.336
			c-0.619-6.417-10.937-6.471-10.937-6.471s2.401-4.021,2.207-5.481c-0.4-3.029-5.768-6.429-7.713-8.552
			c-4.16-4.543-6.368-9.458-5.886-12.993c1.05-7.708,4.856-11.171,6.771-12.456c-0.46-0.365-0.732-0.583-0.732-0.583l-6.092,1.825
			l2.231-6.496c0,0-4.261-7.309-2.435-15.225c0.943-4.088,3.534-7.302,5.777-9.428C17.629,6.554,3.292,24.283,3.292,45.367
			c0,17.355,9.713,32.437,23.999,40.117C28.01,83.368,29.898,79.748,34.403,79.675z"/>
		<path fill="#FFFFFF" d="M47.444,37.755c-2.369-1.29-6.212-4.203-8.327-5.854c-0.566,2.377-1.476,7.686,0.362,11.842
			c1.648,3.73,7.021,6.282,10.858,8.376c2.369,1.29,6.214,4.202,8.329,5.853c0.564-2.376,1.476-7.684-0.362-11.842
			C56.655,42.398,51.284,39.848,47.444,37.755z"/>
	</g>
	<g>
		<path fill="#FFFFFF" d="M119.633,53.252v-0.459c0.312-0.063,0.545-0.132,0.698-0.206c0.152-0.075,0.267-0.18,0.342-0.314
			c0.075-0.134,0.112-0.313,0.112-0.539c0-0.212-0.025-0.441-0.075-0.688s-0.121-0.523-0.215-0.83l-0.348-1.209h-4.367l-0.318,0.919
			c-0.163,0.462-0.269,0.813-0.319,1.05c-0.05,0.237-0.074,0.453-0.074,0.646c0,0.375,0.095,0.65,0.285,0.825
			s0.483,0.29,0.877,0.347v0.459h-4.002v-0.459c0.35-0.057,0.654-0.26,0.913-0.609c0.26-0.35,0.511-0.85,0.755-1.5l3.908-10.375
			h1.48l3.188,10.45c0.149,0.487,0.282,0.859,0.398,1.115c0.115,0.257,0.254,0.456,0.417,0.6c0.162,0.145,0.384,0.25,0.665,0.319
			v0.459H119.633z M116.034,48.19h3.918l-1.781-6.045L116.034,48.19z"/>
		<path fill="#FFFFFF" d="M133.454,43.926c-0.194-0.993-0.432-1.676-0.713-2.048c-0.281-0.371-0.706-0.558-1.274-0.558h-2.699v9.561
			c0,0.662,0.084,1.131,0.253,1.405c0.169,0.275,0.556,0.444,1.162,0.507v0.459h-4.265v-0.459c0.456-0.106,0.753-0.253,0.891-0.44
			s0.206-0.666,0.206-1.435v-8.107c0-0.78-0.073-1.265-0.22-1.452c-0.147-0.188-0.439-0.334-0.877-0.44v-0.46h8.454v3.468H133.454z"
			/>
		<path fill="#FFFFFF" d="M145.588,40.458v2.831h-0.919c-0.094-0.307-0.19-0.575-0.29-0.807c-0.101-0.23-0.203-0.425-0.31-0.581
			c-0.106-0.155-0.224-0.28-0.352-0.374s-0.279-0.158-0.454-0.192s-0.385-0.052-0.628-0.052h-2.962v4.911h2.006
			c0.274,0,0.49-0.039,0.646-0.117s0.286-0.211,0.389-0.398c0.104-0.188,0.202-0.48,0.296-0.881h0.881v3.599h-0.881
			c-0.088-0.374-0.185-0.657-0.291-0.848s-0.232-0.326-0.38-0.408c-0.146-0.081-0.367-0.121-0.66-0.121h-2.006v5.407h2.915
			c0.306,0,0.555-0.026,0.745-0.079s0.354-0.144,0.492-0.271c0.137-0.129,0.259-0.296,0.365-0.502s0.195-0.42,0.267-0.642
			c0.072-0.222,0.171-0.546,0.296-0.971h0.928l-0.178,3.29h-8.68v-0.459c0.388-0.101,0.647-0.211,0.778-0.333
			s0.217-0.295,0.258-0.521c0.04-0.225,0.061-0.568,0.061-1.03v-8.107c0-0.432-0.016-0.745-0.047-0.942
			c-0.031-0.196-0.083-0.35-0.154-0.459c-0.072-0.109-0.167-0.197-0.286-0.263c-0.118-0.065-0.321-0.139-0.609-0.22v-0.46H145.588z"
			/>
		<path fill="#FFFFFF" d="M158.332,50.909c0,0.362,0.008,0.634,0.027,0.815c0.02,0.181,0.051,0.326,0.094,0.436
			s0.098,0.198,0.16,0.267c0.063,0.069,0.15,0.132,0.266,0.188c0.117,0.057,0.297,0.116,0.539,0.179v0.459h-3.926v-0.459
			c0.344-0.088,0.584-0.185,0.721-0.291c0.139-0.106,0.232-0.269,0.287-0.487c0.053-0.219,0.078-0.587,0.078-1.105v-3.928h-5.21
			v3.928c0,0.418,0.014,0.725,0.042,0.918c0.028,0.194,0.075,0.347,0.141,0.459c0.065,0.113,0.162,0.207,0.291,0.281
			c0.128,0.075,0.334,0.15,0.624,0.226v0.459h-3.947v-0.459c0.388-0.101,0.647-0.211,0.778-0.333s0.217-0.295,0.258-0.521
			c0.04-0.225,0.061-0.568,0.061-1.03v-8.107c0-0.432-0.016-0.745-0.047-0.942c-0.031-0.196-0.083-0.35-0.154-0.459
			c-0.072-0.109-0.167-0.197-0.286-0.263c-0.118-0.065-0.321-0.139-0.609-0.22v-0.46h3.947v0.46
			c-0.275,0.068-0.474,0.138-0.596,0.206c-0.121,0.068-0.219,0.154-0.29,0.258c-0.072,0.103-0.125,0.258-0.159,0.464
			c-0.035,0.206-0.052,0.524-0.052,0.956v3.317h5.21v-3.317c0-0.544-0.025-0.915-0.078-1.115c-0.055-0.2-0.143-0.354-0.268-0.46
			c-0.125-0.105-0.373-0.209-0.74-0.309v-0.46h3.926v0.46c-0.35,0.087-0.594,0.186-0.73,0.295s-0.23,0.273-0.281,0.492
			s-0.074,0.584-0.074,1.097V50.909z"/>
		<path fill="#FFFFFF" d="M172.387,56.617c-0.057-0.676-0.182-1.313-0.375-1.912c-0.193-0.601-0.41-0.992-0.646-1.177
			c-0.238-0.185-0.561-0.276-0.965-0.276h-8.033v-0.459c0.469-0.125,0.766-0.289,0.891-0.492s0.188-0.664,0.188-1.383v-8.107
			c0-0.756-0.068-1.233-0.201-1.434c-0.135-0.2-0.428-0.353-0.877-0.459v-0.46h3.936v0.46c-0.418,0.106-0.703,0.245-0.857,0.417
			c-0.152,0.172-0.229,0.664-0.229,1.476v9.579h4.863v-9.579c0-0.78-0.072-1.265-0.219-1.452c-0.148-0.188-0.439-0.334-0.877-0.44
			v-0.46h3.936v0.46c-0.406,0.1-0.688,0.234-0.844,0.402c-0.156,0.169-0.232,0.666-0.232,1.49v9.579h1.498v4.228H172.387z"/>
		<path fill="#FFFFFF" d="M182.973,53.252v-0.459c0.477-0.125,0.775-0.289,0.9-0.492s0.188-0.664,0.188-1.383v-4.03
			c0-1.318,0.012-2.165,0.037-2.54h-0.037l-5.332,6.57c0,0.75,0.066,1.222,0.201,1.415c0.135,0.194,0.43,0.348,0.885,0.46v0.459
			h-3.918v-0.459c0.482-0.125,0.787-0.289,0.914-0.492c0.129-0.203,0.193-0.664,0.193-1.383v-8.107c0-0.824-0.082-1.321-0.244-1.49
			c-0.162-0.168-0.449-0.303-0.863-0.402v-0.46h3.918v0.46c-0.418,0.106-0.703,0.245-0.857,0.417
			c-0.152,0.172-0.229,0.664-0.229,1.476v4.124c0,0.925-0.02,1.703-0.057,2.334h0.057l5.332-6.57c0-0.662-0.064-1.093-0.191-1.293
			c-0.129-0.2-0.428-0.362-0.896-0.487v-0.46h3.9v0.46c-0.42,0.106-0.705,0.245-0.857,0.417c-0.154,0.172-0.23,0.664-0.23,1.476
			v8.107c0,0.75,0.066,1.222,0.201,1.415c0.135,0.194,0.43,0.348,0.887,0.46v0.459H182.973z"/>
		<path fill="#FFFFFF" d="M192.521,52.614c0,0.844-0.098,1.528-0.295,2.053c-0.197,0.525-0.527,0.969-0.994,1.331
			c-0.465,0.362-1.117,0.672-1.953,0.928l-0.311-0.824c0.551-0.213,0.941-0.427,1.172-0.643c0.232-0.216,0.393-0.485,0.482-0.811
			c0.092-0.325,0.137-0.763,0.137-1.313V42.802c0-0.544-0.027-0.915-0.08-1.115s-0.141-0.354-0.262-0.46
			c-0.123-0.105-0.373-0.209-0.754-0.309v-0.46h3.955v0.46c-0.275,0.068-0.475,0.138-0.596,0.206
			c-0.123,0.068-0.219,0.154-0.291,0.258c-0.072,0.103-0.125,0.258-0.158,0.464c-0.035,0.206-0.053,0.524-0.053,0.956V52.614z"/>
		<path fill="#FFFFFF" d="M202.293,53.252v-0.459c0.313-0.063,0.545-0.132,0.699-0.206c0.152-0.075,0.266-0.18,0.342-0.314
			c0.074-0.134,0.111-0.313,0.111-0.539c0-0.212-0.025-0.441-0.074-0.688c-0.051-0.247-0.121-0.523-0.215-0.83l-0.348-1.209h-4.367
			l-0.318,0.919c-0.164,0.462-0.27,0.813-0.32,1.05c-0.049,0.237-0.074,0.453-0.074,0.646c0,0.375,0.096,0.65,0.285,0.825
			c0.191,0.175,0.484,0.29,0.877,0.347v0.459h-4.002v-0.459c0.35-0.057,0.654-0.26,0.914-0.609s0.51-0.85,0.754-1.5l3.908-10.375
			h1.48l3.188,10.45c0.15,0.487,0.283,0.859,0.398,1.115c0.115,0.257,0.254,0.456,0.418,0.6c0.162,0.145,0.383,0.25,0.664,0.319
			v0.459H202.293z M198.693,48.19h3.918l-1.781-6.045L198.693,48.19z"/>
		<path fill="#FFFFFF" d="M213.383,52.868v-2.625h0.908c0.307,0.888,0.668,1.498,1.084,1.833c0.414,0.334,0.984,0.501,1.711,0.501
			c0.824,0,1.469-0.239,1.934-0.717c0.467-0.479,0.699-1.164,0.699-2.058c0-0.725-0.139-1.284-0.418-1.678
			c-0.277-0.394-0.623-0.651-1.035-0.773c-0.412-0.121-0.955-0.183-1.631-0.183h-1.5v-1.115h1.52c0.986,0,1.701-0.22,2.146-0.66
			c0.443-0.441,0.664-1.111,0.664-2.011c0-0.706-0.215-1.258-0.646-1.654c-0.43-0.396-0.984-0.596-1.658-0.596
			c-0.693,0-1.252,0.16-1.674,0.479s-0.789,0.891-1.102,1.715h-0.908v-2.465c1.463-0.368,2.793-0.553,3.992-0.553
			c2.58,0,3.871,0.98,3.871,2.942c0,1.469-0.824,2.531-2.475,3.188v0.131c1.824,0.519,2.738,1.584,2.738,3.196
			c0,1.156-0.393,2.051-1.178,2.685c-0.783,0.635-1.943,0.952-3.48,0.952C215.801,53.402,214.613,53.224,213.383,52.868z"/>
		<path fill="#FFFFFF" d="M230.859,53.252v-0.459c0.311-0.063,0.545-0.132,0.697-0.206c0.152-0.075,0.268-0.18,0.342-0.314
			c0.076-0.134,0.113-0.313,0.113-0.539c0-0.212-0.025-0.441-0.076-0.688c-0.049-0.247-0.121-0.523-0.215-0.83l-0.348-1.209h-4.367
			l-0.318,0.919c-0.162,0.462-0.268,0.813-0.318,1.05s-0.074,0.453-0.074,0.646c0,0.375,0.094,0.65,0.285,0.825
			c0.189,0.175,0.482,0.29,0.877,0.347v0.459h-4.002v-0.459c0.35-0.057,0.654-0.26,0.912-0.609c0.26-0.35,0.512-0.85,0.756-1.5
			l3.908-10.375h1.48l3.188,10.45c0.148,0.487,0.281,0.859,0.398,1.115c0.115,0.257,0.254,0.456,0.416,0.6
			c0.162,0.145,0.385,0.25,0.666,0.319v0.459H230.859z M227.26,48.19h3.918l-1.781-6.045L227.26,48.19z"/>
		<path fill="#FFFFFF" d="M242.023,53.252v-0.459c0.48-0.125,0.783-0.289,0.908-0.492s0.188-0.664,0.188-1.383v-8.107
			c0-0.78-0.072-1.265-0.219-1.452c-0.148-0.188-0.439-0.334-0.877-0.44v-0.46h8.65v2.831h-0.928
			c-0.238-0.737-0.479-1.256-0.727-1.556c-0.246-0.3-0.68-0.45-1.297-0.45h-2.85v4.733c0.893-0.075,1.684-0.112,2.371-0.112
			c2.836,0,4.254,1.184,4.254,3.552c0,2.53-1.564,3.796-4.695,3.796H242.023z M244.873,46.86v5.511
			c0.455,0.037,0.971,0.056,1.547,0.056c1.137,0,1.949-0.235,2.441-0.707c0.49-0.472,0.734-1.192,0.734-2.16
			c0-1.85-0.961-2.774-2.887-2.774C245.896,46.785,245.285,46.81,244.873,46.86z"/>
		<path fill="#FFFFFF" d="M259.48,53.402c-0.75,0-1.432-0.124-2.047-0.371c-0.617-0.246-1.145-0.631-1.584-1.152
			c-0.441-0.521-0.781-1.188-1.021-2.001c-0.242-0.813-0.361-1.784-0.361-2.915c0-1.394,0.213-2.59,0.637-3.59
			c0.426-0.999,1.033-1.76,1.822-2.282c0.791-0.521,1.709-0.782,2.752-0.782c1.111,0,2.047,0.245,2.807,0.735
			c0.76,0.491,1.332,1.213,1.715,2.165c0.385,0.953,0.576,2.114,0.576,3.482c0,1.462-0.219,2.696-0.654,3.702
			c-0.438,1.006-1.055,1.759-1.852,2.259S260.543,53.402,259.48,53.402z M256.396,46.7c0,1.919,0.279,3.378,0.84,4.377
			c0.559,1,1.375,1.5,2.451,1.5c0.68,0,1.258-0.217,1.732-0.651c0.477-0.435,0.832-1.07,1.07-1.907
			c0.236-0.837,0.355-1.815,0.355-2.934c0-1.362-0.139-2.491-0.418-3.389c-0.277-0.896-0.656-1.548-1.139-1.954
			c-0.48-0.406-1.039-0.609-1.678-0.609c-0.563,0-1.045,0.132-1.447,0.395c-0.402,0.262-0.738,0.636-1.004,1.119
			c-0.266,0.484-0.459,1.07-0.58,1.758S256.396,45.857,256.396,46.7z"/>
		<path fill="#FFFFFF" d="M270.527,50.881c0,0.368,0.02,0.662,0.061,0.881s0.104,0.393,0.188,0.521s0.197,0.228,0.342,0.3
			c0.145,0.071,0.369,0.142,0.676,0.211v0.459h-4.115v-0.459c0.387-0.101,0.646-0.211,0.777-0.333s0.217-0.295,0.258-0.521
			c0.041-0.225,0.061-0.568,0.061-1.03v-8.107c0-0.432-0.016-0.745-0.047-0.942c-0.031-0.196-0.082-0.35-0.154-0.459
			s-0.166-0.197-0.285-0.263s-0.322-0.139-0.609-0.22v-0.46h4.648c1.463,0,2.551,0.28,3.266,0.839
			c0.717,0.56,1.074,1.411,1.074,2.555c0,0.649-0.113,1.233-0.338,1.752c-0.225,0.52-0.543,0.944-0.955,1.275
			s-0.9,0.568-1.463,0.712s-1.152,0.216-1.771,0.216c-0.693,0-1.23-0.013-1.611-0.038V50.881z M270.527,46.991h1.086
			c0.707,0,1.289-0.092,1.748-0.276s0.811-0.49,1.055-0.919c0.244-0.428,0.365-0.995,0.365-1.701c0-0.537-0.07-0.985-0.215-1.345
			s-0.342-0.648-0.596-0.867c-0.252-0.219-0.555-0.373-0.904-0.464s-0.73-0.136-1.143-0.136c-0.619,0-1.084,0.013-1.396,0.037
			V46.991z"/>
		<path fill="#FFFFFF" d="M279.23,53.252v-0.459c0.48-0.125,0.783-0.289,0.908-0.492s0.188-0.664,0.188-1.383v-8.107
			c0-0.78-0.072-1.265-0.219-1.452c-0.148-0.188-0.439-0.334-0.877-0.44v-0.46h8.65v2.831h-0.928
			c-0.238-0.737-0.479-1.256-0.727-1.556c-0.246-0.3-0.68-0.45-1.297-0.45h-2.85v4.733c0.893-0.075,1.684-0.112,2.371-0.112
			c2.836,0,4.254,1.184,4.254,3.552c0,2.53-1.564,3.796-4.695,3.796H279.23z M282.08,46.86v5.511
			c0.455,0.037,0.971,0.056,1.547,0.056c1.137,0,1.949-0.235,2.441-0.707c0.49-0.472,0.734-1.192,0.734-2.16
			c0-1.85-0.961-2.774-2.887-2.774C283.104,46.785,282.492,46.81,282.08,46.86z"/>
		<path fill="#FFFFFF" d="M301.656,40.918c-0.318,0.1-0.596,0.284-0.83,0.553s-0.588,0.912-1.064,1.931l-2.66,5.718
			c-0.807,1.73-1.502,2.888-2.086,3.472c-0.584,0.585-1.293,0.877-2.123,0.877c-0.506,0-0.979-0.072-1.416-0.216v-2.39h1.014
			c0.055,0.725,0.361,1.087,0.918,1.087c0.744,0,1.43-0.606,2.063-1.818l-3.047-6.673c-0.475-1.044-0.811-1.7-1.008-1.969
			s-0.471-0.459-0.82-0.571v-0.46h4.021v0.46c-0.6,0.068-0.9,0.318-0.9,0.749c0,0.4,0.186,1.013,0.553,1.838l2.119,4.752
			l1.875-4.331c0.398-0.924,0.6-1.621,0.6-2.09c0-0.55-0.27-0.855-0.807-0.918v-0.46h3.6V40.918z"/>
		<path fill="#FFFFFF" d="M123.972,62.17v0.46c-0.35,0.087-0.594,0.186-0.73,0.295c-0.138,0.109-0.231,0.273-0.281,0.492
			c-0.051,0.219-0.075,0.584-0.075,1.097v8.107c0,0.362,0.01,0.634,0.028,0.815c0.019,0.181,0.05,0.326,0.094,0.436
			c0.043,0.109,0.097,0.198,0.159,0.267c0.063,0.069,0.151,0.132,0.267,0.188c0.116,0.057,0.296,0.116,0.539,0.179v0.459h-3.937
			v-0.459c0.344-0.088,0.584-0.185,0.722-0.291s0.233-0.269,0.286-0.487s0.08-0.587,0.08-1.105v-9.589h-4.968v9.589
			c0,0.418,0.014,0.725,0.042,0.918c0.028,0.194,0.075,0.347,0.141,0.459c0.065,0.113,0.162,0.207,0.291,0.281
			c0.128,0.075,0.335,0.15,0.623,0.226v0.459h-3.946v-0.459c0.388-0.101,0.647-0.211,0.778-0.333s0.217-0.295,0.258-0.521
			c0.04-0.225,0.061-0.568,0.061-1.03v-8.107c0-0.432-0.016-0.745-0.047-0.942c-0.031-0.196-0.083-0.35-0.154-0.459
			c-0.072-0.109-0.167-0.197-0.286-0.263c-0.118-0.065-0.321-0.139-0.609-0.22v-0.46H123.972z"/>
		<path fill="#FFFFFF" d="M129.751,72.593c0,0.368,0.021,0.662,0.061,0.881c0.041,0.219,0.104,0.393,0.188,0.521
			c0.085,0.128,0.198,0.228,0.343,0.3c0.144,0.071,0.368,0.142,0.675,0.211v0.459h-4.115v-0.459
			c0.388-0.101,0.647-0.211,0.778-0.333s0.217-0.295,0.258-0.521c0.04-0.225,0.061-0.568,0.061-1.03v-8.107
			c0-0.432-0.016-0.745-0.047-0.942c-0.031-0.196-0.083-0.35-0.154-0.459c-0.072-0.109-0.167-0.197-0.286-0.263
			c-0.118-0.065-0.321-0.139-0.609-0.22v-0.46h4.649c1.462,0,2.551,0.28,3.266,0.839c0.716,0.56,1.073,1.411,1.073,2.555
			c0,0.649-0.112,1.233-0.337,1.752c-0.226,0.52-0.544,0.944-0.956,1.275s-0.9,0.568-1.462,0.712
			c-0.563,0.144-1.153,0.216-1.771,0.216c-0.694,0-1.231-0.013-1.612-0.038V72.593z M129.751,68.703h1.087
			c0.706,0,1.289-0.092,1.748-0.276s0.811-0.49,1.055-0.919c0.243-0.428,0.365-0.995,0.365-1.701c0-0.537-0.071-0.985-0.216-1.345
			c-0.144-0.359-0.342-0.648-0.595-0.867s-0.555-0.373-0.904-0.464c-0.351-0.091-0.731-0.136-1.144-0.136
			c-0.618,0-1.084,0.013-1.396,0.037V68.703z"/>
		<path fill="#FFFFFF" d="M143.47,75.114c-0.75,0-1.433-0.124-2.048-0.371c-0.616-0.246-1.144-0.631-1.584-1.152
			s-0.781-1.188-1.021-2.001c-0.241-0.813-0.361-1.784-0.361-2.915c0-1.394,0.213-2.59,0.638-3.59
			c0.425-0.999,1.032-1.76,1.822-2.282c0.791-0.521,1.708-0.782,2.751-0.782c1.112,0,2.048,0.245,2.808,0.735
			c0.759,0.491,1.331,1.213,1.715,2.165c0.385,0.953,0.576,2.114,0.576,3.482c0,1.462-0.219,2.696-0.655,3.702
			c-0.438,1.006-1.055,1.759-1.852,2.259S144.532,75.114,143.47,75.114z M140.386,68.412c0,1.919,0.279,3.378,0.839,4.377
			c0.56,1,1.376,1.5,2.451,1.5c0.681,0,1.259-0.217,1.733-0.651c0.476-0.435,0.831-1.07,1.069-1.907
			c0.237-0.837,0.355-1.815,0.355-2.934c0-1.362-0.139-2.491-0.417-3.389c-0.278-0.896-0.657-1.548-1.139-1.954
			s-1.04-0.609-1.678-0.609c-0.563,0-1.045,0.132-1.448,0.395c-0.402,0.262-0.737,0.636-1.003,1.119
			c-0.266,0.484-0.459,1.07-0.581,1.758C140.448,66.804,140.386,67.569,140.386,68.412z"/>
		<path fill="#FFFFFF" d="M150.879,62.17h10.142v3.262h-0.92c-0.137-0.537-0.273-0.962-0.406-1.274
			c-0.135-0.313-0.277-0.55-0.428-0.712c-0.148-0.163-0.311-0.278-0.482-0.347c-0.172-0.069-0.43-0.104-0.773-0.104h-1.189v9.598
			c0,0.368,0.02,0.662,0.061,0.881s0.104,0.393,0.188,0.521s0.199,0.228,0.342,0.3c0.145,0.071,0.369,0.142,0.676,0.211v0.459
			h-4.283v-0.459c0.188-0.044,0.352-0.091,0.496-0.141s0.262-0.111,0.352-0.183c0.09-0.072,0.166-0.164,0.225-0.277
			c0.061-0.112,0.105-0.265,0.141-0.459c0.035-0.193,0.053-0.478,0.053-0.853v-9.598h-1.182c-0.295,0-0.535,0.028-0.727,0.084
			c-0.191,0.057-0.367,0.174-0.529,0.352c-0.162,0.179-0.311,0.432-0.445,0.76s-0.261,0.742-0.379,1.241h-0.929V62.17z"/>
		<path fill="#FFFFFF" d="M170.502,74.964v-0.459c0.475-0.125,0.775-0.289,0.9-0.492s0.188-0.664,0.188-1.383V68.6
			c0-1.318,0.012-2.165,0.037-2.54h-0.037l-5.334,6.57c0,0.75,0.066,1.222,0.201,1.415c0.135,0.194,0.43,0.348,0.887,0.46v0.459
			h-3.918v-0.459c0.48-0.125,0.785-0.289,0.914-0.492c0.127-0.203,0.191-0.664,0.191-1.383v-8.107c0-0.824-0.08-1.321-0.244-1.49
			c-0.162-0.168-0.449-0.303-0.861-0.402v-0.46h3.918v0.46c-0.42,0.106-0.705,0.245-0.857,0.417c-0.154,0.172-0.23,0.664-0.23,1.476
			v4.124c0,0.925-0.018,1.703-0.057,2.334h0.057l5.334-6.57c0-0.662-0.064-1.093-0.193-1.293c-0.127-0.2-0.426-0.362-0.895-0.487
			v-0.46h3.898v0.46c-0.418,0.106-0.703,0.245-0.857,0.417c-0.152,0.172-0.229,0.664-0.229,1.476v8.107
			c0,0.75,0.066,1.222,0.201,1.415c0.135,0.194,0.43,0.348,0.885,0.46v0.459H170.502z"/>
		<path fill="#FFFFFF" d="M177.359,74.964v-0.459c0.387-0.101,0.646-0.211,0.777-0.333s0.217-0.295,0.258-0.521
			c0.041-0.225,0.061-0.568,0.061-1.03v-8.107c0-0.432-0.016-0.745-0.047-0.942c-0.031-0.196-0.082-0.35-0.154-0.459
			s-0.166-0.197-0.285-0.263s-0.322-0.139-0.609-0.22v-0.46h5.127c0.992,0,1.791,0.106,2.395,0.319
			c0.604,0.212,1.051,0.526,1.346,0.941c0.293,0.416,0.439,0.951,0.439,1.607c0,0.544-0.105,1.016-0.314,1.415
			c-0.209,0.4-0.482,0.731-0.82,0.994c-0.336,0.263-0.771,0.506-1.303,0.73v0.085c0.85,0.256,1.494,0.651,1.932,1.186
			s0.656,1.17,0.656,1.907c0,0.85-0.189,1.543-0.566,2.081c-0.379,0.537-0.908,0.926-1.59,1.166
			c-0.682,0.241-1.506,0.361-2.475,0.361H177.359z M181.848,67.906c0.951,0,1.678-0.229,2.18-0.688
			c0.504-0.46,0.756-1.127,0.756-2.001c0-0.432-0.07-0.789-0.211-1.073s-0.336-0.511-0.582-0.68s-0.539-0.289-0.877-0.361
			c-0.336-0.071-0.703-0.107-1.096-0.107c-0.238,0-0.551,0.006-0.938,0.019s-0.678,0.025-0.871,0.038v4.854H181.848z
			 M180.209,74.073c0.455,0.044,0.965,0.065,1.527,0.065c0.818,0,1.453-0.103,1.906-0.309s0.781-0.511,0.984-0.914
			s0.305-0.907,0.305-1.514s-0.111-1.106-0.332-1.5c-0.223-0.394-0.564-0.687-1.027-0.881c-0.461-0.193-1.1-0.29-1.91-0.29h-1.453
			V74.073z"/>
		<path fill="#FFFFFF" d="M202.367,74.964v-0.459c-0.256-0.631-0.471-1.185-0.646-1.659l-0.703-1.894
			c-0.236-0.637-0.453-1.097-0.646-1.378c-0.193-0.28-0.42-0.487-0.68-0.618s-0.611-0.197-1.055-0.197h-1.143v3.871
			c0,0.75,0.066,1.222,0.201,1.415c0.135,0.194,0.43,0.348,0.885,0.46v0.459h-3.955v-0.459c0.426-0.101,0.717-0.234,0.873-0.403
			s0.234-0.659,0.234-1.472v-8.107c0-0.824-0.082-1.321-0.244-1.49c-0.162-0.168-0.449-0.303-0.863-0.402v-0.46h3.955v0.46
			c-0.418,0.106-0.703,0.245-0.857,0.417c-0.152,0.172-0.229,0.664-0.229,1.476v3.431h1.125c0.506,0,0.904-0.151,1.195-0.454
			c0.289-0.304,0.66-1.08,1.109-2.329c0.412-1.182,0.824-2.001,1.232-2.461c0.41-0.459,1.076-0.688,2.002-0.688
			c0.293,0,0.68,0.068,1.162,0.206v2.155h-0.928c-0.076-0.618-0.348-0.928-0.816-0.928c-0.287,0-0.533,0.135-0.74,0.403
			c-0.205,0.269-0.49,0.862-0.854,1.78c-0.287,0.75-0.537,1.302-0.748,1.654c-0.213,0.354-0.504,0.646-0.873,0.877v0.075
			c1.025,0.313,1.816,1.09,2.371,2.333l0.844,1.903c0.313,0.706,0.598,1.204,0.854,1.494c0.256,0.291,0.641,0.468,1.152,0.53v0.459
			H202.367z"/>
		<path fill="#FFFFFF" d="M212.383,75.114c-0.75,0-1.432-0.124-2.047-0.371c-0.617-0.246-1.145-0.631-1.584-1.152
			c-0.441-0.521-0.781-1.188-1.021-2.001c-0.242-0.813-0.361-1.784-0.361-2.915c0-1.394,0.213-2.59,0.637-3.59
			c0.426-0.999,1.033-1.76,1.822-2.282c0.791-0.521,1.709-0.782,2.752-0.782c1.111,0,2.047,0.245,2.807,0.735
			c0.76,0.491,1.332,1.213,1.715,2.165c0.385,0.953,0.576,2.114,0.576,3.482c0,1.462-0.219,2.696-0.654,3.702
			c-0.438,1.006-1.055,1.759-1.852,2.259S213.445,75.114,212.383,75.114z M209.299,68.412c0,1.919,0.279,3.378,0.84,4.377
			c0.559,1,1.375,1.5,2.451,1.5c0.68,0,1.258-0.217,1.732-0.651c0.477-0.435,0.832-1.07,1.07-1.907
			c0.236-0.837,0.355-1.815,0.355-2.934c0-1.362-0.139-2.491-0.418-3.389c-0.277-0.896-0.656-1.548-1.139-1.954
			c-0.48-0.406-1.039-0.609-1.678-0.609c-0.563,0-1.045,0.132-1.447,0.395c-0.402,0.262-0.738,0.636-1.004,1.119
			c-0.266,0.484-0.459,1.07-0.58,1.758S209.299,67.569,209.299,68.412z"/>
		<path fill="#FFFFFF" d="M223.43,72.593c0,0.368,0.021,0.662,0.061,0.881c0.041,0.219,0.104,0.393,0.188,0.521
			c0.086,0.128,0.199,0.228,0.344,0.3c0.143,0.071,0.367,0.142,0.674,0.211v0.459h-4.115v-0.459
			c0.389-0.101,0.648-0.211,0.779-0.333s0.217-0.295,0.258-0.521c0.039-0.225,0.061-0.568,0.061-1.03v-8.107
			c0-0.432-0.016-0.745-0.047-0.942c-0.031-0.196-0.084-0.35-0.154-0.459c-0.072-0.109-0.168-0.197-0.287-0.263
			c-0.117-0.065-0.32-0.139-0.609-0.22v-0.46h4.65c1.461,0,2.551,0.28,3.266,0.839c0.715,0.56,1.072,1.411,1.072,2.555
			c0,0.649-0.111,1.233-0.336,1.752c-0.227,0.52-0.545,0.944-0.957,1.275s-0.9,0.568-1.461,0.712
			c-0.563,0.144-1.154,0.216-1.771,0.216c-0.695,0-1.232-0.013-1.613-0.038V72.593z M223.43,68.703h1.088
			c0.705,0,1.289-0.092,1.748-0.276s0.811-0.49,1.055-0.919c0.242-0.428,0.365-0.995,0.365-1.701c0-0.537-0.072-0.985-0.217-1.345
			c-0.143-0.359-0.342-0.648-0.594-0.867c-0.254-0.219-0.555-0.373-0.904-0.464c-0.352-0.091-0.732-0.136-1.145-0.136
			c-0.617,0-1.084,0.013-1.396,0.037V68.703z"/>
		<path fill="#FFFFFF" d="M242.424,62.63c-0.318,0.1-0.594,0.284-0.828,0.553s-0.59,0.912-1.064,1.931l-2.662,5.718
			c-0.807,1.73-1.5,2.888-2.086,3.472c-0.584,0.585-1.291,0.877-2.123,0.877c-0.506,0-0.977-0.072-1.414-0.216v-2.39h1.012
			c0.057,0.725,0.363,1.087,0.918,1.087c0.744,0,1.432-0.606,2.063-1.818l-3.045-6.673c-0.477-1.044-0.813-1.7-1.008-1.969
			c-0.197-0.269-0.471-0.459-0.82-0.571v-0.46h4.02v0.46c-0.6,0.068-0.898,0.318-0.898,0.749c0,0.4,0.184,1.013,0.553,1.838
			l2.117,4.752l1.875-4.331c0.4-0.924,0.6-1.621,0.6-2.09c0-0.55-0.268-0.855-0.805-0.918v-0.46h3.598V62.63z"/>
		<path fill="#FFFFFF" d="M254.988,62.17v0.46c-0.35,0.087-0.594,0.186-0.73,0.295s-0.23,0.273-0.281,0.492
			s-0.074,0.584-0.074,1.097v8.107c0,0.362,0.01,0.634,0.027,0.815c0.02,0.181,0.051,0.326,0.094,0.436s0.098,0.198,0.16,0.267
			c0.063,0.069,0.15,0.132,0.266,0.188c0.117,0.057,0.297,0.116,0.539,0.179v0.459h-3.936v-0.459
			c0.344-0.088,0.584-0.185,0.721-0.291c0.139-0.106,0.234-0.269,0.287-0.487s0.08-0.587,0.08-1.105v-9.589h-4.969v9.589
			c0,0.418,0.014,0.725,0.043,0.918c0.027,0.194,0.074,0.347,0.141,0.459c0.064,0.113,0.162,0.207,0.291,0.281
			c0.127,0.075,0.334,0.15,0.623,0.226v0.459h-3.947v-0.459c0.389-0.101,0.648-0.211,0.779-0.333s0.217-0.295,0.258-0.521
			c0.039-0.225,0.061-0.568,0.061-1.03v-8.107c0-0.432-0.016-0.745-0.047-0.942c-0.031-0.196-0.084-0.35-0.154-0.459
			c-0.072-0.109-0.168-0.197-0.287-0.263c-0.117-0.065-0.32-0.139-0.609-0.22v-0.46H254.988z"/>
		<path fill="#FFFFFF" d="M267.957,78.329c-0.055-0.676-0.18-1.313-0.375-1.912c-0.193-0.601-0.408-0.992-0.646-1.177
			c-0.236-0.185-0.559-0.276-0.965-0.276h-8.033v-0.459c0.469-0.125,0.766-0.289,0.891-0.492s0.188-0.664,0.188-1.383v-8.107
			c0-0.756-0.066-1.233-0.201-1.434s-0.426-0.353-0.877-0.459v-0.46h3.938v0.46c-0.418,0.106-0.705,0.245-0.857,0.417
			c-0.154,0.172-0.23,0.664-0.23,1.476v9.579h4.865v-9.579c0-0.78-0.074-1.265-0.221-1.452s-0.439-0.334-0.877-0.44v-0.46h3.938
			v0.46c-0.406,0.1-0.688,0.234-0.844,0.402c-0.156,0.169-0.234,0.666-0.234,1.49v9.579h1.5v4.228H267.957z"/>
		<path fill="#FFFFFF" d="M278.545,74.964v-0.459c0.475-0.125,0.775-0.289,0.9-0.492s0.188-0.664,0.188-1.383V68.6
			c0-1.318,0.012-2.165,0.037-2.54h-0.037l-5.334,6.57c0,0.75,0.066,1.222,0.201,1.415c0.135,0.194,0.43,0.348,0.887,0.46v0.459
			h-3.918v-0.459c0.48-0.125,0.785-0.289,0.914-0.492c0.127-0.203,0.191-0.664,0.191-1.383v-8.107c0-0.824-0.08-1.321-0.244-1.49
			c-0.162-0.168-0.449-0.303-0.861-0.402v-0.46h3.918v0.46c-0.42,0.106-0.705,0.245-0.857,0.417c-0.154,0.172-0.23,0.664-0.23,1.476
			v4.124c0,0.925-0.018,1.703-0.057,2.334h0.057l5.334-6.57c0-0.662-0.064-1.093-0.193-1.293c-0.127-0.2-0.426-0.362-0.895-0.487
			v-0.46h3.898v0.46c-0.418,0.106-0.703,0.245-0.857,0.417c-0.152,0.172-0.229,0.664-0.229,1.476v8.107
			c0,0.75,0.066,1.222,0.201,1.415c0.135,0.194,0.43,0.348,0.885,0.46v0.459H278.545z"/>
		<path fill="#FFFFFF" d="M288.092,74.326c0,0.844-0.098,1.528-0.295,2.053c-0.197,0.525-0.527,0.969-0.994,1.331
			c-0.465,0.362-1.117,0.672-1.953,0.928l-0.311-0.824c0.551-0.213,0.941-0.427,1.172-0.643c0.232-0.216,0.393-0.485,0.482-0.811
			c0.092-0.325,0.137-0.763,0.137-1.313V64.514c0-0.544-0.027-0.915-0.08-1.115s-0.141-0.354-0.262-0.46
			c-0.123-0.105-0.373-0.209-0.754-0.309v-0.46h3.955v0.46c-0.275,0.068-0.475,0.138-0.596,0.206
			c-0.123,0.068-0.219,0.154-0.291,0.258c-0.072,0.103-0.125,0.258-0.158,0.464c-0.035,0.206-0.053,0.524-0.053,0.956V74.326z"/>
		<path fill="#FFFFFF" d="M300.703,62.17v2.831h-0.918c-0.094-0.307-0.191-0.575-0.291-0.807c-0.1-0.23-0.203-0.425-0.309-0.581
			c-0.107-0.155-0.225-0.28-0.352-0.374c-0.129-0.094-0.279-0.158-0.455-0.192c-0.174-0.034-0.385-0.052-0.627-0.052h-2.963v4.911
			h2.006c0.275,0,0.49-0.039,0.646-0.117s0.287-0.211,0.389-0.398c0.104-0.188,0.203-0.48,0.297-0.881h0.881v3.599h-0.881
			c-0.088-0.374-0.186-0.657-0.291-0.848c-0.107-0.19-0.232-0.326-0.381-0.408c-0.146-0.081-0.367-0.121-0.66-0.121h-2.006v5.407
			h2.916c0.305,0,0.555-0.026,0.744-0.079c0.191-0.053,0.355-0.144,0.492-0.271c0.137-0.129,0.26-0.296,0.365-0.502
			c0.107-0.206,0.195-0.42,0.268-0.642s0.17-0.546,0.295-0.971h0.928l-0.178,3.29h-8.68v-0.459c0.389-0.101,0.648-0.211,0.779-0.333
			s0.217-0.295,0.258-0.521c0.039-0.225,0.061-0.568,0.061-1.03v-8.107c0-0.432-0.016-0.745-0.047-0.942
			c-0.031-0.196-0.084-0.35-0.154-0.459c-0.072-0.109-0.168-0.197-0.287-0.263c-0.117-0.065-0.32-0.139-0.609-0.22v-0.46H300.703z"
			/>
	</g>
	<g>
		<path fill="#FFFFFF" d="M116.418,30.11c0,0.233,0.013,0.42,0.038,0.559c0.026,0.139,0.065,0.249,0.119,0.33
			s0.126,0.145,0.217,0.19c0.092,0.045,0.234,0.09,0.429,0.134v0.291h-2.61v-0.291c0.245-0.063,0.41-0.134,0.493-0.211
			c0.083-0.078,0.138-0.188,0.164-0.33c0.025-0.144,0.038-0.361,0.038-0.654v-5.144c0-0.273-0.01-0.473-0.029-0.598
			c-0.021-0.125-0.053-0.222-0.099-0.291s-0.105-0.125-0.182-0.167c-0.075-0.041-0.204-0.088-0.386-0.14v-0.291h2.949
			c0.928,0,1.618,0.178,2.072,0.532c0.453,0.354,0.681,0.895,0.681,1.62c0,0.412-0.071,0.783-0.214,1.112
			c-0.144,0.329-0.346,0.599-0.607,0.809c-0.261,0.21-0.57,0.36-0.927,0.451c-0.357,0.092-0.731,0.138-1.124,0.138
			c-0.44,0-0.781-0.009-1.022-0.024V30.11z M116.418,27.643h0.689c0.448,0,0.817-0.059,1.108-0.176
			c0.292-0.117,0.515-0.311,0.669-0.583c0.155-0.271,0.232-0.631,0.232-1.079c0-0.341-0.046-0.625-0.137-0.853
			c-0.092-0.229-0.217-0.411-0.378-0.551c-0.16-0.139-0.352-0.236-0.573-0.294c-0.223-0.058-0.464-0.086-0.726-0.086
			c-0.393,0-0.688,0.008-0.886,0.023V27.643z"/>
		<path fill="#FFFFFF" d="M131.603,23.498v1.796h-0.583c-0.06-0.194-0.121-0.365-0.185-0.512s-0.129-0.27-0.196-0.368
			c-0.067-0.1-0.142-0.179-0.223-0.238s-0.178-0.1-0.288-0.122c-0.111-0.021-0.244-0.032-0.398-0.032h-1.879v3.115h1.272
			c0.174,0,0.311-0.024,0.41-0.074c0.099-0.05,0.181-0.134,0.246-0.253c0.065-0.118,0.128-0.305,0.188-0.559h0.56v2.283h-0.56
			c-0.056-0.237-0.117-0.417-0.185-0.538s-0.147-0.207-0.24-0.259c-0.094-0.051-0.233-0.077-0.419-0.077h-1.272v3.431h1.849
			c0.194,0,0.352-0.017,0.473-0.051c0.121-0.033,0.226-0.091,0.313-0.172s0.164-0.188,0.231-0.318s0.124-0.267,0.17-0.407
			s0.107-0.346,0.188-0.615h0.588l-0.112,2.087h-5.506v-0.291c0.245-0.063,0.41-0.134,0.493-0.211
			c0.083-0.078,0.138-0.188,0.164-0.33c0.025-0.144,0.038-0.361,0.038-0.654v-5.144c0-0.273-0.01-0.473-0.029-0.598
			c-0.021-0.125-0.053-0.222-0.099-0.291s-0.105-0.125-0.182-0.167c-0.075-0.041-0.204-0.088-0.386-0.14v-0.291H131.603z"/>
		<path fill="#FFFFFF" d="M144.332,23.498v0.291c-0.223,0.056-0.377,0.118-0.464,0.188c-0.088,0.069-0.147,0.174-0.179,0.313
			c-0.032,0.139-0.048,0.37-0.048,0.695v5.144c0,0.229,0.006,0.402,0.019,0.518c0.012,0.114,0.031,0.207,0.059,0.276
			c0.028,0.069,0.062,0.126,0.102,0.169c0.039,0.044,0.096,0.083,0.169,0.119c0.074,0.036,0.188,0.073,0.343,0.113v0.291h-2.498
			v-0.291c0.219-0.056,0.371-0.117,0.458-0.185s0.147-0.171,0.182-0.31c0.033-0.139,0.051-0.372,0.051-0.701v-6.083h-3.151v6.083
			c0,0.266,0.009,0.46,0.026,0.583c0.018,0.122,0.048,0.22,0.089,0.291c0.042,0.071,0.104,0.131,0.185,0.179
			c0.081,0.047,0.213,0.095,0.396,0.143v0.291h-2.503v-0.291c0.245-0.063,0.41-0.134,0.493-0.211
			c0.083-0.078,0.138-0.188,0.164-0.33c0.025-0.144,0.038-0.361,0.038-0.654v-5.144c0-0.273-0.01-0.473-0.029-0.598
			c-0.021-0.125-0.053-0.222-0.099-0.291s-0.105-0.125-0.182-0.167c-0.075-0.041-0.204-0.088-0.386-0.14v-0.291H144.332z"/>
		<path fill="#FFFFFF" d="M156.811,23.789c-0.201,0.063-0.377,0.181-0.525,0.352c-0.148,0.17-0.375,0.578-0.676,1.225l-1.688,3.627
			c-0.512,1.098-0.953,1.832-1.324,2.203c-0.371,0.37-0.819,0.556-1.346,0.556c-0.321,0-0.62-0.046-0.897-0.137v-1.517h0.642
			c0.036,0.46,0.23,0.69,0.583,0.69c0.472,0,0.908-0.385,1.308-1.154l-1.932-4.233c-0.302-0.661-0.515-1.078-0.64-1.248
			c-0.125-0.171-0.298-0.292-0.521-0.363v-0.291h2.551v0.291c-0.38,0.044-0.571,0.202-0.571,0.476c0,0.254,0.116,0.643,0.35,1.166
			l1.344,3.015l1.189-2.747c0.254-0.587,0.381-1.029,0.381-1.326c0-0.349-0.17-0.543-0.512-0.583v-0.291h2.283V23.789z"/>
		<path fill="#FFFFFF" d="M162.119,31.614v-0.291c0.305-0.079,0.498-0.184,0.576-0.313c0.08-0.129,0.119-0.421,0.119-0.877V24.99
			c0-0.495-0.047-0.803-0.139-0.921c-0.094-0.119-0.279-0.213-0.557-0.28v-0.291h5.488v1.796h-0.588
			c-0.152-0.468-0.305-0.797-0.461-0.987c-0.158-0.19-0.432-0.285-0.824-0.285h-1.807v3.003c0.566-0.048,1.068-0.071,1.504-0.071
			c1.799,0,2.699,0.751,2.699,2.253c0,1.605-0.992,2.408-2.979,2.408H162.119z M163.928,27.56v3.496
			c0.289,0.023,0.615,0.035,0.98,0.035c0.721,0,1.238-0.149,1.549-0.448c0.311-0.3,0.467-0.757,0.467-1.371
			c0-1.173-0.611-1.76-1.832-1.76C164.576,27.512,164.189,27.527,163.928,27.56z"/>
		<path fill="#FFFFFF" d="M180.74,31.614h-2.52v-0.291c0.336-0.079,0.541-0.196,0.611-0.352c0.072-0.154,0.107-0.436,0.107-0.844
			v-6.106h-1.652c-0.084,1.019-0.244,2.108-0.482,3.271c-0.238,1.161-0.486,2.079-0.744,2.753c-0.256,0.674-0.521,1.119-0.793,1.338
			c-0.271,0.218-0.578,0.326-0.918,0.326c-0.342,0-0.648-0.047-0.922-0.143v-1.201h0.582c0.035,0.282,0.174,0.423,0.416,0.423
			c0.18,0,0.354-0.09,0.523-0.268c0.17-0.179,0.369-0.614,0.596-1.309c0.225-0.693,0.434-1.525,0.627-2.497
			c0.191-0.971,0.287-1.679,0.287-2.123c0-0.293-0.043-0.494-0.131-0.604c-0.086-0.108-0.242-0.177-0.469-0.205v-0.285h4.881v0.291
			c-0.293,0.071-0.48,0.168-0.564,0.289c-0.082,0.121-0.125,0.423-0.125,0.906v5.144c0,0.472,0.043,0.771,0.125,0.897
			c0.084,0.127,0.271,0.227,0.564,0.298V31.614z"/>
		<path fill="#FFFFFF" d="M191.193,31.614v-0.291c0.301-0.079,0.49-0.184,0.57-0.313c0.078-0.129,0.119-0.421,0.119-0.877v-2.557
			c0-0.837,0.008-1.374,0.023-1.611h-0.023l-3.385,4.168c0,0.476,0.043,0.775,0.129,0.897c0.086,0.123,0.271,0.221,0.563,0.292
			v0.291h-2.486v-0.291c0.305-0.079,0.498-0.184,0.58-0.313s0.121-0.421,0.121-0.877V24.99c0-0.523-0.051-0.838-0.154-0.945
			c-0.104-0.106-0.285-0.192-0.547-0.256v-0.291h2.486v0.291c-0.266,0.067-0.447,0.156-0.545,0.265
			c-0.098,0.109-0.146,0.422-0.146,0.937v2.616c0,0.587-0.012,1.08-0.035,1.48h0.035l3.385-4.168c0-0.42-0.041-0.693-0.123-0.82
			c-0.08-0.127-0.27-0.229-0.566-0.31v-0.291h2.473v0.291c-0.266,0.067-0.447,0.156-0.545,0.265
			c-0.096,0.109-0.145,0.422-0.145,0.937v5.144c0,0.476,0.043,0.775,0.127,0.897c0.086,0.123,0.273,0.221,0.563,0.292v0.291H191.193
			z"/>
		<path fill="#FFFFFF" d="M204.559,31.614v-0.291c-0.164-0.4-0.301-0.752-0.41-1.053l-0.447-1.201
			c-0.15-0.404-0.287-0.695-0.41-0.874s-0.266-0.31-0.43-0.393c-0.166-0.083-0.389-0.125-0.67-0.125h-0.725v2.456
			c0,0.476,0.041,0.775,0.127,0.897c0.086,0.123,0.273,0.221,0.563,0.292v0.291h-2.51v-0.291c0.27-0.063,0.453-0.149,0.553-0.256
			c0.1-0.107,0.148-0.418,0.148-0.934V24.99c0-0.523-0.051-0.838-0.154-0.945c-0.104-0.106-0.285-0.192-0.547-0.256v-0.291h2.51
			v0.291c-0.266,0.067-0.447,0.156-0.545,0.265c-0.096,0.109-0.145,0.422-0.145,0.937v2.177h0.713c0.32,0,0.574-0.097,0.758-0.289
			c0.186-0.191,0.42-0.685,0.705-1.478c0.262-0.749,0.521-1.27,0.781-1.561s0.684-0.437,1.27-0.437c0.188,0,0.432,0.043,0.738,0.131
			v1.367h-0.59c-0.047-0.393-0.219-0.589-0.518-0.589c-0.182,0-0.338,0.085-0.469,0.256s-0.311,0.547-0.541,1.13
			c-0.182,0.476-0.342,0.825-0.477,1.049c-0.135,0.225-0.318,0.41-0.553,0.557v0.047c0.65,0.198,1.152,0.692,1.504,1.481
			l0.535,1.207c0.199,0.447,0.379,0.764,0.541,0.948c0.164,0.184,0.406,0.296,0.732,0.336v0.291H204.559z"/>
		<path fill="#FFFFFF" d="M216.094,31.614v-0.291c0.197-0.04,0.346-0.084,0.441-0.131c0.098-0.048,0.17-0.114,0.217-0.199
			c0.049-0.086,0.072-0.199,0.072-0.342c0-0.135-0.016-0.28-0.047-0.438c-0.033-0.156-0.078-0.332-0.137-0.526l-0.221-0.767h-2.771
			l-0.201,0.583c-0.104,0.293-0.17,0.515-0.203,0.665c-0.031,0.151-0.047,0.288-0.047,0.411c0,0.237,0.061,0.412,0.182,0.522
			c0.121,0.111,0.307,0.185,0.555,0.221v0.291h-2.537v-0.291c0.221-0.036,0.414-0.165,0.578-0.387
			c0.166-0.222,0.324-0.539,0.479-0.951l2.48-6.582h0.939l2.021,6.629c0.096,0.31,0.18,0.546,0.252,0.708
			c0.074,0.162,0.162,0.289,0.266,0.381c0.104,0.091,0.244,0.158,0.422,0.202v0.291H216.094z M213.811,28.403h2.484l-1.129-3.835
			L213.811,28.403z"/>
		<path fill="#FFFFFF" d="M244.059,23.671v1.646h-0.588c-0.096-0.345-0.217-0.619-0.363-0.823s-0.318-0.35-0.512-0.438
			c-0.193-0.087-0.428-0.131-0.701-0.131c-0.408,0-0.771,0.136-1.092,0.407c-0.318,0.272-0.57,0.681-0.752,1.226
			s-0.273,1.204-0.273,1.977c0,0.777,0.076,1.44,0.227,1.989s0.371,0.963,0.666,1.242c0.293,0.28,0.654,0.42,1.082,0.42
			c0.324,0,0.59-0.047,0.797-0.14c0.205-0.094,0.379-0.241,0.52-0.443s0.275-0.5,0.402-0.892h0.588v1.7
			c-0.373,0.099-0.754,0.174-1.145,0.223c-0.391,0.05-0.82,0.074-1.287,0.074c-1.008,0-1.768-0.341-2.283-1.022
			s-0.773-1.698-0.773-3.05c0-0.849,0.135-1.592,0.402-2.23c0.268-0.638,0.66-1.131,1.18-1.48c0.52-0.349,1.139-0.522,1.861-0.522
			c0.359,0,0.693,0.019,0.998,0.056C243.316,23.497,243.666,23.567,244.059,23.671z"/>
		<path fill="#FFFFFF" d="M251.758,30.11c0,0.233,0.012,0.42,0.037,0.559c0.027,0.139,0.066,0.249,0.119,0.33
			c0.055,0.081,0.127,0.145,0.217,0.19c0.092,0.045,0.234,0.09,0.43,0.134v0.291h-2.611v-0.291c0.246-0.063,0.41-0.134,0.494-0.211
			c0.082-0.078,0.137-0.188,0.164-0.33c0.025-0.144,0.037-0.361,0.037-0.654v-5.144c0-0.273-0.01-0.473-0.029-0.598
			s-0.053-0.222-0.098-0.291c-0.047-0.069-0.105-0.125-0.182-0.167c-0.076-0.041-0.205-0.088-0.387-0.14v-0.291h2.949
			c0.928,0,1.619,0.178,2.072,0.532s0.682,0.895,0.682,1.62c0,0.412-0.072,0.783-0.215,1.112s-0.346,0.599-0.607,0.809
			c-0.26,0.21-0.57,0.36-0.926,0.451c-0.357,0.092-0.732,0.138-1.125,0.138c-0.439,0-0.781-0.009-1.021-0.024V30.11z
			 M251.758,27.643h0.689c0.447,0,0.816-0.059,1.107-0.176c0.293-0.117,0.516-0.311,0.67-0.583c0.154-0.271,0.232-0.631,0.232-1.079
			c0-0.341-0.047-0.625-0.137-0.853c-0.092-0.229-0.217-0.411-0.379-0.551c-0.16-0.139-0.352-0.236-0.572-0.294
			c-0.223-0.058-0.465-0.086-0.727-0.086c-0.393,0-0.688,0.008-0.885,0.023V27.643z"/>
		<path fill="#FFFFFF" d="M261.383,31.614v-0.291c0.305-0.079,0.498-0.184,0.576-0.313c0.08-0.129,0.119-0.421,0.119-0.877V24.99
			c0-0.495-0.047-0.803-0.139-0.921c-0.094-0.119-0.279-0.213-0.557-0.28v-0.291h5.488v1.796h-0.588
			c-0.152-0.468-0.305-0.797-0.461-0.987c-0.158-0.19-0.432-0.285-0.824-0.285h-1.807v3.003c0.566-0.048,1.068-0.071,1.504-0.071
			c1.799,0,2.699,0.751,2.699,2.253c0,1.605-0.992,2.408-2.979,2.408H261.383z M263.191,27.56v3.496
			c0.289,0.023,0.615,0.035,0.98,0.035c0.721,0,1.238-0.149,1.549-0.448c0.311-0.3,0.467-0.757,0.467-1.371
			c0-1.173-0.611-1.76-1.832-1.76C263.84,27.512,263.453,27.527,263.191,27.56z"/>
		<path fill="#FFFFFF" d="M277.686,31.614v-0.291c0.301-0.079,0.492-0.184,0.57-0.313c0.08-0.129,0.119-0.421,0.119-0.877v-2.557
			c0-0.837,0.008-1.374,0.023-1.611h-0.023l-3.383,4.168c0,0.476,0.043,0.775,0.127,0.897c0.086,0.123,0.273,0.221,0.563,0.292
			v0.291h-2.484v-0.291c0.305-0.079,0.498-0.184,0.578-0.313c0.082-0.129,0.123-0.421,0.123-0.877V24.99
			c0-0.523-0.053-0.838-0.154-0.945c-0.104-0.106-0.285-0.192-0.547-0.256v-0.291h2.484v0.291c-0.266,0.067-0.447,0.156-0.543,0.265
			c-0.098,0.109-0.146,0.422-0.146,0.937v2.616c0,0.587-0.012,1.08-0.035,1.48h0.035l3.383-4.168c0-0.42-0.041-0.693-0.121-0.82
			c-0.082-0.127-0.271-0.229-0.568-0.31v-0.291h2.475v0.291c-0.266,0.067-0.447,0.156-0.545,0.265
			c-0.098,0.109-0.146,0.422-0.146,0.937v5.144c0,0.476,0.043,0.775,0.129,0.897c0.084,0.123,0.271,0.221,0.563,0.292v0.291H277.686
			z"/>
		<path fill="#FFFFFF" d="M287.846,31.21c0,0.535-0.063,0.969-0.188,1.302c-0.123,0.333-0.334,0.615-0.629,0.845
			s-0.709,0.426-1.24,0.589l-0.195-0.523c0.348-0.135,0.596-0.271,0.742-0.407s0.248-0.309,0.307-0.515
			c0.057-0.206,0.086-0.483,0.086-0.832v-6.684c0-0.345-0.018-0.58-0.051-0.707s-0.09-0.225-0.166-0.292
			c-0.078-0.067-0.236-0.133-0.479-0.196v-0.291h2.51v0.291c-0.176,0.044-0.301,0.088-0.379,0.131
			c-0.076,0.044-0.139,0.099-0.184,0.164c-0.047,0.065-0.08,0.163-0.102,0.294s-0.033,0.333-0.033,0.606V31.21z"/>
		<path fill="#FFFFFF" d="M298.15,31.614v-0.291c0.197-0.04,0.346-0.084,0.441-0.131c0.098-0.048,0.17-0.114,0.217-0.199
			c0.049-0.086,0.072-0.199,0.072-0.342c0-0.135-0.016-0.28-0.047-0.438c-0.033-0.156-0.078-0.332-0.137-0.526l-0.221-0.767h-2.771
			l-0.201,0.583c-0.104,0.293-0.17,0.515-0.203,0.665c-0.031,0.151-0.047,0.288-0.047,0.411c0,0.237,0.061,0.412,0.182,0.522
			c0.121,0.111,0.307,0.185,0.555,0.221v0.291h-2.537v-0.291c0.221-0.036,0.414-0.165,0.578-0.387
			c0.166-0.222,0.324-0.539,0.479-0.951l2.48-6.582h0.939l2.021,6.629c0.096,0.31,0.18,0.546,0.252,0.708
			c0.074,0.162,0.162,0.289,0.266,0.381c0.104,0.091,0.244,0.158,0.422,0.202v0.291H298.15z M295.867,28.403h2.484l-1.129-3.835
			L295.867,28.403z"/>
	</g>
</g>
</svg>
