<?xml version="1.0" encoding="utf-8"?>
<!-- Generator: Adobe Illustrator 16.0.0, SVG Export Plug-In . SVG Version: 6.00 Build 0)  -->
<!DOCTYPE svg PUBLIC "-//W3C//DTD SVG 1.1//EN" "http://www.w3.org/Graphics/SVG/1.1/DTD/svg11.dtd">
<svg version="1.1" id="Layer_1" xmlns="http://www.w3.org/2000/svg" xmlns:xlink="http://www.w3.org/1999/xlink" x="0px" y="0px"
	 width="35.43px" height="35.43px" viewBox="0 0 35.43 35.43" enable-background="new 0 0 35.43 35.43" xml:space="preserve">
<path fill="#6ABDD5" d="M34.773,17.715c0,9.425-7.637,17.059-17.058,17.059c-9.422,0-17.06-7.634-17.06-17.059
	c0-9.419,7.638-17.059,17.06-17.059C27.137,0.656,34.773,8.296,34.773,17.715z"/>
<path fill="#585A5C" d="M13.846,21.51l-0.475-1.248H9.333l-0.475,1.274c-0.186,0.497-0.343,0.832-0.474,1.008
	c-0.131,0.172-0.346,0.263-0.644,0.263c-0.253,0-0.477-0.096-0.671-0.281c-0.194-0.187-0.291-0.396-0.291-0.633
	c0-0.135,0.022-0.274,0.067-0.419c0.045-0.146,0.12-0.344,0.224-0.601l2.542-6.452c0.072-0.185,0.159-0.408,0.261-0.669
	c0.102-0.259,0.21-0.475,0.325-0.646s0.267-0.312,0.454-0.418c0.188-0.105,0.419-0.161,0.695-0.161c0.28,0,0.514,0.056,0.701,0.161
	c0.187,0.106,0.338,0.241,0.454,0.409c0.115,0.166,0.212,0.348,0.291,0.539c0.079,0.192,0.18,0.45,0.302,0.771l2.595,6.41
	c0.203,0.488,0.306,0.84,0.306,1.062c0,0.23-0.097,0.442-0.288,0.637c-0.192,0.19-0.424,0.29-0.695,0.29
	c-0.158,0-0.294-0.032-0.407-0.086c-0.113-0.06-0.208-0.136-0.285-0.231c-0.076-0.098-0.159-0.247-0.247-0.449
	C13.984,21.84,13.909,21.663,13.846,21.51z M9.86,18.749h2.969l-1.498-4.097L9.86,18.749z"/>
<path fill="#585A5C" d="M21.021,18.763h-1.843v2.814c0,0.402-0.096,0.707-0.285,0.917c-0.19,0.208-0.43,0.313-0.718,0.313
	c-0.303,0-0.547-0.104-0.732-0.313c-0.186-0.206-0.278-0.506-0.278-0.903v-7.658c0-0.442,0.102-0.758,0.305-0.947
	c0.204-0.19,0.527-0.285,0.969-0.285h2.583c0.763,0,1.351,0.058,1.763,0.177c0.406,0.112,0.757,0.298,1.053,0.56
	c0.295,0.262,0.521,0.583,0.674,0.962c0.154,0.379,0.231,0.81,0.231,1.282c0,1.014-0.313,1.778-0.936,2.301
	C23.182,18.503,22.254,18.763,21.021,18.763z M20.532,14.21h-1.354v3.035h1.354c0.475,0,0.872-0.051,1.189-0.149
	c0.318-0.1,0.562-0.263,0.729-0.488s0.251-0.521,0.251-0.886c0-0.438-0.129-0.795-0.387-1.069
	C22.025,14.357,21.432,14.21,20.532,14.21z"/>
<path fill="#585A5C" d="M26.197,21.577v-7.829c0-0.406,0.092-0.709,0.277-0.912c0.186-0.204,0.425-0.309,0.719-0.309
	c0.303,0,0.548,0.103,0.735,0.303c0.187,0.201,0.281,0.507,0.281,0.918v7.829c0,0.411-0.095,0.717-0.281,0.923
	c-0.188,0.202-0.433,0.307-0.735,0.307c-0.289,0-0.527-0.104-0.715-0.313C26.291,22.288,26.197,21.983,26.197,21.577z"/>
</svg>
