<?xml version="1.0" encoding="utf-8"?>
<!-- Generator: Adobe Illustrator 16.0.0, SVG Export Plug-In . SVG Version: 6.00 Build 0)  -->
<!DOCTYPE svg PUBLIC "-//W3C//DTD SVG 1.1//EN" "http://www.w3.org/Graphics/SVG/1.1/DTD/svg11.dtd">
<svg version="1.1" id="Layer_1" xmlns="http://www.w3.org/2000/svg" xmlns:xlink="http://www.w3.org/1999/xlink" x="0px" y="0px"
	 width="35.43px" height="35.43px" viewBox="0 0 35.43 35.43" enable-background="new 0 0 35.43 35.43" xml:space="preserve">
<path fill="#00417a" d="M34.773,17.715c0,9.425-7.637,17.059-17.058,17.059c-9.422,0-17.061-7.634-17.061-17.059
	c0-9.419,7.639-17.059,17.061-17.059S34.773,8.296,34.773,17.715z"/>
<g>
	<path fill="white" d="M15.413,21.187V10.59c0-0.866,0.197-1.511,0.591-1.943c0.397-0.435,0.905-0.66,1.531-0.66
		c0.647,0,1.169,0.221,1.567,0.647c0.398,0.429,0.6,1.08,0.6,1.956v10.597c0,0.874-0.205,1.527-0.6,1.967
		c-0.4,0.431-0.922,0.653-1.567,0.653c-0.616,0-1.121-0.221-1.523-0.666C15.615,22.702,15.413,22.051,15.413,21.187z"/>
	<g>
		<path fill="white" d="M16.476,24.133l5.13-5.131c0.59-0.591,1.165-0.895,1.729-0.923c0.567-0.025,1.068,0.168,1.495,0.596
			c0.442,0.442,0.646,0.948,0.629,1.512c-0.021,0.563-0.328,1.146-0.925,1.744l-5.132,5.13c-0.595,0.597-1.181,0.901-1.75,0.933
			c-0.568,0.021-1.076-0.183-1.516-0.624c-0.42-0.42-0.614-0.917-0.585-1.495C15.579,25.305,15.885,24.722,16.476,24.133z"/>
		<path fill="white" d="M19.564,25.874c0.031,0.578-0.163,1.075-0.585,1.495c-0.439,0.441-0.948,0.645-1.516,0.624
			c-0.569-0.031-1.154-0.336-1.751-0.933l-5.129-5.13c-0.598-0.599-0.905-1.181-0.926-1.744c-0.019-0.563,0.187-1.069,0.628-1.512
			c0.428-0.428,0.928-0.621,1.496-0.596c0.563,0.028,1.138,0.332,1.729,0.923l5.129,5.131
			C19.231,24.722,19.537,25.305,19.564,25.874z"/>
	</g>
</g>
</svg>
