<?xml version="1.0" encoding="utf-8"?>
<!-- Generator: Adobe Illustrator 16.0.0, SVG Export Plug-In . SVG Version: 6.00 Build 0)  -->
<!DOCTYPE svg PUBLIC "-//W3C//DTD SVG 1.1//EN" "http://www.w3.org/Graphics/SVG/1.1/DTD/svg11.dtd">
<svg version="1.1" id="Layer_1" xmlns="http://www.w3.org/2000/svg" xmlns:xlink="http://www.w3.org/1999/xlink" x="0px" y="0px"
	 width="72px" height="98px" viewBox="0 0 72 98" enable-background="new 0 0 72 98" xml:space="preserve">
<g>
	<path fill="#FFFFFF" d="M19.21,2.85c0,0,0.48,27.224,0.48,33.346c0,1.199,7.615,17.152,12.201,31.366
		c0.314,0.968,3.152,3.418,3.152,3.418L34.562,2.85H19.21z"/>
	<path fill="#FFFFFF" d="M53.515,2.85c0,0-0.479,27.224-0.479,33.346c0,1.199-7.618,17.152-12.206,31.366
		c-0.311,0.968-3.148,3.418-3.148,3.418L38.16,2.85H53.515z"/>
	<polygon fill="#FFFFFF" points="2.296,74.218 22.448,66.843 36.122,74.938 49.796,66.843 69.588,74.397 36.122,95.988 	"/>
</g>
</svg>
