<?xml version="1.0" encoding="utf-8"?>
<!-- Generator: Adobe Illustrator 16.0.0, SVG Export Plug-In . SVG Version: 6.00 Build 0)  -->
<!DOCTYPE svg PUBLIC "-//W3C//DTD SVG 1.1//EN" "http://www.w3.org/Graphics/SVG/1.1/DTD/svg11.dtd">
<svg version="1.1" id="Layer_1" xmlns="http://www.w3.org/2000/svg" xmlns:xlink="http://www.w3.org/1999/xlink" x="0px" y="0px"
	 width="215px" height="97px" viewBox="0 0 215 97" enable-background="new 0 0 215 97" xml:space="preserve">
<g>
	<g>
		<path fill="#FFFFFF" d="M21.156,2.205c0,0,0.48,27.224,0.48,33.346c0,1.199,7.615,17.152,12.201,31.366
			c0.314,0.968,3.152,3.418,3.152,3.418l-0.482-68.13H21.156z"/>
		<path fill="#FFFFFF" d="M55.461,2.205c0,0-0.479,27.224-0.479,33.346c0,1.199-7.618,17.152-12.206,31.366
			c-0.311,0.968-3.148,3.418-3.148,3.418l0.479-68.13H55.461z"/>
		<polygon fill="#FFFFFF" points="4.242,73.573 24.395,66.198 38.068,74.293 51.742,66.198 71.534,73.753 38.068,95.344 		"/>
	</g>
	<g>
		<path fill="#FFFFFF" d="M88.608,7.529h10.06v14.582h1.489v5.809h-1.951v-3.857H87.277v3.857h-1.951v-5.809h1.286
			c1.33-2.008,1.996-6.063,1.996-12.169V7.529z M96.48,9.48h-5.764v0.846c0,1.405-0.126,3.329-0.378,5.769s-0.746,4.445-1.482,6.017
			h7.624V9.48z"/>
		<path fill="#FFFFFF" d="M102.491,28.652V12.085h1.85v1.557c0.436-0.609,0.929-1.065,1.478-1.37s1.214-0.457,1.996-0.457
			c1.022,0,1.925,0.264,2.707,0.79c0.781,0.526,1.372,1.269,1.771,2.227c0.398,0.959,0.598,2.01,0.598,3.152
			c0,1.226-0.22,2.329-0.66,3.311c-0.439,0.981-1.078,1.733-1.917,2.256c-0.838,0.522-1.72,0.783-2.645,0.783
			c-0.677,0-1.284-0.143-1.821-0.429c-0.538-0.285-0.979-0.646-1.325-1.082v5.83H102.491z M104.33,18.142
			c0,1.541,0.312,2.681,0.936,3.417c0.624,0.737,1.38,1.105,2.267,1.105c0.902,0,1.675-0.382,2.318-1.145
			c0.643-0.764,0.964-1.945,0.964-3.547c0-1.526-0.314-2.669-0.941-3.429c-0.628-0.76-1.378-1.14-2.25-1.14
			c-0.865,0-1.63,0.404-2.295,1.213C104.662,15.426,104.33,16.601,104.33,18.142z"/>
		<path fill="#FFFFFF" d="M122.577,12.085v5.177c0.646,0,1.102-0.124,1.365-0.372c0.263-0.248,0.646-0.97,1.15-2.165
			c0.474-1.136,0.898-1.861,1.274-2.177c0.368-0.309,0.954-0.463,1.759-0.463h0.745v1.681l-0.553-0.012
			c-0.542,0-0.888,0.079-1.038,0.237c-0.158,0.165-0.398,0.658-0.722,1.478c-0.301,0.782-0.579,1.323-0.835,1.624
			c-0.255,0.301-0.653,0.575-1.195,0.823c0.88,0.233,1.737,1.045,2.571,2.436l2.233,3.711H127.1l-2.177-3.711
			c-0.443-0.751-0.83-1.244-1.161-1.477c-0.331-0.233-0.726-0.35-1.185-0.35v5.537h-2.075v-5.537c-0.451,0-0.842,0.114-1.173,0.344
			s-0.718,0.724-1.161,1.482l-2.177,3.711h-2.233l2.222-3.711c0.843-1.391,1.703-2.202,2.583-2.436
			c-0.602-0.278-1.022-0.581-1.263-0.908c-0.241-0.327-0.602-1.106-1.083-2.34c-0.166-0.413-0.343-0.669-0.53-0.767
			c-0.195-0.098-0.485-0.147-0.868-0.147c-0.098,0-0.297,0.004-0.598,0.012v-1.681h0.281c0.782,0,1.333,0.047,1.652,0.142
			c0.32,0.094,0.605,0.293,0.857,0.598s0.581,0.938,0.987,1.9c0.496,1.18,0.874,1.898,1.133,2.153
			c0.26,0.256,0.717,0.384,1.37,0.384v-5.177H122.577z"/>
		<path fill="#FFFFFF" d="M138.604,22.585c-0.752,0.64-1.476,1.091-2.171,1.354s-1.441,0.395-2.238,0.395
			c-1.316,0-2.327-0.321-3.034-0.964c-0.707-0.644-1.06-1.465-1.06-2.465c0-0.586,0.133-1.122,0.4-1.606
			c0.267-0.485,0.616-0.874,1.049-1.168c0.432-0.293,0.919-0.515,1.46-0.665c0.398-0.105,1-0.207,1.805-0.305
			c1.639-0.195,2.846-0.429,3.62-0.699c0.008-0.278,0.012-0.455,0.012-0.53c0-0.826-0.192-1.409-0.575-1.748
			c-0.52-0.458-1.29-0.688-2.313-0.688c-0.955,0-1.659,0.167-2.114,0.502c-0.455,0.334-0.792,0.927-1.01,1.776l-1.984-0.271
			c0.18-0.85,0.477-1.536,0.891-2.059c0.413-0.522,1.011-0.925,1.793-1.207s1.688-0.423,2.718-0.423c1.022,0,1.854,0.12,2.493,0.361
			c0.639,0.24,1.108,0.543,1.409,0.907c0.301,0.365,0.512,0.825,0.632,1.382c0.067,0.346,0.102,0.97,0.102,1.872v2.707
			c0,1.887,0.043,3.081,0.13,3.581c0.086,0.5,0.257,0.979,0.513,1.438h-2.12C138.799,23.642,138.664,23.149,138.604,22.585z
			 M138.435,18.052c-0.737,0.301-1.842,0.556-3.315,0.767c-0.835,0.12-1.425,0.256-1.771,0.406c-0.347,0.15-0.613,0.37-0.801,0.659
			c-0.188,0.29-0.282,0.611-0.282,0.965c0,0.541,0.205,0.992,0.614,1.353c0.41,0.361,1.01,0.542,1.799,0.542
			c0.782,0,1.478-0.171,2.087-0.514c0.609-0.342,1.057-0.81,1.342-1.403c0.218-0.459,0.327-1.136,0.327-2.03V18.052z"/>
		<path fill="#FFFFFF" d="M143.646,12.085h4.68c1.15,0,2.006,0.096,2.566,0.288c0.56,0.191,1.041,0.543,1.443,1.055
			c0.402,0.511,0.604,1.124,0.604,1.838c0,0.571-0.118,1.069-0.355,1.494s-0.592,0.78-1.065,1.066
			c0.563,0.188,1.031,0.539,1.403,1.054c0.373,0.516,0.559,1.126,0.559,1.833c-0.075,1.136-0.481,1.978-1.218,2.526
			c-0.737,0.549-1.809,0.823-3.215,0.823h-5.401V12.085z M145.675,17.127h2.166c0.864,0,1.458-0.046,1.781-0.136
			s0.613-0.272,0.869-0.547c0.255-0.274,0.383-0.604,0.383-0.987c0-0.631-0.224-1.071-0.671-1.319s-1.212-0.372-2.295-0.372h-2.233
			V17.127z M145.675,22.394h2.673c1.15,0,1.94-0.134,2.369-0.4s0.653-0.728,0.677-1.382c0-0.384-0.124-0.738-0.373-1.065
			c-0.248-0.327-0.571-0.534-0.97-0.62c-0.398-0.087-1.037-0.13-1.917-0.13h-2.459V22.394z"/>
		<path fill="#FFFFFF" d="M155.916,12.085h2.029v4.985h5.628v-4.985h2.03v11.978h-2.03v-5.312h-5.628v5.312h-2.029V12.085z"/>
		<path fill="#FFFFFF" d="M176.476,22.585c-0.752,0.64-1.476,1.091-2.171,1.354s-1.441,0.395-2.238,0.395
			c-1.316,0-2.327-0.321-3.034-0.964c-0.707-0.644-1.06-1.465-1.06-2.465c0-0.586,0.133-1.122,0.4-1.606
			c0.267-0.485,0.616-0.874,1.049-1.168c0.432-0.293,0.919-0.515,1.46-0.665c0.398-0.105,1-0.207,1.805-0.305
			c1.639-0.195,2.846-0.429,3.62-0.699c0.008-0.278,0.012-0.455,0.012-0.53c0-0.826-0.192-1.409-0.575-1.748
			c-0.52-0.458-1.29-0.688-2.313-0.688c-0.955,0-1.659,0.167-2.114,0.502c-0.455,0.334-0.792,0.927-1.01,1.776l-1.984-0.271
			c0.18-0.85,0.477-1.536,0.891-2.059c0.413-0.522,1.011-0.925,1.793-1.207s1.688-0.423,2.718-0.423c1.022,0,1.854,0.12,2.493,0.361
			c0.639,0.24,1.108,0.543,1.409,0.907c0.301,0.365,0.512,0.825,0.632,1.382c0.067,0.346,0.102,0.97,0.102,1.872v2.707
			c0,1.887,0.043,3.081,0.13,3.581c0.086,0.5,0.257,0.979,0.513,1.438h-2.12C176.671,23.642,176.536,23.149,176.476,22.585z
			 M176.307,18.052c-0.737,0.301-1.842,0.556-3.315,0.767c-0.835,0.12-1.425,0.256-1.771,0.406c-0.347,0.15-0.613,0.37-0.801,0.659
			c-0.188,0.29-0.282,0.611-0.282,0.965c0,0.541,0.205,0.992,0.614,1.353c0.41,0.361,1.01,0.542,1.799,0.542
			c0.782,0,1.478-0.171,2.087-0.514c0.609-0.342,1.057-0.81,1.342-1.403c0.218-0.459,0.327-1.136,0.327-2.03V18.052z"/>
		<path fill="#FFFFFF" d="M86.849,60.319V43.752h1.85v1.557c0.436-0.609,0.929-1.065,1.478-1.37s1.214-0.457,1.996-0.457
			c1.022,0,1.925,0.264,2.707,0.79c0.781,0.526,1.372,1.269,1.771,2.227c0.398,0.959,0.598,2.01,0.598,3.152
			c0,1.226-0.22,2.329-0.66,3.311c-0.439,0.981-1.078,1.733-1.917,2.256C93.832,55.739,92.95,56,92.025,56
			c-0.677,0-1.284-0.143-1.821-0.429c-0.538-0.285-0.979-0.646-1.325-1.082v5.83H86.849z M88.688,49.809
			c0,1.541,0.312,2.681,0.936,3.417c0.624,0.737,1.38,1.105,2.267,1.105c0.902,0,1.675-0.382,2.318-1.145
			c0.643-0.764,0.964-1.945,0.964-3.547c0-1.526-0.314-2.669-0.941-3.429c-0.628-0.76-1.378-1.14-2.25-1.14
			c-0.865,0-1.63,0.404-2.295,1.213C89.02,47.093,88.688,48.268,88.688,49.809z"/>
		<path fill="#FFFFFF" d="M107.894,51.872l2.098,0.26c-0.331,1.226-0.943,2.177-1.838,2.854c-0.896,0.677-2.038,1.015-3.429,1.015
			c-1.752,0-3.142-0.539-4.167-1.618c-1.026-1.079-1.54-2.592-1.54-4.539c0-2.016,0.519-3.579,1.557-4.692
			c1.037-1.112,2.383-1.669,4.037-1.669c1.602,0,2.91,0.545,3.925,1.636c1.016,1.09,1.522,2.624,1.522,4.602
			c0,0.12-0.004,0.301-0.011,0.541h-8.933c0.075,1.315,0.447,2.323,1.117,3.022c0.669,0.699,1.503,1.049,2.503,1.049
			c0.745,0,1.38-0.195,1.906-0.587C107.168,53.354,107.585,52.729,107.894,51.872z M101.229,48.591h6.688
			c-0.09-1.008-0.346-1.764-0.767-2.268c-0.646-0.781-1.485-1.173-2.516-1.173c-0.932,0-1.716,0.313-2.351,0.937
			C101.647,46.711,101.296,47.546,101.229,48.591z"/>
		<path fill="#FFFFFF" d="M112.552,43.752h4.68c1.15,0,2.006,0.096,2.566,0.288c0.56,0.191,1.041,0.543,1.443,1.055
			c0.402,0.511,0.604,1.124,0.604,1.838c0,0.571-0.118,1.069-0.355,1.494s-0.592,0.78-1.065,1.066
			c0.563,0.188,1.031,0.539,1.403,1.054c0.373,0.516,0.559,1.126,0.559,1.833c-0.075,1.136-0.481,1.978-1.218,2.526
			c-0.737,0.549-1.809,0.823-3.215,0.823h-5.401V43.752z M114.581,48.794h2.166c0.864,0,1.458-0.046,1.781-0.136
			s0.613-0.272,0.869-0.547c0.255-0.274,0.383-0.604,0.383-0.987c0-0.631-0.224-1.071-0.671-1.319s-1.212-0.372-2.295-0.372h-2.233
			V48.794z M114.581,54.061h2.673c1.15,0,1.94-0.134,2.369-0.4s0.653-0.728,0.677-1.382c0-0.384-0.124-0.738-0.373-1.065
			c-0.248-0.327-0.571-0.534-0.97-0.62c-0.398-0.087-1.037-0.13-1.917-0.13h-2.459V54.061z"/>
		<path fill="#FFFFFF" d="M124.811,43.752h2.03v9.136l5.628-9.136h2.188v11.978h-2.03V46.65l-5.627,9.079h-2.188V43.752z"/>
		<path fill="#FFFFFF" d="M140.363,50.316v-1.591c0.857-0.007,1.441-0.041,1.754-0.102c0.312-0.06,0.606-0.24,0.885-0.541
			s0.418-0.677,0.418-1.128c0-0.549-0.183-0.986-0.547-1.313c-0.365-0.327-0.837-0.491-1.416-0.491c-1.143,0-1.943,0.673-2.402,2.02
			l-1.928-0.316c0.601-2.248,2.052-3.372,4.353-3.372c1.278,0,2.28,0.35,3.006,1.049s1.089,1.534,1.089,2.504
			c0,0.978-0.475,1.756-1.422,2.335c0.602,0.323,1.053,0.734,1.354,1.234s0.451,1.093,0.451,1.776c0,1.075-0.391,1.947-1.173,2.616
			c-0.782,0.67-1.876,1.004-3.282,1.004c-2.729,0-4.312-1.214-4.748-3.643l1.906-0.406c0.173,0.767,0.524,1.361,1.055,1.782
			s1.137,0.632,1.821,0.632s1.254-0.194,1.709-0.581c0.454-0.388,0.682-0.882,0.682-1.483c0-0.466-0.143-0.872-0.428-1.218
			c-0.286-0.346-0.591-0.563-0.914-0.648c-0.323-0.087-0.91-0.13-1.759-0.13C140.758,50.305,140.604,50.309,140.363,50.316z"/>
		<path fill="#FFFFFF" d="M147.287,49.741c0-2.218,0.617-3.861,1.85-4.929c1.03-0.888,2.286-1.331,3.768-1.331
			c1.646,0,2.992,0.54,4.037,1.618c1.045,1.079,1.567,2.57,1.567,4.472c0,1.542-0.23,2.754-0.693,3.638
			c-0.462,0.884-1.136,1.569-2.019,2.059c-0.884,0.488-1.848,0.732-2.893,0.732c-1.677,0-3.032-0.537-4.066-1.612
			C147.805,53.313,147.287,51.764,147.287,49.741z M149.374,49.741c0,1.533,0.334,2.682,1.004,3.445
			c0.669,0.763,1.511,1.145,2.526,1.145c1.007,0,1.846-0.384,2.515-1.15s1.004-1.936,1.004-3.508c0-1.48-0.337-2.603-1.01-3.366
			c-0.673-0.763-1.51-1.145-2.509-1.145c-1.016,0-1.857,0.38-2.526,1.139C149.708,47.061,149.374,48.207,149.374,49.741z"/>
		<path fill="#FFFFFF" d="M160.889,60.319V43.752h1.85v1.557c0.436-0.609,0.929-1.065,1.478-1.37s1.214-0.457,1.996-0.457
			c1.022,0,1.925,0.264,2.707,0.79c0.781,0.526,1.372,1.269,1.771,2.227c0.398,0.959,0.598,2.01,0.598,3.152
			c0,1.226-0.22,2.329-0.66,3.311c-0.439,0.981-1.078,1.733-1.917,2.256c-0.838,0.522-1.72,0.783-2.645,0.783
			c-0.677,0-1.284-0.143-1.821-0.429c-0.538-0.285-0.979-0.646-1.325-1.082v5.83H160.889z M162.728,49.809
			c0,1.541,0.312,2.681,0.936,3.417c0.624,0.737,1.38,1.105,2.267,1.105c0.902,0,1.675-0.382,2.318-1.145
			c0.643-0.764,0.964-1.945,0.964-3.547c0-1.526-0.314-2.669-0.941-3.429c-0.628-0.76-1.378-1.14-2.25-1.14
			c-0.865,0-1.63,0.404-2.295,1.213C163.06,47.093,162.728,48.268,162.728,49.809z"/>
		<path fill="#FFFFFF" d="M181.55,51.343l1.996,0.259c-0.218,1.376-0.776,2.453-1.675,3.231S179.87,56,178.562,56
			c-1.64,0-2.957-0.535-3.953-1.607c-0.996-1.071-1.494-2.606-1.494-4.606c0-1.293,0.214-2.425,0.643-3.395
			c0.429-0.971,1.081-1.697,1.957-2.183s1.829-0.728,2.858-0.728c1.301,0,2.365,0.329,3.192,0.987
			c0.827,0.657,1.356,1.592,1.59,2.802l-1.974,0.305c-0.188-0.804-0.521-1.409-0.998-1.815s-1.055-0.609-1.731-0.609
			c-1.022,0-1.854,0.367-2.492,1.1c-0.639,0.733-0.959,1.894-0.959,3.479c0,1.609,0.309,2.778,0.925,3.508
			c0.617,0.729,1.422,1.094,2.414,1.094c0.797,0,1.462-0.244,1.996-0.733C181.069,53.109,181.407,52.357,181.55,51.343z"/>
		<path fill="#FFFFFF" d="M185.272,43.752h2.029v5.177c0.646,0,1.1-0.124,1.359-0.372s0.641-0.97,1.145-2.165
			c0.398-0.947,0.722-1.571,0.97-1.872s0.534-0.504,0.857-0.609s0.842-0.158,1.557-0.158h0.405v1.681l-0.563-0.012
			c-0.534,0-0.876,0.079-1.026,0.237c-0.158,0.165-0.398,0.658-0.722,1.478c-0.309,0.782-0.591,1.323-0.846,1.624
			c-0.256,0.301-0.65,0.575-1.185,0.823c0.872,0.233,1.729,1.045,2.571,2.436l2.222,3.711h-2.232l-2.166-3.711
			c-0.443-0.744-0.83-1.234-1.161-1.472c-0.331-0.236-0.726-0.354-1.185-0.354v5.537h-2.029V43.752z"/>
		<path fill="#FFFFFF" d="M203.712,54.252c-0.752,0.64-1.476,1.091-2.171,1.354S200.1,56,199.303,56
			c-1.316,0-2.327-0.321-3.034-0.964c-0.707-0.644-1.06-1.465-1.06-2.465c0-0.586,0.133-1.122,0.4-1.606
			c0.267-0.485,0.616-0.874,1.049-1.168c0.432-0.293,0.919-0.515,1.46-0.665c0.398-0.105,1-0.207,1.805-0.305
			c1.639-0.195,2.846-0.429,3.62-0.699c0.008-0.278,0.012-0.455,0.012-0.53c0-0.826-0.192-1.409-0.575-1.748
			c-0.52-0.458-1.29-0.688-2.313-0.688c-0.955,0-1.659,0.167-2.114,0.502c-0.455,0.334-0.792,0.927-1.01,1.776l-1.984-0.271
			c0.18-0.85,0.477-1.536,0.891-2.059c0.413-0.522,1.011-0.925,1.793-1.207s1.688-0.423,2.718-0.423c1.022,0,1.854,0.12,2.493,0.361
			c0.639,0.24,1.108,0.543,1.409,0.907c0.301,0.365,0.512,0.825,0.632,1.382c0.067,0.346,0.102,0.97,0.102,1.872v2.707
			c0,1.887,0.043,3.081,0.13,3.581c0.086,0.5,0.257,0.979,0.513,1.438h-2.12C203.907,55.309,203.772,54.816,203.712,54.252z
			 M203.543,49.719c-0.737,0.301-1.842,0.556-3.315,0.767c-0.835,0.12-1.425,0.256-1.771,0.406c-0.347,0.15-0.613,0.37-0.801,0.659
			c-0.188,0.29-0.282,0.611-0.282,0.965c0,0.541,0.205,0.992,0.614,1.353c0.41,0.361,1.01,0.542,1.799,0.542
			c0.782,0,1.478-0.171,2.087-0.514c0.609-0.342,1.057-0.81,1.342-1.403c0.218-0.459,0.327-1.136,0.327-2.03V49.719z"/>
		<path fill="#FFFFFF" d="M86.849,75.419h2.03v9.136l5.628-9.136h2.188v11.978h-2.03v-9.079l-5.627,9.079h-2.188V75.419z"/>
		<path fill="#FFFFFF" d="M99.763,75.419h2.029v4.985h5.628v-4.985h2.03v11.978h-2.03v-5.312h-5.628v5.312h-2.029V75.419z"/>
		<path fill="#FFFFFF" d="M120.322,83.01l1.996,0.259c-0.218,1.376-0.776,2.453-1.675,3.231s-2.001,1.167-3.31,1.167
			c-1.64,0-2.957-0.535-3.953-1.607c-0.996-1.071-1.494-2.606-1.494-4.606c0-1.293,0.214-2.425,0.643-3.395
			c0.429-0.971,1.081-1.697,1.957-2.183s1.829-0.728,2.858-0.728c1.301,0,2.365,0.329,3.192,0.987
			c0.827,0.657,1.356,1.592,1.59,2.802l-1.974,0.305c-0.188-0.804-0.521-1.409-0.998-1.815s-1.055-0.609-1.731-0.609
			c-1.022,0-1.854,0.367-2.492,1.1c-0.639,0.733-0.959,1.894-0.959,3.479c0,1.609,0.309,2.778,0.925,3.508
			c0.617,0.729,1.422,1.094,2.414,1.094c0.797,0,1.462-0.244,1.996-0.733C119.842,84.776,120.18,84.024,120.322,83.01z"/>
		<path fill="#FFFFFF" d="M122.962,75.419h9.732V77.1h-3.856v10.297h-2.019V77.1h-3.857V75.419z"/>
		<path fill="#FFFFFF" d="M134.635,75.419h2.03v9.136l5.628-9.136h2.188v11.978h-2.03v-9.079l-5.627,9.079h-2.188V75.419z"/>
		<path fill="#FFFFFF" d="M146.443,75.419h9.732V77.1h-3.856v10.297h-2.019V77.1h-3.857V75.419z"/>
		<path fill="#FFFFFF" d="M158.286,92.009l-0.226-1.905c0.443,0.12,0.83,0.18,1.161,0.18c0.451,0,0.813-0.075,1.083-0.226
			s0.492-0.36,0.665-0.631c0.128-0.203,0.335-0.707,0.62-1.512c0.038-0.112,0.098-0.278,0.181-0.496l-4.545-12h2.188l2.492,6.937
			c0.323,0.88,0.612,1.805,0.868,2.774c0.233-0.933,0.512-1.843,0.835-2.729l2.56-6.981h2.03L163.643,87.6
			c-0.488,1.315-0.868,2.222-1.139,2.718c-0.361,0.669-0.774,1.16-1.24,1.472c-0.467,0.313-1.023,0.468-1.67,0.468
			C159.203,92.257,158.767,92.175,158.286,92.009z"/>
		<path fill="#FFFFFF" d="M169.959,75.419h2.029v10.309h5.617V75.419h2.03v10.309h1.308v5.063h-1.669v-3.395h-9.315V75.419z"/>
		<path fill="#FFFFFF" d="M183.154,75.419h2.03v9.136l5.628-9.136H193v11.978h-2.03v-9.079l-5.627,9.079h-2.188V75.419z"/>
		<path fill="#FFFFFF" d="M193.474,92.043l0.384-1.726c0.406,0.105,0.726,0.158,0.959,0.158c0.413,0,0.722-0.138,0.925-0.412
			s0.305-0.96,0.305-2.058V75.419h2.029v12.632c0,1.474-0.191,2.5-0.575,3.079c-0.488,0.751-1.301,1.127-2.436,1.127
			C194.516,92.257,193.985,92.186,193.474,92.043z M196.046,73.22v-2.356h2.029v2.356H196.046z"/>
		<path fill="#FFFFFF" d="M209.004,85.919c-0.752,0.64-1.476,1.091-2.171,1.354s-1.441,0.395-2.238,0.395
			c-1.316,0-2.327-0.321-3.034-0.964c-0.707-0.644-1.06-1.465-1.06-2.465c0-0.586,0.133-1.122,0.4-1.606
			c0.267-0.485,0.616-0.874,1.049-1.168c0.432-0.293,0.919-0.515,1.46-0.665c0.398-0.105,1-0.207,1.805-0.305
			c1.639-0.195,2.846-0.429,3.62-0.699c0.008-0.278,0.012-0.455,0.012-0.53c0-0.826-0.192-1.409-0.575-1.748
			c-0.52-0.458-1.29-0.688-2.313-0.688c-0.955,0-1.659,0.167-2.114,0.502c-0.455,0.334-0.792,0.927-1.01,1.776l-1.984-0.271
			c0.18-0.85,0.477-1.536,0.891-2.059c0.413-0.522,1.011-0.925,1.793-1.207s1.688-0.423,2.718-0.423c1.022,0,1.854,0.12,2.493,0.361
			c0.639,0.24,1.108,0.543,1.409,0.907c0.301,0.365,0.512,0.825,0.632,1.382c0.067,0.346,0.102,0.97,0.102,1.872v2.707
			c0,1.887,0.043,3.081,0.13,3.581c0.086,0.5,0.257,0.979,0.513,1.438h-2.12C209.199,86.976,209.064,86.483,209.004,85.919z
			 M208.835,81.386c-0.737,0.301-1.842,0.556-3.315,0.767c-0.835,0.12-1.425,0.256-1.771,0.406c-0.347,0.15-0.613,0.37-0.801,0.659
			c-0.188,0.29-0.282,0.611-0.282,0.965c0,0.541,0.205,0.992,0.614,1.353c0.41,0.361,1.01,0.542,1.799,0.542
			c0.782,0,1.478-0.171,2.087-0.514c0.609-0.342,1.057-0.81,1.342-1.403c0.218-0.459,0.327-1.136,0.327-2.03V81.386z"/>
	</g>
</g>
</svg>
