<?xml version="1.0" encoding="utf-8"?>
<!-- Generator: Adobe Illustrator 18.0.0, SVG Export Plug-In . SVG Version: 6.00 Build 0)  -->
<!DOCTYPE svg PUBLIC "-//W3C//DTD SVG 1.1//EN" "http://www.w3.org/Graphics/SVG/1.1/DTD/svg11.dtd">
<svg version="1.1" id="Layer_1" xmlns="http://www.w3.org/2000/svg" xmlns:xlink="http://www.w3.org/1999/xlink" x="0px" y="0px"
	 viewBox="0 0 40 40" enable-background="new 0 0 40 40" xml:space="preserve">
<g>
	<path fill="#717070" d="M18,14.2v3.2h-3.5v3.5H18l-0.1,10h3.6v-10h4v-3.5h-4v-2.8c0-1.1,0.3-2.2,2.3-2.2h1.9V9.2h-2.8
		C19.8,9.2,18,11.1,18,14.2z"/>
	<path fill="#717070" d="M20,0C9,0,0,9,0,20s9,20,20,20s20-9,20-20S31,0,20,0z M26.8,12.5c0,0.6-0.5,1.1-1.1,1.1h-2
		c-1,0-1.1,0.2-1.1,1v1.6h2.9c0.3,0,0.5,0.1,0.8,0.4c0.2,0.2,0.4,0.4,0.4,0.8v3.8c0,0.6-0.5,1.1-1.1,1.1h-2.9v8.9
		c0,0.5-0.5,1.1-1.2,1.1h-3.9c-0.6,0-1.1-0.5-1.1-1.1v-9h-2.4c-0.6,0-1.1-0.5-1.1-1.1v-3.8c0-0.6,0.5-1.1,1.1-1.1h2.4v-2
		c0-3.7,2.5-6.3,6.1-6.3h3c0.6,0,1.1,0.5,1.1,1.1V12.5z"/>
</g>
</svg>
