<?xml version="1.0" encoding="utf-8"?>
<!-- Generator: Adobe Illustrator 16.0.0, SVG Export Plug-In . SVG Version: 6.00 Build 0)  -->
<!DOCTYPE svg PUBLIC "-//W3C//DTD SVG 1.1//EN" "http://www.w3.org/Graphics/SVG/1.1/DTD/svg11.dtd">
<svg version="1.1" id="Layer_1" xmlns="http://www.w3.org/2000/svg" xmlns:xlink="http://www.w3.org/1999/xlink" x="0px" y="0px"
	 width="90px" height="52px" viewBox="0 0 90 52" enable-background="new 0 0 90 52" xml:space="preserve">
<g>
	<g>
		<path fill="#FFFFFF" d="M69.07,24.63c-5.895-4.054-7.395-12.148-3.342-18.044c4.055-5.896,12.148-7.396,18.045-3.342
			s7.395,12.148,3.342,18.044C83.061,27.184,74.967,28.682,69.07,24.63z M81.926,5.932c-4.414-3.034-10.473-1.911-13.508,2.502
			s-1.912,10.473,2.5,13.508c4.414,3.035,10.473,1.912,13.508-2.501C87.461,15.026,86.338,8.966,81.926,5.932z"/>
	</g>
	<g>
		<path fill="#FFFFFF" d="M13.6,18.354c0.018,0.087,0.017,0.216-0.003,0.39c-0.021,0.173-0.149,0.364-0.387,0.572
			c-0.118,0.082-0.222,0.176-0.312,0.285c-0.071,0.095-0.129,0.205-0.175,0.333c-0.047,0.128-0.051,0.278-0.015,0.452l0.078,0.372
			c0.037,0.173,0.086,0.385,0.151,0.636c0.064,0.253,0.141,0.509,0.23,0.772c0.088,0.264,0.192,0.509,0.308,0.739
			c0.116,0.229,0.243,0.407,0.383,0.536c0.015,0.019,0.031,0.045,0.049,0.074c0.016,0.02,0.032,0.044,0.05,0.074
			s0.029,0.062,0.036,0.094c0.015,0.121,0.004,0.23-0.031,0.329c-0.039,0.086-0.098,0.169-0.177,0.247
			c-0.079,0.08-0.21,0.139-0.395,0.178c-0.28,0.059-0.521,0.002-0.721-0.171c-0.199-0.172-0.363-0.371-0.489-0.599
			c-0.127-0.229-0.25-0.543-0.369-0.947c-0.017-0.074-0.046-0.108-0.088-0.1c-0.032,0.008-0.057,0.024-0.075,0.05
			c-0.008,0.013-0.018,0.021-0.028,0.023c-0.183,0.366-0.384,0.67-0.603,0.913s-0.435,0.438-0.647,0.585s-0.411,0.256-0.599,0.329
			s-0.347,0.123-0.476,0.15c-0.346,0.073-0.653,0.075-0.92,0.008c-0.268-0.067-0.509-0.178-0.721-0.331
			c-0.213-0.152-0.394-0.328-0.543-0.528s-0.272-0.397-0.37-0.591c-0.097-0.193-0.172-0.366-0.227-0.519
			c-0.056-0.152-0.089-0.256-0.1-0.309c-0.149-0.713-0.179-1.451-0.085-2.215c0.092-0.765,0.297-1.48,0.613-2.15
			c0.316-0.67,0.744-1.25,1.282-1.741c0.54-0.491,1.182-0.816,1.927-0.973c0.14-0.029,0.296-0.051,0.469-0.064
			c0.171-0.013,0.34-0.004,0.505,0.029c0.164,0.033,0.312,0.104,0.441,0.211c0.13,0.108,0.217,0.271,0.263,0.486
			c0.019,0.086,0.022,0.188,0.013,0.302s-0.04,0.229-0.089,0.341c-0.05,0.111-0.121,0.214-0.214,0.307s-0.21,0.154-0.35,0.185
			c-0.152,0.031-0.297-0.017-0.437-0.146c-0.061-0.02-0.134-0.044-0.218-0.071c-0.069-0.009-0.15-0.017-0.242-0.026
			c-0.092-0.008-0.198,0-0.317,0.024c-0.302,0.064-0.597,0.241-0.885,0.533c-0.29,0.293-0.534,0.656-0.735,1.094
			c-0.202,0.438-0.34,0.934-0.414,1.49c-0.075,0.557-0.05,1.133,0.075,1.727c0.021,0.097,0.057,0.228,0.108,0.392
			c0.052,0.164,0.129,0.319,0.233,0.467c0.104,0.147,0.24,0.265,0.404,0.355c0.165,0.088,0.367,0.108,0.604,0.059
			c0.12-0.025,0.267-0.085,0.445-0.179c0.178-0.094,0.353-0.237,0.526-0.432c0.173-0.195,0.333-0.442,0.478-0.743
			c0.145-0.302,0.244-0.678,0.296-1.128c-0.004-0.021-0.012-0.043-0.022-0.063c-0.009-0.02-0.037-0.026-0.079-0.018
			c-0.087,0.019-0.173,0.052-0.259,0.098c-0.085,0.047-0.217,0.139-0.39,0.277c-0.059,0.046-0.113,0.084-0.162,0.117
			c-0.05,0.033-0.103,0.062-0.159,0.085c-0.058,0.023-0.119,0.042-0.184,0.056c-0.108,0.021-0.209,0.009-0.304-0.039
			c-0.095-0.047-0.156-0.136-0.183-0.266c-0.012-0.053-0.018-0.128-0.022-0.223c-0.003-0.096,0.018-0.205,0.058-0.326
			c0.042-0.121,0.11-0.251,0.207-0.389c0.094-0.139,0.229-0.277,0.403-0.415c0.263-0.202,0.543-0.396,0.841-0.584
			c0.26-0.155,0.549-0.313,0.866-0.469c0.316-0.156,0.648-0.271,0.994-0.345c0.183-0.039,0.364-0.048,0.542-0.029
			C13.441,18.021,13.554,18.139,13.6,18.354z"/>
		<path fill="#FFFFFF" d="M22.43,21.935c0.024,0.131,0.024,0.258-0.002,0.378c-0.029,0.1-0.086,0.197-0.168,0.295
			c-0.082,0.096-0.215,0.169-0.396,0.218c-0.256,0.068-0.538,0.039-0.847-0.09c-0.309-0.128-0.618-0.313-0.93-0.555
			c-0.311-0.242-0.614-0.517-0.907-0.826c-0.296-0.31-0.557-0.602-0.785-0.877s-0.422-0.516-0.58-0.718
			c-0.158-0.204-0.248-0.325-0.27-0.365c-0.052-0.065-0.099-0.093-0.142-0.081c-0.011,0.003-0.018,0.007-0.021,0.014
			c-0.004,0.008-0.012,0.012-0.022,0.015l-0.012,0.021c-0.16,0.043-0.292,0.051-0.396,0.021c-0.105-0.03-0.192-0.074-0.26-0.137
			c-0.068-0.061-0.118-0.127-0.147-0.199c-0.032-0.072-0.051-0.123-0.059-0.155c-0.015-0.054-0.019-0.107-0.009-0.162
			c0.007-0.053,0.017-0.104,0.027-0.152c0.021-0.05,0.048-0.098,0.082-0.143c0.475-0.355,0.832-0.684,1.072-0.982
			c0.239-0.299,0.408-0.562,0.508-0.788c0.099-0.227,0.146-0.411,0.142-0.552c-0.004-0.142-0.013-0.239-0.028-0.293
			c-0.079-0.299-0.285-0.529-0.614-0.691c-0.33-0.162-0.71-0.27-1.141-0.319c-0.43-0.05-0.879-0.053-1.35-0.013
			c-0.468,0.041-0.884,0.109-1.246,0.207c-0.276,0.075-0.501,0.147-0.671,0.215c-0.169,0.068-0.276,0.109-0.319,0.12
			c-0.149,0.041-0.267,0.046-0.355,0.019c-0.087-0.027-0.161-0.068-0.221-0.12c-0.06-0.053-0.108-0.125-0.145-0.218
			c-0.041-0.195,0.063-0.424,0.313-0.686c0.249-0.261,0.678-0.474,1.285-0.638c0.586-0.156,1.212-0.251,1.878-0.282
			c0.666-0.031,1.289,0.013,1.869,0.13c0.58,0.118,1.086,0.316,1.515,0.595c0.428,0.278,0.705,0.647,0.829,1.105
			c0.015,0.054,0.029,0.161,0.044,0.322c0.015,0.161-0.011,0.372-0.079,0.63c-0.066,0.258-0.196,0.553-0.387,0.885
			c-0.19,0.332-0.484,0.693-0.881,1.086c-0.019,0.017-0.032,0.031-0.039,0.045c-0.017,0.026-0.02,0.057-0.011,0.088
			c0.002,0.011,0.098,0.15,0.285,0.42c0.187,0.271,0.434,0.584,0.742,0.941c0.308,0.356,0.657,0.705,1.045,1.046
			c0.389,0.341,0.785,0.582,1.189,0.726c0.113,0.037,0.231,0.095,0.355,0.17C22.292,21.679,22.378,21.789,22.43,21.935z
			 M15.97,16.219c0.023,0.086,0.033,0.186,0.029,0.301c-0.003,0.539,0.016,1.1,0.059,1.683c0.033,0.505,0.091,1.06,0.174,1.666
			c0.084,0.606,0.208,1.213,0.371,1.82c0.024,0.086,0.048,0.176,0.074,0.272c0.026,0.096,0.056,0.184,0.089,0.267l0.008,0.031
			c0.004,0.012,0.009,0.024,0.019,0.038c0.01,0.015,0.019,0.032,0.024,0.055c0.04,0.149,0.033,0.271-0.022,0.365
			c-0.054,0.095-0.118,0.175-0.192,0.241c-0.096,0.07-0.206,0.129-0.33,0.174c-0.182,0.049-0.341,0.031-0.478-0.052
			c-0.137-0.084-0.252-0.194-0.347-0.334c-0.096-0.141-0.173-0.292-0.233-0.452c-0.061-0.16-0.107-0.3-0.139-0.416
			c-0.188-0.704-0.315-1.385-0.378-2.042c-0.063-0.657-0.09-1.25-0.084-1.777c-0.006-0.615,0.026-1.195,0.097-1.74
			c0.023-0.085,0.053-0.163,0.092-0.23c0.039-0.066,0.089-0.132,0.153-0.195c0.063-0.063,0.143-0.107,0.239-0.134
			c0.031-0.007,0.085-0.014,0.159-0.016c0.073-0.002,0.151,0.011,0.233,0.04s0.158,0.077,0.228,0.144
			C15.884,15.993,15.936,16.091,15.97,16.219z"/>
		<path fill="#FFFFFF" d="M28.975,20.288c0.013,0.177-0.021,0.313-0.103,0.406s-0.176,0.168-0.283,0.219
			c-0.118,0.054-0.254,0.091-0.408,0.113c-0.319,0.022-0.59-0.098-0.814-0.364c-0.224-0.267-0.408-0.565-0.554-0.898
			c-0.172-0.386-0.315-0.828-0.429-1.329c-0.004-0.056-0.023-0.087-0.056-0.097c-0.034-0.007-0.068-0.011-0.101-0.009
			c-0.405,0.063-0.768,0.142-1.086,0.236c-0.32,0.096-0.587,0.184-0.802,0.265c-0.259,0.097-0.485,0.195-0.676,0.299
			c-0.083,0.061-0.14,0.126-0.168,0.194c-0.019,0.046-0.033,0.086-0.042,0.119c-0.097,0.494-0.165,0.887-0.206,1.176
			c-0.04,0.292-0.067,0.523-0.082,0.695c-0.016,0.173-0.026,0.315-0.036,0.426c-0.008,0.11-0.03,0.234-0.064,0.371
			c-0.043,0.168-0.111,0.297-0.205,0.387c-0.092,0.09-0.194,0.158-0.301,0.204c-0.107,0.047-0.205,0.076-0.292,0.088
			c-0.088,0.012-0.154,0.02-0.197,0.023c-0.121,0.008-0.217-0.019-0.289-0.079c-0.07-0.062-0.125-0.139-0.165-0.229
			s-0.065-0.181-0.078-0.268c-0.011-0.088-0.019-0.154-0.022-0.198c-0.016-0.22-0.011-0.463,0.014-0.73
			c0.025-0.267,0.056-0.519,0.095-0.754c0.046-0.28,0.104-0.561,0.171-0.842c-0.003-0.056-0.019-0.093-0.042-0.113
			c-0.012-0.011-0.023-0.016-0.034-0.015c-0.181-0.053-0.303-0.135-0.367-0.247c-0.063-0.112-0.097-0.195-0.101-0.25
			c0.027-0.234,0.097-0.422,0.208-0.563c0.112-0.141,0.225-0.254,0.341-0.339c0.137-0.089,0.288-0.155,0.45-0.199
			c0.044-0.015,0.085-0.045,0.127-0.093c0.009-0.021,0.019-0.04,0.03-0.051c0.08-0.261,0.189-0.581,0.328-0.963
			c0.138-0.38,0.295-0.781,0.469-1.203c0.174-0.422,0.364-0.845,0.573-1.269c0.207-0.425,0.42-0.809,0.638-1.15
			c0.219-0.342,0.433-0.623,0.645-0.844c0.21-0.22,0.415-0.336,0.613-0.351c0.121-0.01,0.191,0.003,0.21,0.035
			c0.02,0.031,0.073,0.044,0.16,0.037c0.033-0.003,0.067-0.026,0.103-0.073s0.081-0.097,0.138-0.151s0.131-0.108,0.221-0.165
			c0.089-0.057,0.201-0.09,0.333-0.1c0.099-0.018,0.207,0.006,0.329,0.068c0.12,0.063,0.191,0.254,0.215,0.573
			c0.009,0.133,0.011,0.249,0.007,0.349c-0.003,0.1-0.002,0.221,0.002,0.365c0.005,0.144,0.009,0.322,0.015,0.538
			c0.004,0.216,0.02,0.504,0.046,0.867c0.029,0.418,0.074,0.872,0.131,1.359c0.057,0.488,0.14,0.977,0.247,1.468
			c0.107,0.49,0.238,0.956,0.392,1.398s0.342,0.822,0.563,1.138C28.903,19.984,28.965,20.156,28.975,20.288z M26.172,16.641
			c-0.029-0.253-0.058-0.537-0.086-0.856c-0.029-0.319-0.054-0.621-0.074-0.908l-0.072-0.989c-0.001-0.022-0.009-0.045-0.021-0.064
			c-0.025-0.043-0.049-0.064-0.071-0.063c-0.129,0.043-0.26,0.152-0.391,0.327c-0.131,0.176-0.257,0.387-0.378,0.633
			c-0.12,0.247-0.234,0.507-0.341,0.779c-0.108,0.274-0.201,0.527-0.277,0.76c-0.078,0.232-0.141,0.428-0.191,0.586
			c-0.049,0.159-0.073,0.244-0.072,0.254c0.007,0.109,0.033,0.163,0.077,0.16c0.227-0.071,0.428-0.13,0.601-0.176
			c0.174-0.046,0.364-0.093,0.571-0.142c0.207-0.048,0.41-0.083,0.606-0.109c0.022-0.002,0.043-0.015,0.063-0.039
			C26.157,16.747,26.176,16.695,26.172,16.641z"/>
		<path fill="#FFFFFF" d="M36.386,15.837c0.043,0.604-0.044,1.188-0.264,1.753c-0.219,0.563-0.518,1.091-0.897,1.583
			c-0.38,0.492-0.815,0.94-1.305,1.347c-0.49,0.407-0.985,0.755-1.484,1.045c-0.5,0.291-0.981,0.521-1.443,0.693
			c-0.464,0.173-0.855,0.27-1.174,0.293c-0.275,0.02-0.449-0.015-0.522-0.104s-0.11-0.16-0.115-0.216
			c0.008-0.188,0.053-0.347,0.132-0.474c0.08-0.128,0.161-0.223,0.245-0.284c0.105-0.073,0.223-0.127,0.354-0.158
			c0.658-0.214,1.284-0.519,1.875-0.915c0.592-0.396,1.102-0.833,1.532-1.307c0.431-0.473,0.767-0.951,1.008-1.433
			c0.242-0.482,0.349-0.921,0.32-1.317c-0.032-0.44-0.178-0.81-0.437-1.105c-0.259-0.297-0.55-0.532-0.873-0.709
			c-0.323-0.175-0.636-0.299-0.938-0.372c-0.304-0.072-0.517-0.104-0.638-0.094c-0.022,0.002-0.039,0.008-0.049,0.021
			c-0.03,0.034-0.045,0.058-0.045,0.068c-0.009,0.167-0.018,0.344-0.027,0.533c-0.009,0.167-0.013,0.354-0.009,0.565
			c0.004,0.21,0.009,0.437,0.017,0.679l0.214-0.032l0.264-0.019c0.219-0.017,0.392-0.012,0.515,0.012
			c0.123,0.025,0.19,0.103,0.2,0.235c0.003,0.21-0.114,0.351-0.353,0.424c-0.238,0.072-0.5,0.129-0.783,0.173
			c0.023,0.318,0.063,0.628,0.117,0.929c0.054,0.3,0.128,0.558,0.222,0.771c0.013,0.044,0.027,0.087,0.042,0.131
			c0.014,0.043,0.028,0.089,0.042,0.138s0.024,0.101,0.028,0.155c0.015,0.188-0.048,0.33-0.185,0.428
			c-0.136,0.1-0.288,0.154-0.453,0.166c-0.253,0.019-0.463-0.057-0.63-0.229c-0.167-0.17-0.301-0.376-0.401-0.617
			c-0.101-0.242-0.171-0.497-0.214-0.766c-0.041-0.268-0.068-0.495-0.082-0.682l-0.01-0.149l-0.783,0.189
			c-0.066,0.005-0.131-0.01-0.193-0.044c-0.065-0.034-0.1-0.112-0.109-0.233c-0.007-0.099,0.022-0.188,0.088-0.271
			c0.066-0.081,0.151-0.151,0.258-0.209c0.107-0.059,0.222-0.108,0.346-0.15c0.124-0.042,0.245-0.077,0.365-0.109
			c-0.004-0.364,0-0.735,0.011-1.112c0.011-0.377,0.033-0.732,0.065-1.066c-0.002-0.021-0.009-0.038-0.021-0.049
			c-0.012-0.01-0.041-0.024-0.086-0.043c-0.354-0.008-0.647-0.006-0.879,0.006c-0.23,0.011-0.375,0.018-0.43,0.021
			c-0.209,0.016-0.336-0.024-0.381-0.121c-0.046-0.097-0.07-0.161-0.072-0.194c0.006-0.221,0.067-0.399,0.185-0.536
			c0.118-0.135,0.241-0.236,0.369-0.301c0.149-0.076,0.317-0.127,0.503-0.151c0.187-0.015,0.346-0.025,0.479-0.034
			c0.132-0.011,0.264-0.014,0.396-0.014c0.055-0.003,0.081-0.027,0.078-0.071c0.016-0.244,0.117-0.481,0.305-0.711
			s0.442-0.355,0.761-0.379c0.056-0.004,0.125,0.006,0.209,0.027c0.084,0.021,0.132,0.099,0.141,0.23
			c0.002,0.032-0.002,0.127-0.013,0.282c-0.011,0.156-0.024,0.361-0.039,0.617c0.003,0.033,0.017,0.06,0.04,0.08
			c0.012,0.01,0.023,0.015,0.034,0.015c0.513,0.062,1.036,0.173,1.567,0.334c0.533,0.161,1.015,0.372,1.449,0.634
			c0.433,0.262,0.793,0.577,1.08,0.943C36.191,14.942,36.352,15.363,36.386,15.837z"/>
		<path fill="#FFFFFF" d="M44.397,19.066c0.006,0.177-0.033,0.311-0.118,0.401c-0.087,0.092-0.183,0.161-0.291,0.209
			c-0.12,0.048-0.259,0.081-0.411,0.098c-0.32,0.011-0.586-0.121-0.801-0.395c-0.213-0.274-0.387-0.581-0.52-0.918
			c-0.158-0.393-0.283-0.841-0.377-1.346c-0.002-0.056-0.021-0.087-0.055-0.098c-0.033-0.01-0.066-0.014-0.1-0.013
			c-0.406,0.048-0.771,0.112-1.094,0.195s-0.594,0.161-0.811,0.234c-0.264,0.087-0.492,0.178-0.688,0.272
			c-0.086,0.059-0.145,0.121-0.176,0.188c-0.021,0.046-0.036,0.085-0.047,0.118c-0.114,0.49-0.197,0.88-0.248,1.168
			c-0.052,0.289-0.087,0.519-0.109,0.691c-0.021,0.171-0.038,0.313-0.051,0.424c-0.014,0.11-0.039,0.233-0.078,0.368
			c-0.051,0.166-0.123,0.293-0.219,0.379s-0.199,0.15-0.309,0.193c-0.108,0.042-0.208,0.067-0.295,0.076
			c-0.088,0.009-0.154,0.013-0.199,0.015c-0.121,0.005-0.215-0.025-0.283-0.089c-0.069-0.064-0.122-0.143-0.159-0.235
			c-0.035-0.092-0.058-0.183-0.066-0.271c-0.009-0.087-0.014-0.153-0.015-0.197c-0.008-0.221,0.005-0.464,0.041-0.729
			c0.035-0.268,0.076-0.517,0.124-0.75c0.056-0.277,0.124-0.557,0.203-0.835c-0.001-0.056-0.015-0.094-0.037-0.114
			c-0.012-0.012-0.024-0.018-0.034-0.017c-0.179-0.06-0.298-0.146-0.357-0.261c-0.059-0.114-0.09-0.198-0.092-0.253
			c0.037-0.233,0.112-0.418,0.23-0.554c0.116-0.138,0.234-0.246,0.352-0.328c0.141-0.082,0.292-0.143,0.457-0.181
			c0.045-0.014,0.088-0.043,0.131-0.088c0.01-0.022,0.021-0.04,0.031-0.051c0.091-0.257,0.211-0.573,0.365-0.948
			c0.151-0.375,0.322-0.77,0.513-1.186c0.19-0.415,0.396-0.83,0.62-1.247c0.223-0.416,0.449-0.791,0.682-1.124
			c0.23-0.334,0.457-0.607,0.676-0.819s0.428-0.32,0.625-0.328c0.122-0.003,0.191,0.011,0.209,0.043
			c0.018,0.033,0.071,0.048,0.16,0.044c0.033-0.001,0.066-0.023,0.104-0.07c0.037-0.044,0.085-0.094,0.144-0.146
			c0.06-0.052,0.135-0.103,0.227-0.156c0.091-0.054,0.203-0.081,0.336-0.087c0.1-0.014,0.209,0.013,0.326,0.08
			c0.118,0.068,0.183,0.262,0.193,0.582c0.006,0.133,0.004,0.249-0.004,0.349c-0.008,0.099-0.012,0.221-0.012,0.363
			c0,0.145-0.004,0.324-0.006,0.539c-0.004,0.215,0,0.506,0.013,0.869c0.015,0.419,0.04,0.873,0.079,1.363
			c0.041,0.491,0.104,0.982,0.191,1.476c0.091,0.493,0.203,0.965,0.34,1.412c0.137,0.449,0.31,0.835,0.52,1.159
			C44.337,18.76,44.394,18.934,44.397,19.066z M41.733,15.315c-0.02-0.253-0.037-0.539-0.055-0.858
			c-0.016-0.32-0.029-0.622-0.039-0.91l-0.033-0.991c-0.002-0.022-0.008-0.045-0.02-0.066c-0.024-0.043-0.047-0.064-0.068-0.063
			c-0.131,0.037-0.266,0.141-0.404,0.313c-0.137,0.169-0.271,0.376-0.399,0.617c-0.13,0.242-0.255,0.498-0.372,0.767
			c-0.117,0.27-0.219,0.519-0.305,0.748s-0.156,0.422-0.212,0.577c-0.056,0.157-0.083,0.242-0.083,0.252
			c0.004,0.11,0.027,0.165,0.072,0.163c0.23-0.063,0.434-0.114,0.607-0.152c0.176-0.04,0.367-0.08,0.576-0.12
			c0.208-0.041,0.41-0.069,0.609-0.087c0.021-0.001,0.043-0.013,0.064-0.035C41.716,15.422,41.735,15.371,41.733,15.315z"/>
		<path fill="#FFFFFF" d="M52.557,11.298c0.004,0.089-0.006,0.192-0.029,0.309s-0.076,0.254-0.16,0.411
			c-0.229,0.427-0.424,0.98-0.588,1.66c-0.135,0.59-0.252,1.342-0.354,2.256c-0.1,0.915-0.127,2.04-0.082,3.373
			c0.008,0.243-0.029,0.429-0.113,0.559s-0.174,0.225-0.271,0.283c-0.119,0.07-0.256,0.113-0.408,0.13
			c-0.244,0.009-0.484-0.091-0.723-0.298c-0.24-0.207-0.467-0.476-0.684-0.806c-0.215-0.328-0.422-0.696-0.617-1.104
			c-0.197-0.408-0.375-0.81-0.537-1.208c-0.164-0.396-0.307-0.767-0.428-1.111c-0.125-0.343-0.227-0.617-0.313-0.825
			c-0.047-0.108-0.082-0.163-0.105-0.162c-0.021,0.001-0.039,0.016-0.055,0.043c-0.016,0.029-0.035,0.054-0.055,0.077
			c-0.023,0.034-0.037,0.067-0.047,0.101c-0.117,0.424-0.195,0.829-0.232,1.217c-0.035,0.389-0.047,0.754-0.037,1.095
			c0.016,0.387,0.039,0.692,0.074,0.917s0.072,0.408,0.111,0.55c0.037,0.144,0.072,0.266,0.104,0.37s0.049,0.222,0.053,0.354
			c0.01,0.274-0.07,0.463-0.238,0.563s-0.326,0.152-0.48,0.157c-0.265,0.01-0.476-0.083-0.632-0.276
			c-0.154-0.192-0.273-0.427-0.354-0.699c-0.084-0.273-0.137-0.556-0.162-0.848c-0.028-0.292-0.045-0.531-0.051-0.719
			c-0.004-0.1,0-0.303,0.012-0.612c0.013-0.311,0.039-0.67,0.079-1.081c0.04-0.409,0.104-0.842,0.195-1.297
			c0.089-0.456,0.212-0.874,0.37-1.256c0.159-0.381,0.354-0.698,0.589-0.956c0.234-0.257,0.521-0.391,0.863-0.402
			c0.119-0.004,0.229,0.022,0.324,0.08s0.188,0.156,0.277,0.297c0.086,0.141,0.176,0.333,0.268,0.579
			c0.092,0.245,0.193,0.554,0.305,0.924c0.174,0.536,0.35,1.011,0.529,1.424c0.146,0.359,0.301,0.686,0.465,0.978
			s0.309,0.436,0.43,0.433c0.053-0.002,0.098-0.039,0.127-0.113c0.031-0.071,0.047-0.258,0.049-0.557
			c-0.004-0.087-0.004-0.28-0.004-0.578c0-0.299,0.016-0.647,0.045-1.046c0.031-0.397,0.082-0.814,0.148-1.247
			c0.068-0.433,0.174-0.834,0.314-1.202c0.143-0.371,0.324-0.677,0.549-0.922c0.223-0.245,0.506-0.374,0.848-0.386
			c0.154-0.005,0.297,0.022,0.426,0.084S52.549,11.034,52.557,11.298z"/>
		<path fill="#FFFFFF" d="M57.313,11.586c0.002,0.065-0.002,0.129-0.01,0.189c-0.01,0.062-0.041,0.126-0.094,0.193
			c-0.053,0.068-0.133,0.135-0.242,0.199s-0.254,0.128-0.439,0.19c-0.09,0.013-0.164,0.038-0.23,0.073
			c-0.055,0.024-0.111,0.054-0.17,0.089s-0.1,0.07-0.121,0.104c-0.117,0.457-0.209,0.987-0.275,1.591
			c-0.068,0.604-0.086,1.369-0.055,2.297c0.006,0.165,0.016,0.345,0.029,0.536c0.01,0.193,0.033,0.369,0.066,0.528
			s0.07,0.29,0.113,0.394c0.041,0.104,0.096,0.153,0.162,0.151l0.1-0.004c0.021,0,0.053-0.004,0.09-0.011
			c0.039-0.007,0.08-0.012,0.125-0.014c0.396-0.013,0.6,0.157,0.613,0.509c0.008,0.199-0.035,0.357-0.125,0.478
			c-0.09,0.118-0.189,0.208-0.297,0.267c-0.129,0.071-0.277,0.114-0.443,0.132c-0.273,0.031-0.533,0.085-0.781,0.158
			c-0.244,0.076-0.467,0.149-0.662,0.223c-0.23,0.085-0.447,0.175-0.654,0.271c-0.141,0.061-0.273,0.093-0.393,0.097
			c-0.121,0.004-0.219-0.019-0.293-0.064c-0.074-0.048-0.127-0.103-0.162-0.168c-0.049-0.065-0.078-0.147-0.092-0.246
			c-0.006-0.154,0.018-0.287,0.07-0.399c0.049-0.111,0.113-0.208,0.188-0.289c0.084-0.09,0.182-0.165,0.291-0.225
			c0.096-0.059,0.182-0.116,0.258-0.175c0.064-0.058,0.125-0.114,0.186-0.172c0.059-0.057,0.086-0.113,0.084-0.168
			c-0.016-0.464-0.016-0.993,0.004-1.591c0.018-0.597,0.045-1.167,0.08-1.708c0.033-0.631,0.084-1.272,0.15-1.927
			c0.01-0.066-0.021-0.107-0.088-0.121c-0.064-0.014-0.127-0.021-0.182-0.019c-0.219,0.041-0.357,0.063-0.412,0.064
			c-0.188,0.006-0.311-0.039-0.369-0.137s-0.088-0.185-0.092-0.262c-0.004-0.122,0.041-0.286,0.139-0.493
			c0.098-0.208,0.35-0.406,0.752-0.598c0.205-0.084,0.424-0.163,0.654-0.237c0.195-0.063,0.418-0.119,0.662-0.173
			c0.248-0.053,0.504-0.083,0.77-0.092c0.064-0.003,0.158-0.004,0.279-0.002c0.123,0.002,0.242,0.02,0.359,0.054
			c0.117,0.035,0.221,0.092,0.313,0.171C57.258,11.33,57.307,11.442,57.313,11.586z"/>
		<g>
			<path fill="#FFFFFF" d="M10.451,51.378c-0.463,0.01-0.846-0.355-0.856-0.818c-0.01-0.426,0.302-0.785,0.713-0.848
				c0.074-0.024,0.241-0.095,0.391-0.157c1.193-0.496,4.363-1.814,11.337-3.087c8.695-1.585,20.157-2.552,34.07-2.872
				c0.463-0.01,0.848,0.355,0.857,0.817c0.01,0.463-0.355,0.847-0.818,0.856c-26.935,0.62-39.231,3.514-44.803,5.832
				C10.894,51.288,10.69,51.372,10.451,51.378z"/>
		</g>
		<path fill="#FFFFFF" d="M7.491,31.275c0.012,0.088,0.011,0.19,0,0.31c-0.013,0.118-0.053,0.26-0.12,0.424
			c-0.185,0.448-0.327,1.018-0.424,1.709c-0.077,0.602-0.122,1.36-0.133,2.28c-0.012,0.92,0.07,2.042,0.245,3.365
			c0.032,0.24,0.013,0.43-0.059,0.567c-0.07,0.138-0.151,0.239-0.243,0.308c-0.111,0.081-0.243,0.138-0.396,0.169
			c-0.24,0.032-0.489-0.044-0.748-0.227c-0.257-0.183-0.509-0.428-0.756-0.734s-0.488-0.653-0.723-1.04
			c-0.234-0.386-0.452-0.77-0.653-1.149c-0.201-0.379-0.379-0.734-0.534-1.064s-0.285-0.594-0.388-0.791
			c-0.059-0.104-0.099-0.153-0.12-0.151c-0.022,0.004-0.041,0.021-0.053,0.049c-0.012,0.029-0.028,0.056-0.047,0.082
			c-0.017,0.035-0.03,0.07-0.036,0.104c-0.077,0.434-0.114,0.845-0.112,1.233c0.001,0.39,0.024,0.754,0.07,1.094
			c0.05,0.382,0.104,0.684,0.161,0.905c0.056,0.22,0.112,0.399,0.163,0.537c0.052,0.138,0.098,0.257,0.139,0.356
			c0.042,0.102,0.071,0.217,0.088,0.349c0.037,0.272-0.024,0.467-0.182,0.582c-0.158,0.116-0.313,0.184-0.465,0.204
			c-0.263,0.034-0.481-0.037-0.655-0.214c-0.173-0.178-0.314-0.397-0.422-0.663c-0.107-0.264-0.188-0.539-0.243-0.826
			c-0.055-0.288-0.094-0.524-0.118-0.711c-0.013-0.099-0.03-0.303-0.048-0.612c-0.019-0.308-0.028-0.669-0.026-1.081
			c0-0.412,0.023-0.849,0.068-1.312c0.044-0.462,0.126-0.891,0.247-1.285c0.12-0.395,0.284-0.729,0.492-1.008
			c0.208-0.278,0.481-0.439,0.821-0.485c0.121-0.016,0.231,0,0.332,0.048c0.102,0.049,0.203,0.139,0.303,0.27
			s0.209,0.315,0.324,0.55c0.114,0.235,0.245,0.532,0.394,0.892c0.224,0.516,0.445,0.97,0.665,1.364
			c0.179,0.343,0.365,0.652,0.557,0.928c0.192,0.275,0.348,0.405,0.469,0.389c0.054-0.008,0.094-0.048,0.117-0.124
			c0.024-0.075,0.021-0.262-0.007-0.559c-0.011-0.087-0.031-0.279-0.059-0.575c-0.029-0.298-0.046-0.646-0.056-1.046
			c-0.008-0.398,0-0.817,0.026-1.255c0.026-0.438,0.09-0.848,0.196-1.229S5.8,31.497,6,31.231c0.198-0.266,0.467-0.422,0.805-0.467
			c0.154-0.021,0.297-0.006,0.433,0.043C7.371,30.856,7.456,31.014,7.491,31.275z"/>
		<path fill="#FFFFFF" d="M15.676,37.738c0.023,0.175-0.003,0.312-0.079,0.411c-0.077,0.1-0.166,0.178-0.27,0.236
			c-0.114,0.06-0.247,0.104-0.398,0.136c-0.317,0.043-0.595-0.063-0.835-0.314c-0.24-0.253-0.442-0.54-0.606-0.863
			c-0.195-0.376-0.363-0.809-0.507-1.302c-0.007-0.055-0.028-0.086-0.063-0.093c-0.033-0.006-0.067-0.007-0.099-0.003
			c-0.402,0.087-0.758,0.187-1.071,0.301s-0.575,0.218-0.785,0.312c-0.252,0.112-0.471,0.225-0.656,0.338
			c-0.081,0.066-0.133,0.135-0.157,0.205c-0.017,0.047-0.028,0.087-0.034,0.121c-0.067,0.499-0.113,0.895-0.135,1.187
			c-0.023,0.292-0.037,0.525-0.042,0.699c-0.005,0.172-0.008,0.314-0.01,0.426c-0.003,0.112-0.017,0.235-0.042,0.373
			c-0.033,0.172-0.093,0.305-0.181,0.4c-0.087,0.095-0.184,0.168-0.289,0.221c-0.103,0.053-0.199,0.088-0.286,0.105
			c-0.087,0.018-0.153,0.028-0.196,0.034c-0.121,0.017-0.218-0.004-0.292-0.062c-0.074-0.057-0.133-0.131-0.179-0.219
			c-0.045-0.089-0.076-0.177-0.094-0.262c-0.017-0.088-0.028-0.153-0.033-0.197c-0.03-0.219-0.04-0.462-0.031-0.73
			c0.008-0.268,0.025-0.521,0.05-0.758c0.03-0.281,0.069-0.565,0.121-0.852c-0.007-0.053-0.023-0.09-0.048-0.109
			c-0.013-0.01-0.024-0.014-0.035-0.012c-0.184-0.043-0.31-0.118-0.38-0.226c-0.07-0.108-0.109-0.188-0.116-0.243
			c0.013-0.235,0.072-0.428,0.174-0.575c0.103-0.147,0.209-0.267,0.32-0.359c0.133-0.095,0.278-0.17,0.438-0.225
			c0.042-0.017,0.082-0.05,0.121-0.1c0.007-0.023,0.017-0.041,0.026-0.054c0.065-0.265,0.156-0.59,0.271-0.979
			c0.116-0.389,0.248-0.799,0.396-1.229c0.149-0.432,0.313-0.866,0.496-1.302c0.181-0.435,0.371-0.831,0.57-1.186
			c0.197-0.354,0.394-0.647,0.592-0.88c0.197-0.232,0.395-0.36,0.592-0.387c0.12-0.017,0.191-0.009,0.211,0.021
			c0.02,0.031,0.074,0.041,0.162,0.029c0.033-0.004,0.066-0.031,0.099-0.08s0.075-0.102,0.129-0.159
			c0.053-0.057,0.124-0.116,0.21-0.177c0.086-0.062,0.195-0.102,0.328-0.118c0.096-0.024,0.206-0.009,0.332,0.047
			c0.124,0.057,0.207,0.242,0.249,0.56c0.018,0.131,0.027,0.247,0.029,0.347c0.002,0.101,0.009,0.221,0.023,0.365
			c0.014,0.143,0.029,0.32,0.046,0.536c0.018,0.214,0.05,0.502,0.097,0.862c0.055,0.417,0.126,0.867,0.213,1.35
			c0.086,0.485,0.197,0.968,0.333,1.451c0.137,0.482,0.294,0.94,0.475,1.373c0.179,0.434,0.389,0.8,0.631,1.103
			C15.587,37.438,15.659,37.607,15.676,37.738z M12.662,34.264c-0.044-0.25-0.09-0.533-0.138-0.85
			c-0.048-0.316-0.09-0.618-0.128-0.901l-0.131-0.984c-0.002-0.022-0.011-0.043-0.024-0.064c-0.029-0.039-0.054-0.06-0.076-0.056
			c-0.125,0.05-0.25,0.166-0.371,0.35c-0.12,0.183-0.233,0.4-0.339,0.653c-0.105,0.254-0.205,0.52-0.295,0.8
			c-0.09,0.278-0.168,0.536-0.231,0.772c-0.064,0.237-0.115,0.437-0.155,0.598c-0.04,0.161-0.058,0.247-0.057,0.258
			c0.014,0.108,0.043,0.161,0.087,0.154c0.221-0.084,0.418-0.154,0.589-0.211c0.17-0.056,0.358-0.114,0.562-0.174
			c0.204-0.061,0.404-0.109,0.599-0.146c0.021-0.003,0.042-0.017,0.061-0.042C12.653,34.37,12.669,34.319,12.662,34.264z"/>
		<path fill="#FFFFFF" d="M25.852,35.179c0.016,0.265-0.056,0.578-0.217,0.941c-0.16,0.364-0.418,0.717-0.774,1.058
			c-0.356,0.342-0.805,0.64-1.348,0.895c-0.543,0.253-1.194,0.403-1.954,0.448c-0.44,0.027-0.794-0.01-1.06-0.11
			c-0.265-0.101-0.472-0.223-0.619-0.368c-0.146-0.146-0.244-0.301-0.293-0.464c-0.048-0.162-0.076-0.305-0.083-0.426
			c-0.022-0.353,0.029-0.646,0.155-0.88c0.124-0.233,0.264-0.422,0.421-0.564c0.158-0.142,0.371-0.275,0.639-0.403
			c0.166-0.01,0.272,0.015,0.32,0.072c0.047,0.059,0.073,0.114,0.076,0.17c0.002,0.021-0.001,0.036-0.005,0.041
			c-0.005,0.007-0.007,0.014-0.007,0.025l0.002,0.033c-0.046,0.158-0.073,0.298-0.082,0.42s-0.011,0.227-0.007,0.315
			c0.021,0.318,0.121,0.53,0.304,0.636c0.183,0.105,0.402,0.15,0.655,0.135c0.264-0.015,0.521-0.072,0.77-0.17
			c0.248-0.098,0.47-0.221,0.666-0.372c0.195-0.149,0.351-0.324,0.465-0.525c0.115-0.2,0.166-0.41,0.153-0.631
			c-0.016-0.265-0.149-0.472-0.402-0.623c-0.252-0.15-0.564-0.272-0.935-0.366s-0.768-0.178-1.192-0.251
			c-0.424-0.074-0.822-0.172-1.195-0.293c-0.372-0.122-0.686-0.282-0.94-0.483c-0.256-0.199-0.394-0.47-0.415-0.813
			c-0.026-0.429,0.105-0.876,0.393-1.342c0.288-0.465,0.659-0.896,1.116-1.294c0.457-0.396,0.97-0.729,1.541-0.996
			c0.569-0.267,1.13-0.417,1.681-0.45c0.175-0.01,0.354,0.004,0.533,0.044c0.179,0.038,0.341,0.105,0.485,0.202
			c0.144,0.098,0.263,0.23,0.355,0.401c0.093,0.172,0.147,0.389,0.164,0.654c0.011,0.188-0.008,0.385-0.056,0.592
			c-0.049,0.207-0.123,0.396-0.222,0.568c-0.101,0.173-0.225,0.318-0.372,0.438c-0.147,0.12-0.31,0.186-0.486,0.194
			c-0.055,0.004-0.136-0.019-0.244-0.068c-0.109-0.048-0.168-0.171-0.181-0.37c-0.004-0.077-0.002-0.135,0.006-0.174
			s0.015-0.079,0.018-0.118c0.003-0.038,0.009-0.082,0.018-0.133c0.008-0.05,0.008-0.125,0.002-0.225
			c-0.024-0.396-0.245-0.582-0.664-0.557c-0.23,0.014-0.488,0.096-0.772,0.245c-0.284,0.149-0.549,0.332-0.796,0.546
			c-0.247,0.214-0.449,0.444-0.604,0.691c-0.157,0.247-0.229,0.469-0.217,0.667c0.013,0.21,0.147,0.376,0.403,0.499
			c0.256,0.122,0.572,0.233,0.948,0.333c0.376,0.099,0.786,0.198,1.229,0.298c0.442,0.102,0.854,0.229,1.233,0.382
			c0.379,0.155,0.7,0.354,0.964,0.598C25.687,34.495,25.829,34.804,25.852,35.179z"/>
		<path fill="#FFFFFF" d="M32.403,27.511c0.003,0.065,0.002,0.149-0.002,0.249c-0.005,0.1-0.028,0.194-0.066,0.286
			c-0.039,0.09-0.098,0.169-0.176,0.234c-0.079,0.065-0.19,0.103-0.333,0.11c-0.043,0.004-0.17,0.02-0.379,0.048
			c-0.208,0.029-0.448,0.073-0.721,0.135c-0.273,0.061-0.555,0.139-0.848,0.233c-0.293,0.096-0.551,0.216-0.774,0.361l-0.015,0.034
			c0.001,0.022,0.022,0.04,0.061,0.055c0.04,0.014,0.085,0.033,0.137,0.058c0.051,0.025,0.1,0.053,0.146,0.082
			c0.046,0.031,0.077,0.073,0.09,0.128c-0.009,0.199-0.03,0.452-0.062,0.758c-0.031,0.307-0.06,0.654-0.086,1.042
			s-0.045,0.805-0.058,1.247c-0.011,0.442-0.004,0.896,0.024,1.358c0.028,0.452,0.078,0.877,0.151,1.276
			c0.074,0.398,0.186,0.742,0.335,1.032c0.012,0.011,0.024,0.032,0.038,0.064c0.026,0.064,0.041,0.124,0.043,0.18
			c0.002,0.021-0.004,0.069-0.016,0.142c-0.012,0.073-0.043,0.148-0.095,0.229c-0.05,0.08-0.129,0.154-0.234,0.222
			c-0.107,0.066-0.254,0.106-0.44,0.117c-0.188,0.012-0.354-0.034-0.498-0.136c-0.145-0.102-0.265-0.232-0.363-0.393
			c-0.1-0.161-0.179-0.338-0.24-0.533c-0.062-0.195-0.113-0.385-0.151-0.571c-0.039-0.186-0.064-0.35-0.079-0.492
			c-0.014-0.143-0.022-0.241-0.026-0.297c-0.03-0.507-0.031-1.062,0-1.666c0.029-0.605,0.072-1.175,0.129-1.707
			c0.063-0.612,0.136-1.23,0.22-1.854c-0.003-0.056-0.027-0.081-0.07-0.079c-0.195,0.057-0.367,0.119-0.512,0.188
			c-0.145,0.069-0.279,0.139-0.402,0.206c-0.124,0.069-0.239,0.126-0.346,0.171c-0.108,0.045-0.211,0.07-0.311,0.076
			c-0.186,0.012-0.323-0.053-0.409-0.19c-0.047-0.053-0.079-0.123-0.096-0.21c-0.007-0.121,0.022-0.292,0.086-0.511
			c0.064-0.22,0.256-0.434,0.575-0.64c0.469-0.294,0.961-0.556,1.479-0.785c0.442-0.204,0.936-0.394,1.483-0.57
			c0.547-0.177,1.102-0.281,1.664-0.316c0.076-0.004,0.18-0.004,0.307-0.001c0.127,0.003,0.251,0.026,0.369,0.069
			c0.119,0.042,0.225,0.107,0.319,0.196C32.342,27.234,32.394,27.356,32.403,27.511z"/>
		<path fill="#FFFFFF" d="M34.036,26.879c0.667,0.001,1.284,0.123,1.852,0.291c0.569,0.168,1.054,0.407,1.457,0.723
			c0.404,0.314,0.648,0.705,0.732,1.173c0.009,0.054,0.014,0.162,0.016,0.324c0,0.162-0.043,0.369-0.133,0.621
			c-0.09,0.251-0.242,0.534-0.462,0.848c-0.218,0.313-0.542,0.649-0.972,1.007c-0.019,0.015-0.033,0.027-0.042,0.041
			c-0.018,0.025-0.024,0.054-0.018,0.087c0.001,0.012,0.084,0.159,0.248,0.443c0.163,0.285,0.383,0.619,0.659,1.001
			c0.275,0.382,0.592,0.76,0.951,1.132c0.358,0.373,0.732,0.648,1.123,0.825c0.109,0.047,0.221,0.113,0.338,0.2
			c0.117,0.085,0.193,0.202,0.232,0.354c0.012,0.132,0.002,0.257-0.033,0.376c-0.04,0.096-0.104,0.189-0.195,0.278
			s-0.228,0.149-0.412,0.183c-0.262,0.047-0.539-0.007-0.836-0.161s-0.59-0.365-0.879-0.633s-0.567-0.568-0.834-0.901
			c-0.268-0.333-0.503-0.647-0.706-0.941c-0.205-0.294-0.376-0.549-0.517-0.765c-0.139-0.216-0.218-0.345-0.238-0.387
			c-0.045-0.07-0.09-0.102-0.133-0.094c-0.011,0.002-0.02,0.007-0.023,0.013c-0.005,0.007-0.012,0.011-0.023,0.013l-0.014,0.019
			c-0.162,0.029-0.295,0.026-0.397-0.013c-0.102-0.037-0.183-0.091-0.246-0.157c-0.063-0.067-0.107-0.138-0.131-0.212
			s-0.04-0.127-0.046-0.16c-0.009-0.055-0.007-0.108,0.005-0.16c0.013-0.054,0.026-0.104,0.041-0.15
			c0.025-0.05,0.056-0.095,0.093-0.136c0.504-0.313,0.889-0.609,1.153-0.887c0.263-0.276,0.455-0.524,0.573-0.741
			c0.118-0.217,0.181-0.396,0.19-0.538c0.007-0.142,0.007-0.239-0.003-0.295c-0.054-0.304-0.239-0.551-0.553-0.741
			c-0.314-0.189-0.685-0.329-1.109-0.415c-0.424-0.086-0.405,0.021-1.343-0.129C32.463,28.063,32.789,26.879,34.036,26.879z
			 M34.071,29.699c0.015,0.087,0.017,0.187,0.004,0.301c-0.05,0.536-0.079,1.097-0.086,1.681c-0.009,0.506,0,1.064,0.031,1.676
			c0.031,0.61,0.101,1.226,0.213,1.846c0.016,0.086,0.032,0.179,0.049,0.276c0.019,0.098,0.041,0.189,0.066,0.273l0.005,0.032
			c0.002,0.012,0.007,0.025,0.017,0.041c0.007,0.015,0.015,0.033,0.019,0.055c0.027,0.151,0.009,0.273-0.054,0.362
			c-0.063,0.09-0.133,0.164-0.212,0.224c-0.102,0.063-0.216,0.111-0.345,0.146c-0.184,0.032-0.341,0.003-0.47-0.093
			c-0.129-0.095-0.234-0.216-0.317-0.363s-0.147-0.305-0.193-0.471c-0.046-0.165-0.081-0.307-0.102-0.427
			c-0.129-0.716-0.195-1.405-0.203-2.065c-0.006-0.66,0.018-1.253,0.068-1.777c0.048-0.614,0.129-1.188,0.247-1.726
			c0.03-0.084,0.066-0.158,0.111-0.223c0.044-0.063,0.101-0.124,0.169-0.182c0.068-0.057,0.151-0.094,0.249-0.111
			c0.033-0.006,0.085-0.007,0.159-0.004c0.074,0.004,0.15,0.024,0.229,0.061c0.08,0.035,0.151,0.091,0.214,0.163
			C34.005,29.467,34.047,29.567,34.071,29.699z"/>
		<path fill="#FFFFFF" d="M46.395,34.079c0.01,0.177-0.025,0.312-0.109,0.404c-0.082,0.094-0.179,0.165-0.286,0.216
			c-0.117,0.052-0.254,0.088-0.407,0.108c-0.321,0.019-0.59-0.105-0.812-0.374c-0.221-0.27-0.401-0.57-0.543-0.904
			c-0.166-0.389-0.305-0.833-0.411-1.336c-0.004-0.055-0.022-0.087-0.056-0.096c-0.035-0.01-0.068-0.013-0.102-0.01
			c-0.405,0.057-0.769,0.131-1.09,0.222c-0.318,0.092-0.588,0.177-0.803,0.256c-0.261,0.094-0.486,0.19-0.68,0.29
			c-0.085,0.061-0.143,0.125-0.171,0.193c-0.02,0.044-0.034,0.085-0.044,0.118c-0.103,0.492-0.174,0.884-0.219,1.174
			c-0.043,0.29-0.074,0.521-0.09,0.693c-0.018,0.172-0.031,0.314-0.041,0.426c-0.012,0.11-0.033,0.234-0.07,0.369
			c-0.044,0.168-0.114,0.296-0.208,0.385c-0.095,0.089-0.195,0.155-0.304,0.201c-0.107,0.045-0.205,0.072-0.293,0.084
			c-0.088,0.01-0.154,0.018-0.197,0.02c-0.122,0.008-0.217-0.02-0.287-0.082s-0.125-0.139-0.163-0.23
			c-0.039-0.092-0.063-0.182-0.073-0.269c-0.012-0.089-0.02-0.155-0.021-0.198c-0.012-0.221-0.005-0.464,0.022-0.73
			c0.028-0.268,0.063-0.519,0.104-0.753c0.05-0.28,0.11-0.56,0.183-0.84c-0.004-0.056-0.017-0.093-0.041-0.114
			c-0.011-0.01-0.021-0.016-0.033-0.015c-0.181-0.055-0.303-0.139-0.363-0.251c-0.063-0.112-0.096-0.195-0.098-0.251
			c0.029-0.234,0.102-0.421,0.215-0.561s0.229-0.252,0.344-0.335c0.139-0.086,0.289-0.151,0.453-0.194
			c0.043-0.013,0.086-0.044,0.128-0.09c0.009-0.023,0.019-0.041,0.029-0.052c0.084-0.26,0.197-0.579,0.341-0.957
			c0.143-0.38,0.304-0.778,0.483-1.198c0.179-0.42,0.374-0.84,0.587-1.263c0.213-0.422,0.43-0.802,0.653-1.142
			c0.222-0.339,0.44-0.618,0.654-0.836c0.214-0.217,0.419-0.331,0.618-0.343c0.119-0.008,0.189,0.005,0.207,0.036
			c0.02,0.032,0.072,0.046,0.161,0.041c0.033-0.003,0.067-0.026,0.103-0.073c0.037-0.046,0.084-0.097,0.141-0.148
			c0.059-0.054,0.133-0.108,0.223-0.164c0.091-0.055,0.203-0.086,0.334-0.094c0.1-0.018,0.209,0.007,0.328,0.071
			c0.12,0.065,0.189,0.257,0.209,0.576c0.009,0.133,0.009,0.249,0.005,0.349c-0.005,0.099-0.007,0.221-0.003,0.364
			c0.003,0.145,0.005,0.323,0.007,0.538c0.001,0.216,0.015,0.506,0.034,0.869c0.026,0.418,0.065,0.871,0.117,1.36
			c0.051,0.489,0.127,0.979,0.229,1.471c0.102,0.49,0.227,0.959,0.374,1.403c0.149,0.443,0.331,0.825,0.553,1.145
			C46.326,33.774,46.385,33.946,46.395,34.079z M43.634,30.397c-0.025-0.252-0.051-0.538-0.075-0.856
			c-0.026-0.319-0.046-0.622-0.063-0.909l-0.062-0.991c0-0.021-0.007-0.043-0.02-0.065c-0.023-0.042-0.048-0.063-0.07-0.062
			c-0.129,0.041-0.262,0.148-0.395,0.322s-0.262,0.383-0.385,0.628c-0.124,0.245-0.242,0.504-0.353,0.776
			c-0.11,0.271-0.206,0.523-0.286,0.755c-0.078,0.231-0.145,0.426-0.197,0.583c-0.051,0.159-0.075,0.244-0.075,0.255
			c0.007,0.109,0.031,0.163,0.075,0.16c0.229-0.068,0.43-0.125,0.605-0.169c0.173-0.043,0.365-0.088,0.571-0.133
			c0.206-0.047,0.409-0.081,0.606-0.104c0.021-0.002,0.044-0.013,0.064-0.037C43.62,30.504,43.638,30.453,43.634,30.397z"/>
		<path fill="#FFFFFF" d="M52.85,26.989c0.008,0.109-0.01,0.23-0.059,0.363c-0.049,0.132-0.141,0.282-0.281,0.45
			c-0.633,0.692-1.209,1.369-1.732,2.029c-0.229,0.287-0.451,0.583-0.664,0.887c-0.215,0.303-0.412,0.608-0.594,0.913
			c-0.182,0.306-0.336,0.604-0.463,0.893c-0.129,0.29-0.209,0.558-0.24,0.805c-0.008,0.022-0.012,0.04-0.01,0.051
			c-0.01,0.022-0.014,0.051-0.01,0.084c0.006,0.066,0.049,0.096,0.125,0.088c0.012-0.002,0.094-0.025,0.252-0.074
			c0.154-0.048,0.352-0.106,0.59-0.173c0.236-0.067,0.494-0.131,0.77-0.191c0.279-0.059,0.543-0.102,0.795-0.125
			c0.166-0.016,0.342-0.019,0.533-0.01c0.188,0.01,0.363,0.045,0.525,0.107c0.16,0.063,0.299,0.149,0.414,0.26
			c0.117,0.11,0.182,0.26,0.201,0.446c0.018,0.197-0.008,0.35-0.082,0.457c-0.07,0.106-0.148,0.191-0.232,0.254
			c-0.104,0.066-0.223,0.111-0.354,0.135c-0.119,0.011-0.281-0.001-0.484-0.037s-0.486-0.036-0.848-0.002
			c-0.494,0.049-0.9,0.109-1.213,0.183c-0.316,0.076-0.584,0.147-0.811,0.22s-0.434,0.137-0.623,0.193
			c-0.188,0.057-0.402,0.096-0.645,0.12c-0.219,0.021-0.396,0.01-0.527-0.033s-0.24-0.102-0.324-0.177
			c-0.084-0.074-0.143-0.158-0.174-0.249c-0.031-0.092-0.049-0.181-0.057-0.27c-0.006-0.054-0.012-0.103-0.016-0.147
			c-0.004-0.044-0.002-0.083,0.006-0.117c0.008-0.045,0.016-0.084,0.021-0.118c0.115-0.41,0.285-0.851,0.512-1.321
			s0.48-0.938,0.756-1.402c0.277-0.465,0.561-0.916,0.852-1.354c0.289-0.437,0.555-0.826,0.793-1.165
			c0.24-0.339,0.436-0.617,0.586-0.838c0.15-0.219,0.223-0.346,0.221-0.379c-0.006-0.076-0.055-0.13-0.139-0.161
			c-0.088-0.03-0.188-0.049-0.297-0.055c-0.113-0.005-0.221-0.006-0.324-0.002c-0.105,0.004-0.18,0.01-0.225,0.014
			c-0.219,0.021-0.422,0.057-0.604,0.107c-0.186,0.051-0.346,0.105-0.482,0.163c-0.162,0.06-0.311,0.129-0.447,0.208
			c-0.086,0.032-0.145,0.049-0.178,0.051c-0.121,0.013-0.221-0.003-0.295-0.047c-0.076-0.042-0.141-0.094-0.191-0.155
			c-0.049-0.062-0.082-0.119-0.1-0.174c-0.016-0.054-0.025-0.091-0.027-0.113c-0.041-0.43,0.156-0.777,0.59-1.046
			s1.025-0.439,1.771-0.512c0.1-0.009,0.328-0.015,0.689-0.016c0.359-0.001,0.74,0.028,1.141,0.09
			c0.396,0.062,0.758,0.16,1.084,0.295C52.648,26.525,52.822,26.726,52.85,26.989z M51.086,23.018
			c0.02,0.198-0.023,0.423-0.125,0.678c-0.104,0.254-0.234,0.494-0.389,0.719c-0.156,0.226-0.313,0.415-0.471,0.568
			c-0.156,0.154-0.283,0.235-0.383,0.245l-0.361,0.034c-0.133,0.014-0.297-0.051-0.494-0.193c-0.195-0.142-0.387-0.316-0.574-0.527
			c-0.186-0.208-0.346-0.424-0.477-0.643c-0.133-0.222-0.205-0.402-0.219-0.545c-0.008-0.088,0.008-0.14,0.051-0.155
			c0.043-0.015,0.092-0.024,0.148-0.03c0.074-0.008,0.176,0.008,0.301,0.046c0.129,0.037,0.291,0.119,0.49,0.243
			c0.084,0.06,0.172,0.116,0.266,0.175c0.084,0.047,0.172,0.103,0.266,0.166s0.193,0.117,0.299,0.162
			c0.287-0.228,0.539-0.456,0.748-0.687c0.211-0.23,0.443-0.364,0.693-0.399c0.09-0.009,0.152,0.013,0.191,0.064
			C51.07,22.969,51.084,22.996,51.086,23.018z"/>
		<path fill="#FFFFFF" d="M53.48,34.334c0.002-0.065,0.012-0.13,0.025-0.189c0.012-0.06,0.049-0.122,0.105-0.187
			c0.061-0.063,0.145-0.124,0.258-0.18c0.111-0.056,0.262-0.107,0.453-0.154c0.088-0.008,0.168-0.026,0.234-0.058
			c0.057-0.019,0.115-0.044,0.176-0.075c0.063-0.029,0.105-0.061,0.129-0.094c0.152-0.446,0.285-0.968,0.396-1.565
			c0.115-0.598,0.189-1.358,0.229-2.285c0.006-0.166,0.012-0.345,0.014-0.537c0.004-0.193-0.006-0.37-0.027-0.532
			c-0.021-0.161-0.049-0.294-0.084-0.4c-0.033-0.107-0.082-0.16-0.148-0.164l-0.1-0.004c-0.023-0.001-0.053,0-0.092,0.005
			c-0.039,0.004-0.08,0.005-0.125,0.003c-0.396-0.017-0.588-0.201-0.572-0.555c0.008-0.198,0.063-0.353,0.16-0.465
			c0.098-0.111,0.205-0.192,0.316-0.243c0.135-0.062,0.285-0.094,0.453-0.098c0.273-0.01,0.539-0.044,0.787-0.1
			c0.254-0.056,0.479-0.113,0.68-0.17c0.236-0.068,0.459-0.141,0.672-0.222c0.146-0.049,0.279-0.07,0.4-0.066
			c0.121,0.006,0.217,0.035,0.285,0.087c0.07,0.054,0.121,0.112,0.152,0.181c0.041,0.068,0.064,0.151,0.072,0.251
			c-0.008,0.154-0.041,0.286-0.1,0.395c-0.061,0.106-0.129,0.198-0.211,0.272c-0.092,0.084-0.193,0.151-0.307,0.202
			c-0.102,0.051-0.191,0.103-0.271,0.155c-0.068,0.052-0.133,0.104-0.197,0.157c-0.063,0.052-0.094,0.105-0.098,0.161
			c-0.02,0.464-0.061,0.991-0.125,1.585c-0.063,0.594-0.133,1.159-0.209,1.697c-0.084,0.627-0.182,1.263-0.297,1.91
			c-0.014,0.065,0.012,0.108,0.078,0.127c0.064,0.02,0.127,0.029,0.182,0.033c0.221-0.024,0.359-0.035,0.414-0.033
			c0.189,0.007,0.307,0.063,0.357,0.164c0.053,0.102,0.076,0.19,0.072,0.269c-0.006,0.12-0.064,0.28-0.178,0.48
			s-0.377,0.379-0.793,0.539c-0.213,0.068-0.436,0.131-0.67,0.187c-0.201,0.048-0.426,0.088-0.676,0.122
			c-0.25,0.033-0.508,0.045-0.773,0.034c-0.064-0.003-0.158-0.011-0.279-0.02c-0.119-0.012-0.238-0.039-0.352-0.081
			c-0.115-0.045-0.215-0.109-0.299-0.195C53.514,34.592,53.475,34.478,53.48,34.334z"/>
	</g>
	<path fill-rule="evenodd" clip-rule="evenodd" fill="#FFFFFF" d="M66.395,39.526c-0.344,0.686-1.186,0.967-1.873,0.623
		l-2.107-1.053c-0.686-0.344-0.965-1.186-0.623-1.873l5.301-10.596c0.342-0.688,1.186-0.968,1.871-0.625l2.105,1.055
		c0.688,0.343,0.969,1.186,0.623,1.871L66.395,39.526z"/>
	<path fill-rule="evenodd" clip-rule="evenodd" fill="#FFFFFF" d="M61.645,40.721c0.295,0.148,0.525,0.887,0.914,1.082
		c0.412,0.207,0.986-0.131,1.299,0.026c0.611,0.304,0.645,0.86,0.076,1.235c-0.57,0.376-1.498,0.989-2.066,1.364
		c-0.57,0.376-1.068,0.127-1.107-0.554c-0.041-0.68-0.107-1.792-0.15-2.472C60.568,40.724,61.035,40.417,61.645,40.721z"/>
</g>
</svg>
