<?xml version="1.0" encoding="utf-8"?>
<!-- Generator: Adobe Illustrator 18.0.0, SVG Export Plug-In . SVG Version: 6.00 Build 0)  -->
<!DOCTYPE svg PUBLIC "-//W3C//DTD SVG 1.1//EN" "http://www.w3.org/Graphics/SVG/1.1/DTD/svg11.dtd">
<svg version="1.1" id="Layer_1" xmlns="http://www.w3.org/2000/svg" xmlns:xlink="http://www.w3.org/1999/xlink" x="0px" y="0px"
	 viewBox="0 0 635.055 360.946" enable-background="new 0 0 635.055 360.946" xml:space="preserve">
<path fill="#DF2027" d="M73.45,139.156c-2.449,1.541-4.123,2.924-6.042,3.691c-1.354,0.542-3.571,0.884-4.44,0.16
	c-0.969-0.807-1.346-3.017-1.073-4.443c0.325-1.696,1.211-3.87,2.554-4.687c6.749-4.107,13.619-8.059,20.711-11.526
	c1.527-0.747,4.143,0.733,6.257,1.187c-0.605,2.431-0.44,5.662-1.968,7.134c-3.748,3.611-4.936,7.308-3.041,12.071
	c2.374,5.966,4.914,11.874,7.022,17.933c0.602,1.729,0.562,5.232-0.244,5.6c-2.128,0.971-5.341,1.616-7.185,0.633
	c-2.236-1.192-3.65-4.098-5.154-6.433c-0.938-1.456-1.384-3.229-2.143-5.085c-2.778,3.282-4.96,6.41-7.676,8.971
	c-9.629,9.078-21.441,7.169-27.915-4.314c-9.004-15.971-1.735-52.469,24.466-57.393c2.648-0.498,5.77-0.405,8.241,0.54
	c3.683,1.408,4.449,4.826,2.923,8.341c-1.395,3.213-3.427,5.071-7.44,3.058c-3.593-1.802-7.088-0.595-10.176,1.892
	c-9.114,7.339-13.099,26.484-7.621,36.831c2.413,4.557,6.258,5.749,10.824,3.355C69.831,153.786,73.612,146.976,73.45,139.156z"/>
<path fill="#DF2027" d="M210.632,115.813c-2.724-0.476-4.938-0.862-7.152-1.249c1.938-2.282,3.876-4.564,5.813-6.846
	c0.409,0.262,0.817,0.525,1.226,0.787c0-5.124,0-10.248,0-15.874c-2.498,0-5.093,0.187-7.644-0.067
	c-1.653-0.164-3.241-0.972-4.859-1.491c0.635-1.759,0.764-4.273,2.016-5.111c2.209-1.48,5.047-2.347,7.725-2.709
	c2.522-0.34,4.262-0.657,5.24-3.466c0.594-1.706,2.266-3.38,3.889-4.312c3.234-1.858,5.731-0.319,5.245,3.375
	c-0.539,4.092,1.224,4.755,4.753,5.574c5.601,1.301,11.274,3.095,16.328,5.786c11.505,6.124,14.734,15.348,10.4,27.744
	c-4.335,12.399-13.182,21.114-24.066,27.701c-5.621,3.402-11.886,5.891-18.118,8.043c-2.128,0.735-6.802-0.176-7.268-1.45
	c-1.313-3.585,1.842-5.577,4.993-6.707c9.096-3.263,17.111-8.237,23.539-15.444c2.963-3.322,5.685-7.011,7.771-10.93
	c4.614-8.667,2.514-16.297-5.973-21.346c-3.683-2.191-8.032-3.26-12.89-5.156c0,5.577,0,9.635,0,14.149
	c1.774,0,3.276-0.216,4.677,0.068c1.119,0.227,2.114,1.063,3.164,1.628c-0.741,0.971-1.41,2.715-2.233,2.791
	c-7.509,0.692-5.06,5.611-4.3,9.774c0.236,1.295,1.215,2.56,1.127,3.787c-0.16,2.226-0.143,5.446-1.499,6.394
	c-2.611,1.825-5.932,1.116-7.686-2.031c-1.352-2.426-2.337-5.095-3.177-7.754C211.038,119.465,210.891,117.304,210.632,115.813z"/>
<path fill="#DF2027" d="M332.192,98.053c-3.685,10.579-3.505,19.883-1.582,29.212c1.537,7.457,1.132,9.356-3.006,10.266
	c-4.005,0.88-7.08-1.523-8.216-8.017c-2.536-14.507-1.418-28.802,4.283-42.533c0.685-1.649,1.837-3.188,3.058-4.514
	c4.542-4.934,9.379-4.172,11.919,2.047c3.072,7.523,5.726,15.217,8.752,22.76c0.815,2.033,2.324,3.788,3.515,5.67
	c0.473-0.104,0.945-0.208,1.418-0.313c0.155-1.828,0.264-3.66,0.472-5.482c0.976-8.573,1.518-17.235,3.189-25.672
	c0.72-3.634,3.27-7.361,6.015-9.962c1.562-1.479,5.198-0.77,7.899-1.046c0.201,2.198,1.258,4.782,0.469,6.534
	c-7.541,16.746-8.251,34.466-7.952,52.353c0.058,3.498-0.032,6.932-3.881,8.327c-3.679,1.334-6.978-0.481-8.617-3.438
	c-5.048-9.109-9.622-18.482-14.293-27.796C334.487,104.16,333.674,101.703,332.192,98.053z"/>
<path fill="#DF2027" d="M12.387,246.369c-3.015,9.089-2.301,18.047,0.305,26.93c0.467,1.592,1.691,3.219,1.494,4.686
	c-0.289,2.153-1.096,5.458-2.494,5.945c-1.956,0.681-5.935-0.021-6.794-1.469c-2.306-3.888-4.579-8.438-4.764-12.814
	c-0.435-10.247,0.282-20.55,0.729-30.822c0.076-1.745,1.021-3.495,1.754-5.159c1.661-3.771,3.991-8.078,8.387-7.157
	c2.811,0.589,5.518,4.239,7.196,7.139c3.735,6.452,6.712,13.339,10.189,19.948c0.847,1.611,2.431,2.835,4.802,3.776
	c0-2.359-0.096-4.722,0.017-7.075c0.449-9.409,0.521-18.872,1.714-28.189c0.371-2.9,3.545-5.741,6.034-7.93
	c1.092-0.961,4.401-0.993,5.408-0.055c1.253,1.167,1.844,3.888,1.527,5.734c-0.838,4.88-3.236,9.625-3.367,14.468
	c-0.354,13.097,0.293,26.219,0.185,39.328c-0.022,2.662-0.89,6.603-2.685,7.614c-1.909,1.075-6.247,0.304-8.002-1.313
	c-3.968-3.657-7.455-8.048-10.302-12.657C19.559,260.559,16.13,253.368,12.387,246.369z"/>
<path fill="#DF2027" d="M145.284,246.439c0,2.455-0.028,4.919,0.007,7.383c0.046,3.207,1.857,4.81,4.896,5.251
	c5.371,0.78,13.155-3.275,15.53-8.113c1.848-3.763,1.231-7.186-2.707-8.733c-4.747-1.864-9.821-2.894-14.755-4.282
	c-3.666-1.031-7.468-1.725-10.97-3.156c-6.802-2.779-8.486-7.124-5.973-14.073c4.148-11.469,21.524-23.569,33.591-23.391
	c5.39,0.08,8.765,2.543,9.978,7.285c1.27,4.962-1.32,12.013-5.188,14.127c-3.223,1.761-5.538,0.392-5.514-3.261
	c0.052-7.908-3.11-9.992-9.991-5.764c-3.982,2.447-7.523,5.945-10.499,9.592c-2.552,3.128-1.557,6.428,2.604,7.795
	c4.564,1.499,9.255,2.606,13.84,4.046c4.258,1.338,8.661,2.464,12.622,4.442c7.098,3.544,8.925,9.613,5.068,16.739
	c-5.944,10.982-16.056,15.345-27.902,16.527c-1.974,0.197-4.018,0.19-5.98-0.083c-6.798-0.943-10.212-5.41-9.525-12.215
	C135.017,250.609,139.545,246.283,145.284,246.439z"/>
<path fill="#DF2027" d="M344.197,233.2c5.764-1.344,10.663-2.845,15.674-3.529c3.351-0.457,7.151-0.495,10.193,0.699
	c1.949,0.766,3.981,4.158,3.898,6.293c-0.058,1.51-3.684,4.22-5.566,4.096c-9.699-0.639-18.815,1.539-27.899,4.366
	c-1.257,0.391-2.588,0.655-3.9,0.738c-6.477,0.411-9.635-3.259-7.297-9.296c2.448-6.32,5.331-12.56,8.794-18.377
	c5.335-8.96,11.326-17.53,17.521-27.002c-2.121-0.468-3.817-1.316-5.35-1.084c-3.576,0.539-7.141,1.39-10.582,2.511
	c-2.728,0.889-5.444,2.635-7.373-0.869c-1.772-3.219-0.286-6.331,2.42-7.719c4.052-2.079,8.565-4.19,12.977-4.415
	c6.53-0.333,13.274,0.373,19.686,1.751c6.62,1.423,7.516,5.728,3.173,11.022c-5.903,7.195-11.987,14.259-17.55,21.71
	c-2.951,3.953-5.093,8.541-7.339,12.974C344.847,228.708,344.765,230.724,344.197,233.2z"/>
<path fill="#DF2027" d="M204.704,201.92c0.299,2.099,0.851,4.198,0.854,6.297c0.015,11.288-0.289,22.579-0.066,33.861
	c0.064,3.22,1.877,6.377,2.213,9.632c0.222,2.151-0.417,6.154-1.268,6.323c-2.556,0.508-7.021,0.444-7.837-1.017
	c-2.42-4.335-4.666-9.422-4.769-14.262c-0.229-10.771,0.882-21.571,1.461-32.358c0.097-1.805,0.263-3.606,0.485-6.587
	c-3.309,1.478-5.81,2.962-8.514,3.675c-1.809,0.477-4.939,0.56-5.622-0.444c-0.919-1.35-0.392-4.019,0.174-5.926
	c0.376-1.266,1.731-2.468,2.944-3.224c10.258-6.398,21.141-11.197,33.336-12.394c5.267-0.517,8.318,1.46,8.412,5.291
	c0.075,3.052-0.982,4.887-4.348,5.531c-6.136,1.174-12.186,2.798-18.271,4.235C204.16,201.009,204.432,201.465,204.704,201.92z"/>
<path fill="#DF2027" d="M383.971,86.354c-0.973-0.244-1.447-0.339-1.906-0.482c-1.85-0.577-3.695-1.168-5.543-1.754
	c1.1-2.393,1.552-5.753,3.418-7.001c6.222-4.162,13.413-5.765,20.907-4.881c1.489,0.176,3.595,1.657,3.963,2.95
	c0.363,1.275-0.86,4.249-1.83,4.461c-8.802,1.929-8.752,9.146-9.115,15.534c-0.441,7.762-0.011,15.597,0.515,23.368
	c0.094,1.384,2.423,2.693,3.845,3.889c1.362,1.145,4.218,2.33,4.085,3.091c-0.378,2.171-1.472,5.31-3.125,5.972
	c-6.28,2.518-12.854,4.353-19.414,6.074c-1.177,0.309-3.823-0.904-4.022-1.805c-0.407-1.839-0.279-5.147,0.798-5.745
	c7.441-4.133,5.87-11.024,6.114-17.486C382.987,103.921,383.513,95.311,383.971,86.354z"/>
<path fill="#DF2027" d="M388.533,243.266c-1.149,0-1.484,0.02-1.815-0.003c-3.374-0.238-7.831,0.795-8.662-3.788
	c-0.811-4.47,3.628-4.63,6.559-6.014c1.578-0.745,3.555-2.457,3.779-3.967c1.51-10.164,2.748-20.376,3.734-30.604
	c0.31-3.219-0.418-6.092-5.067-6.25c-3.119-0.106-4.089-4.508-1.68-7.025c1.078-1.126,2.733-1.955,4.271-2.338
	c5.455-1.358,10.94-2.678,16.486-3.546c1.801-0.282,4.49,0.305,5.536,1.541c0.811,0.958,0.281,4.772-0.654,5.217
	c-8.607,4.104-7.241,12.083-8.116,19.281c-0.883,7.259-2.11,14.478-2.896,21.746c-0.109,1.01,1.247,2.473,2.284,3.243
	c1.511,1.122,3.348,1.806,5.047,2.677c-1.245,2.042-2.021,4.941-3.839,5.937c-3.268,1.791-7.134,2.545-10.807,3.519
	C391.107,243.312,389.383,243.199,388.533,243.266z"/>
<path fill="#DF2027" d="M237.504,222.114c0.952,8.541,1.846,17.09,2.885,25.62c0.385,3.159,0.671,6.115-3.282,7.154
	c-3.714,0.976-5.873-1.151-6.725-4.262c-1.216-4.442-2.525-9.032-2.597-13.578c-0.141-8.93,0.483-17.877,0.937-26.81
	c0.091-1.78,0.354-3.94,1.412-5.179c1.197-1.402,3.439-2.751,5.111-2.622c1.178,0.091,2.967,2.625,3.086,4.175
	c0.391,5.114,0.147,10.276,0.147,15.419C238.154,222.06,237.829,222.087,237.504,222.114z"/>
<path fill="#DF2027" d="M103.008,105.683c5.915,0.592,5.984,3.89,6.244,7.105c0.695,8.617,1.199,17.258,2.229,25.836
	c0.55,4.584,2.351,9.015,2.932,13.599c0.226,1.779-0.868,4.723-2.244,5.44c-1.512,0.788-4.563,0.274-5.991-0.866
	c-1.652-1.318-2.616-3.831-3.273-6.008c-3.907-12.951-4.204-26.253-3.08-39.585C100.002,109.102,102.114,107.163,103.008,105.683z"
	/>
<path fill="#DF2027" d="M359.888,155.988c0.633,6.881-3.792,15.509-8.311,17.228c-1.66,0.631-4.201,0.722-5.629-0.131
	c-5.057-3.019-8.839-7.276-10.908-14.871c3.625,1.37,6.503,1.744,8.379,3.314c4.051,3.389,6.848,2.346,9.987-1.173
	C354.899,158.681,357.215,157.74,359.888,155.988z"/>
<path fill="#FFFFFF" d="M436.226,263.918c0.61-1.861,1.001-3.831,1.864-5.566c12.117-24.361,24.255-48.711,36.489-73.013
	c3.653-7.255,8.268-8.727,15.509-5.266c4.49,2.146,8.985,4.297,13.36,6.662c5.698,3.079,7.317,8.06,4.425,13.874
	c-12.427,24.979-24.91,49.93-37.444,74.855c-2.856,5.678-8.006,7.403-13.778,4.712c-4.966-2.315-10.093-4.454-14.628-7.456
	c-2.703-1.789-4.402-5.095-6.553-7.719C435.723,264.641,435.975,264.279,436.226,263.918z"/>
<path fill="#DF2027" d="M238.331,206.613c-0.119-1.55-1.908-4.084-3.086-4.175c-1.672-0.129-3.914,1.22-5.111,2.622
	c-1.058,1.239-1.321,3.399-1.412,5.179c-0.454,8.932-1.078,17.879-0.937,26.81c0.072,4.546,1.381,9.135,2.597,13.578
	c0.852,3.111,3.01,5.238,6.725,4.262c3.953-1.038,3.667-3.994,3.282-7.154c-1.039-8.531-1.933-17.079-2.885-25.62
	c0.325-0.027,0.65-0.055,0.975-0.082C238.478,216.889,238.722,211.727,238.331,206.613z"/>
<path fill="#DF2027" d="M210.519,92.632c0,5.626,0,10.75,0,15.874c-0.409-0.262-0.817-0.525-1.226-0.787
	c-1.938,2.282-3.876,4.564-5.813,6.846c2.214,0.387,4.428,0.773,7.152,1.249c0.259,1.491,0.406,3.652,1.04,5.659
	c0.84,2.659,1.825,5.328,3.177,7.754c1.754,3.147,5.075,3.856,7.686,2.031c1.355-0.948,1.338-4.168,1.499-6.394
	c0.088-1.226-0.891-2.491-1.127-3.787c-0.759-4.163-3.209-9.081,4.3-9.774c0.823-0.076,1.492-1.82,2.233-2.791
	c-1.05-0.566-2.045-1.401-3.164-1.628c-1.401-0.284-2.903-0.068-4.677-0.068c0-4.514,0-8.572,0-14.149
	c4.857,1.895,9.207,2.965,12.89,5.156c8.487,5.049,10.587,12.679,5.973,21.346c-2.086,3.919-4.809,7.608-7.771,10.93
	c-6.428,7.208-14.443,12.181-23.539,15.444c-3.151,1.13-6.306,3.122-4.993,6.707c0.466,1.274,5.14,2.184,7.268,1.45
	c6.233-2.152,12.498-4.642,18.118-8.043c10.883-6.586,19.731-15.301,24.065-27.701c4.334-12.396,1.105-21.62-10.4-27.744
	c-5.054-2.69-10.727-4.485-16.328-5.786c-3.529-0.82-5.292-1.483-4.753-5.574c0.486-3.694-2.011-5.232-5.245-3.375
	c-1.622,0.932-3.295,2.606-3.889,4.312c-0.977,2.808-2.717,3.126-5.24,3.466c-2.678,0.361-5.516,1.228-7.725,2.709
	c-1.252,0.839-1.381,3.352-2.016,5.111c1.617,0.519,3.206,1.327,4.859,1.491C205.426,92.818,208.021,92.632,210.519,92.632z"/>
<path fill="#DF2027" d="M226.507,190.787c-0.095-3.831-3.145-5.807-8.412-5.291c-12.195,1.196-23.079,5.996-33.336,12.394
	c-1.213,0.756-2.568,1.958-2.944,3.224c-0.566,1.907-1.092,4.576-0.174,5.926c0.683,1.004,3.813,0.921,5.622,0.444
	c2.704-0.713,5.205-2.197,8.515-3.675c-0.222,2.98-0.388,4.782-0.485,6.586c-0.579,10.787-1.69,21.587-1.461,32.358
	c0.103,4.84,2.349,9.927,4.769,14.262c0.816,1.462,5.28,1.525,7.837,1.017c0.851-0.169,1.49-4.172,1.268-6.323
	c-0.336-3.255-2.15-6.411-2.213-9.632c-0.223-11.282,0.081-22.573,0.066-33.861c-0.003-2.1-0.555-4.198-0.854-6.297
	c-0.272-0.456-0.544-0.912-0.816-1.368c6.086-1.436,12.136-3.06,18.271-4.234C225.525,195.674,226.583,193.839,226.507,190.787z"/>
<path fill="#DF2027" d="M379.771,137.576c6.561-1.722,13.134-3.557,19.414-6.074c1.653-0.663,2.747-3.801,3.125-5.972
	c0.133-0.761-2.723-1.946-4.085-3.091c-1.422-1.196-3.751-2.505-3.845-3.889c-0.526-7.771-0.956-15.606-0.515-23.368
	c0.363-6.388,0.313-13.604,9.115-15.534c0.969-0.212,2.193-3.186,1.83-4.461c-0.368-1.293-2.474-2.774-3.963-2.95
	c-7.494-0.884-14.685,0.719-20.907,4.881c-1.865,1.248-2.318,4.608-3.418,7.001c1.847,0.586,3.693,1.177,5.543,1.754
	c0.459,0.143,0.933,0.238,1.906,0.482c-0.458,8.958-0.984,17.567-1.309,26.185c-0.244,6.462,1.327,13.352-6.114,17.486
	c-1.077,0.598-1.206,3.907-0.798,5.745C375.949,136.672,378.595,137.884,379.771,137.576z"/>
<path fill="#DF2027" d="M327.604,137.531c4.139-0.91,4.544-2.808,3.006-10.266c-1.923-9.329-2.103-18.634,1.582-29.212
	c1.482,3.651,2.295,6.108,3.442,8.397c4.67,9.315,9.245,18.688,14.293,27.796c1.639,2.957,4.938,4.772,8.617,3.438
	c3.849-1.395,3.939-4.83,3.881-8.328c-0.299-17.887,0.411-35.606,7.952-52.353c0.789-1.752-0.268-4.336-0.469-6.534
	c-2.702,0.276-6.337-0.433-7.899,1.046c-2.746,2.6-5.296,6.328-6.015,9.962c-1.672,8.437-2.213,17.099-3.189,25.672
	c-0.207,1.822-0.317,3.654-0.472,5.482c-0.473,0.104-0.945,0.208-1.418,0.313c-1.19-1.882-2.699-3.637-3.515-5.67
	c-3.026-7.543-5.68-15.237-8.752-22.76c-2.54-6.22-7.377-6.982-11.919-2.047c-1.221,1.327-2.374,2.866-3.058,4.514
	c-5.701,13.731-6.819,28.026-4.283,42.533C320.523,136.008,323.599,138.411,327.604,137.531z"/>
<path fill="#DF2027" d="M351.577,173.216c4.519-1.718,8.944-10.347,8.311-17.228c-2.673,1.752-4.989,2.693-6.483,4.367
	c-3.139,3.519-5.936,4.562-9.987,1.173c-1.876-1.57-4.754-1.944-8.379-3.314c2.069,7.595,5.851,11.851,10.908,14.871
	C347.376,173.938,349.917,173.847,351.577,173.216z"/>
<path fill="#DF2027" d="M347.707,179.613c-4.412,0.225-8.925,2.337-12.977,4.415c-2.706,1.388-4.192,4.5-2.42,7.719
	c1.929,3.503,4.645,1.757,7.373,0.869c3.441-1.121,7.006-1.972,10.582-2.511c1.533-0.231,3.229,0.617,5.35,1.084
	c-6.195,9.472-12.186,18.042-17.521,27.002c-3.463,5.816-6.346,12.057-8.794,18.377c-2.338,6.037,0.82,9.708,7.297,9.296
	c1.312-0.083,2.643-0.347,3.9-0.738c9.084-2.828,18.2-5.006,27.899-4.366c1.882,0.124,5.507-2.586,5.566-4.096
	c0.083-2.135-1.949-5.528-3.898-6.293c-3.041-1.195-6.842-1.157-10.193-0.699c-5.011,0.684-9.91,2.185-15.674,3.529
	c0.568-2.476,0.651-4.492,1.481-6.13c2.246-4.433,4.388-9.021,7.339-12.974c5.563-7.451,11.647-14.515,17.55-21.71
	c4.343-5.294,3.447-9.598-3.173-11.022C360.981,179.985,354.238,179.279,347.707,179.613z"/>
<path fill="#DF2027" d="M40.957,214.179c-2.488,2.189-5.662,5.03-6.034,7.93c-1.193,9.317-1.265,18.78-1.714,28.19
	c-0.112,2.353-0.017,4.717-0.017,7.075c-2.371-0.942-3.955-2.165-4.802-3.776c-3.477-6.609-6.454-13.496-10.189-19.948
	c-1.679-2.9-4.386-6.549-7.196-7.139c-4.396-0.922-6.726,3.386-8.387,7.157c-0.733,1.664-1.678,3.414-1.754,5.159
	c-0.447,10.272-1.164,20.575-0.729,30.822c0.186,4.376,2.458,8.925,4.764,12.814c0.859,1.448,4.838,2.151,6.794,1.469
	c1.397-0.487,2.205-3.792,2.494-5.945c0.197-1.467-1.028-3.095-1.494-4.686c-2.605-8.883-3.319-17.841-0.305-26.93
	c3.742,6.998,7.172,14.19,11.334,20.928c2.847,4.609,6.334,9.001,10.302,12.657c1.755,1.617,6.092,2.388,8.002,1.313
	c1.796-1.011,2.663-4.952,2.685-7.614c0.109-13.109-0.539-26.231-0.185-39.328c0.131-4.843,2.529-9.588,3.367-14.468
	c0.317-1.845-0.274-4.567-1.527-5.734C45.358,213.186,42.049,213.218,40.957,214.179z"/>
<path fill="#DF2027" d="M396.474,305.306c-1.493-0.099-2.998-0.016-5.808-0.016c-1.52,0.1-4.341,0.325-7.166,0.464
	c-35.418,1.749-70.858,3.143-106.251,5.312c-44.197,2.708-88.142,7.824-131.67,16.103c-26.309,5.004-52.253,11.359-77.062,21.765
	c-3.836,1.609-5.838,3.821-4.869,7.94c0.986,4.196,4.966,5.212,10.84,2.757c20.633-8.621,42.155-14.189,63.975-18.741
	c38.487-8.029,77.394-13.212,116.572-16.032c37.855-2.725,75.766-4.67,113.66-6.835c9.305-0.531,18.64-0.532,27.957-0.877
	c3.722-0.138,5.858-2.08,5.836-5.99C402.467,307.172,400.105,305.547,396.474,305.306z"/>
<path fill="#DF2027" d="M454.924,295.627c-0.599-1.519-3.556-3.439-4.951-3.084c-5.834,1.486-8.957-0.972-11.831-5.66
	c-0.975-1.591-4.276-2.735-6.246-2.417c-1.501,0.242-2.578,3.114-3.004,3.687c0.384,7.504,0.472,13.342,1.045,19.131
	c0.479,4.844,3.525,6.445,7.714,3.98c5.299-3.119,10.469-6.515,15.358-10.235C454.352,300.006,455.471,297.017,454.924,295.627z"/>
<path fill="#DF2027" d="M406.137,179.73c-5.546,0.868-11.031,2.188-16.486,3.546c-1.538,0.383-3.193,1.212-4.271,2.338
	c-2.409,2.517-1.439,6.919,1.68,7.025c4.649,0.158,5.378,3.031,5.067,6.25c-0.987,10.229-2.225,20.441-3.734,30.604
	c-0.224,1.509-2.201,3.221-3.779,3.967c-2.931,1.385-7.37,1.545-6.559,6.014c0.832,4.583,5.289,3.549,8.662,3.788
	c0.332,0.023,0.666,0.003,1.815,0.003c0.85-0.066,2.575,0.046,4.158-0.373c3.673-0.974,7.539-1.728,10.807-3.519
	c1.818-0.997,2.594-3.896,3.839-5.937c-1.698-0.871-3.535-1.555-5.047-2.677c-1.037-0.77-2.393-2.233-2.284-3.243
	c0.785-7.268,2.013-14.487,2.896-21.746c0.875-7.198-0.491-15.177,8.116-19.281c0.935-0.446,1.464-4.259,0.654-5.217
	C410.627,180.035,407.938,179.448,406.137,179.73z"/>
<path fill="#DF2027" d="M86.805,102.732c1.387,0.051,2.795-0.933,4.219-1.383c8.724-2.756,17.59-3.779,26.533-1.364
	c8.443,2.28,10.518,7.845,5.425,15.025c-2.37,3.342-5.605,6.087-8.541,9.008c-2.859,2.844-2.105,7.423,1.69,7.498
	c4.19,0.083,5.619,2.752,7.754,5.16c3.642,4.109,7.096,8.454,11.178,12.081c3.287,2.921,7.096,6.038,11.186,7.105
	c8.052,2.1,14.256-0.116,14.271-9.609c0.007-4.272,1.044-8.579,1.96-12.794c0.313-1.443,1.401-3.379,2.616-3.851
	c5.778-2.246,11.722-4.065,16.831-5.776c3.251,6.421,5.6,11.905,8.711,16.916c2.15,3.464,5.837,3.541,9.251,1.449
	c3.533-2.165,1.992-4.898,0.876-7.835c-2.64-6.942-5.911-13.843-7.161-21.066c-1.836-10.609-2.208-21.479-3.033-32.251
	c-0.227-2.971-1.316-5.596-4.331-4.345c-6.131,2.544-13.484,3.371-16.667,10.804c-4.243,9.909-8.702,19.73-13.323,29.468
	c-1.032,2.175-2.899,4.115-4.78,5.686c-2.797,2.336-6.518,5.348-3.663,8.453c4.726,5.138,0.755,9.163,0.772,13.651
	c-0.598,0.336-1.196,0.673-1.793,1.009c-6.632-7.042-13.265-14.083-19.844-21.069c2.787-3.661,5.131-6.266,6.939-9.2
	c6.862-11.134,3.77-20.174-8.655-24.198c-12.11-3.921-24.317-3.17-36.189,1.306c-2.217,0.836-4.205,2.667-5.853,4.45
	c-0.778,0.842-1.141,3.16-0.55,3.912C83.467,102.035,85.345,102.679,86.805,102.732z M180.195,90.621
	c0.58,7.922,1.13,14.411,1.424,20.912c0.032,0.716-1.284,1.927-2.178,2.173c-3.468,0.953-7.018,1.61-11.815,2.655
	C170.677,107.009,172.525,98.349,180.195,90.621z"/>
<path fill="#DF2027" d="M134.416,256.556c-0.687,6.805,2.728,11.272,9.525,12.215c1.962,0.272,4.006,0.28,5.98,0.083
	c11.845-1.182,21.957-5.545,27.902-16.527c3.857-7.126,2.029-13.195-5.068-16.739c-3.961-1.978-8.364-3.104-12.622-4.442
	c-4.585-1.44-9.276-2.547-13.84-4.046c-4.16-1.367-5.156-4.667-2.604-7.795c2.976-3.647,6.517-7.145,10.499-9.592
	c6.881-4.228,10.043-2.144,9.991,5.764c-0.024,3.653,2.292,5.022,5.514,3.261c3.868-2.114,6.458-9.166,5.188-14.127
	c-1.213-4.742-4.588-7.205-9.978-7.285c-12.067-0.178-29.444,11.922-33.591,23.391c-2.513,6.949-0.829,11.294,5.973,14.073
	c3.502,1.431,7.305,2.125,10.97,3.156c4.934,1.388,10.008,2.418,14.755,4.282c3.937,1.546,4.554,4.969,2.707,8.733
	c-2.375,4.837-10.159,8.893-15.53,8.113c-3.039-0.442-4.85-2.044-4.896-5.251c-0.035-2.464-0.007-4.928-0.007-7.383
	C139.545,246.283,135.016,250.609,134.416,256.556z"/>
<path fill="#DF2027" d="M71.027,164.361c2.716-2.561,4.898-5.689,7.676-8.971c0.759,1.856,1.206,3.629,2.143,5.085
	c1.504,2.335,2.917,5.241,5.154,6.433c1.844,0.983,5.057,0.338,7.185-0.633c0.806-0.368,0.845-3.871,0.244-5.6
	c-2.108-6.059-4.648-11.966-7.022-17.933c-1.895-4.763-0.707-8.46,3.041-12.071c1.528-1.473,1.363-4.703,1.968-7.134
	c-2.114-0.454-4.73-1.934-6.257-1.187c-7.091,3.467-13.961,7.419-20.711,11.526c-1.343,0.817-2.23,2.991-2.554,4.687
	c-0.273,1.426,0.104,3.636,1.073,4.443c0.87,0.724,3.086,0.382,4.44-0.16c1.919-0.767,3.593-2.149,6.042-3.691
	c0.162,7.82-3.618,14.63-9.121,17.515c-4.566,2.394-8.411,1.202-10.824-3.355c-5.479-10.347-1.493-29.492,7.621-36.831
	c3.088-2.487,6.584-3.694,10.177-1.892c4.013,2.013,6.045,0.155,7.44-3.058c1.526-3.515,0.76-6.933-2.923-8.341
	c-2.471-0.945-5.593-1.038-8.241-0.54c-26.201,4.924-33.47,41.423-24.466,57.393C49.586,171.531,61.398,173.44,71.027,164.361z"/>
<path fill="#DF2027" d="M109.252,112.788c-0.259-3.215-0.328-6.513-6.244-7.105c-0.894,1.48-3.006,3.419-3.184,5.521
	c-1.124,13.332-0.827,26.634,3.08,39.585c0.657,2.177,1.621,4.69,3.273,6.008c1.428,1.14,4.48,1.653,5.991,0.866
	c1.376-0.717,2.47-3.661,2.244-5.44c-0.581-4.583-2.381-9.015-2.932-13.599C110.451,130.047,109.947,121.405,109.252,112.788z"/>
<path fill="#DF2027" d="M325.554,233.628c-1.32-4.584-4.372-8.803-5.044-13.416c-1.838-12.614-3.058-25.335-4.031-38.051
	c-0.57-7.443-2.056-8.576-8.618-4.921c-0.562,0.313-1.201,0.848-1.743,0.781c-5.094-0.626-7.865,2.756-9.758,6.413
	c-5.178,10.004-9.798,20.294-14.874,30.353c-1.166,2.311-2.941,4.613-5.021,6.102c-4.67,3.344-5.193,5.513-1.778,10.598
	c0.47,0.699,0.548,1.858,0.403,2.738c-0.507,3.068-1.191,6.107-2.114,10.67c-4.573-5.502-8.666-9.997-12.265-14.858
	c-5.283-7.133-5.123-7.236,0.673-13.712c0.883-0.987,1.693-2.058,2.415-3.169c4.576-7.041,4.846-12.882,0.878-17.993
	c-4.952-6.38-22.286-11.874-29.772-8.93c-2.026,0.797-3.283,3.547-4.893,5.4c1.781,1.158,3.418,2.807,5.371,3.377
	c5.043,1.471,10.464,1.874,15.288,3.812c5.169,2.076,6.53,6.532,3.316,10.991c-3.043,4.222-7.397,7.483-11.017,11.315
	c-1.032,1.092-2.339,2.917-2.05,4.019c0.382,1.454,2.111,2.655,3.448,3.732c1.891,1.524,4.308,2.522,5.88,4.295
	c5.821,6.566,10.89,13.88,17.2,19.911c5.625,5.376,10.415,4.831,15.049-0.671c1.741-2.067,2.34-5.379,2.762-8.227
	c2.588-17.482,0.014-15.629,18.317-20.762c3.541-0.993,4.796-0.026,6.031,3.397c1.709,4.738,4.031,9.399,6.904,13.525
	c2.066,2.966,6.088,2.698,8.358,0.274C326.169,239.235,326.178,235.795,325.554,233.628z M292.664,214.891
	c3.298-9.5,5.342-18.089,11.646-24.544c0.457,0.119,0.914,0.237,1.371,0.356c0.471,6.847,0.942,13.693,1.439,20.909
	C302.494,212.661,298.236,213.627,292.664,214.891z"/>
<path fill="#DF2027" d="M311.233,125.246c-1.365-3.191-2.89-6.346-3.895-9.654c-4.117-13.553-4.117-27.523-3.963-41.507
	c0.084-7.58-1.544-8.456-8.401-4.789c-0.566,0.303-1.233,0.788-1.777,0.703c-5.636-0.879-8.379,3.247-10.482,6.97
	c-5.209,9.222-9.892,18.754-14.484,28.306c-1.463,3.044-2.693,5.592-6.078,7.237c-4.722,2.294-4.943,5.504-1.992,9.84
	c0.677,0.996,0.568,2.708,0.424,4.048c-0.497,4.607-1.594,9.19-1.662,13.793c-0.076,5.135,3.907,7.159,8.047,4.083
	c1.725-1.281,2.786-3.964,3.338-6.208c1.106-4.497,1.462-9.177,2.526-13.688c0.418-1.77,1.552-4.227,2.965-4.757
	c5.807-2.179,11.847-3.736,17.26-5.36c3.05,6.73,5.092,12.17,7.922,17.164c1.999,3.527,6.519,4.045,9.608,1.815
	C313.86,130.882,312.435,128.055,311.233,125.246z M291.839,103.892c-3.967,0.892-7.991,1.526-12.818,2.395
	c3.233-9.13,5.831-17.562,13.376-23.995c0.358,6.481,0.772,12.96,0.999,19.446C293.421,102.465,292.511,103.741,291.839,103.892z"/>
<path fill="#DF2027" d="M105.211,259.795c-5.53-8.163-8.315-17.343-9.851-26.91c-1.288-8.024-1.962-16.146-3.19-24.181
	c-0.317-2.076-1.213-4.751-2.746-5.72c-1.07-0.677-3.699,1.037-5.594,1.779c-0.743,0.291-1.418,1.269-2.062,1.215
	c-5.783-0.49-8.078,3.96-9.797,7.838c-4.358,9.834-7.857,20.046-12.005,29.979c-1.119,2.679-2.964,5.311-5.12,7.246
	c-3.921,3.519-4.305,5.999-0.933,10.233c0.687,0.862,0.752,2.382,0.755,3.599c0.01,4.96-0.487,9.952-0.077,14.872
	c0.352,4.228,3.641,5.828,7.047,3.394c1.845-1.319,3.263-4.062,3.68-6.378c0.82-4.555,0.515-9.307,1.263-13.882
	c0.362-2.217,1.522-5.229,3.238-6.127c5.218-2.732,10.882-4.61,15.85-6.61c3.892,6.445,6.685,11.9,10.295,16.746
	c2.245,3.013,5.889,2.829,8.931,0.449C107.832,265.036,106.893,262.277,105.211,259.795z M83.145,239.982
	c-3.586,1.19-7.244,2.165-12.121,3.577c2.453-9.546,4.024-18.211,10.978-26.61c1.117,7.959,2.089,14.505,2.867,21.075
	C84.939,238.622,83.885,239.736,83.145,239.982z"/>
<path fill="#FFFFFF" d="M542.398,0c-51.654-0.143-92.918,41.075-92.905,92.8c0.014,51.785,41.174,92.597,93.53,92.739
	c49.971,0.135,91.77-41.601,92.031-91.893C635.323,41.69,594.216,0.144,542.398,0z M542.274,162.906
	c-38.735,0-70.136-31.401-70.136-70.136s31.401-70.136,70.136-70.136c38.735,0,70.136,31.401,70.136,70.136
	S581.009,162.906,542.274,162.906z"/>
</svg>
