<?xml version="1.0" encoding="utf-8"?>
<!-- Generator: Adobe Illustrator 16.0.0, SVG Export Plug-In . SVG Version: 6.00 Build 0)  -->
<!DOCTYPE svg PUBLIC "-//W3C//DTD SVG 1.1//EN" "http://www.w3.org/Graphics/SVG/1.1/DTD/svg11.dtd">
<svg version="1.1" id="Layer_1" xmlns="http://www.w3.org/2000/svg" xmlns:xlink="http://www.w3.org/1999/xlink" x="0px" y="0px"
	 width="35.43px" height="35.43px" viewBox="0 0 35.43 35.43" enable-background="new 0 0 35.43 35.43" xml:space="preserve">
<g>
	<path fill="#6ABDD5" d="M34.773,17.715c0,9.425-7.637,17.059-17.058,17.059c-9.422,0-17.06-7.634-17.06-17.059
		c0-9.419,7.638-17.059,17.06-17.059C27.137,0.656,34.773,8.296,34.773,17.715z"/>
	<g>
		<g>
			<path fill="#585A5C" d="M25.969,24.271c0,1.801-1.474,3.274-3.274,3.274H12.339c-1.802,0-3.275-1.474-3.275-3.274v-7.117
				c0-1.801,1.474-3.274,3.275-3.274h10.355c1.801,0,3.274,1.474,3.274,3.274V24.271z"/>
		</g>
		<g>
			<path fill="#585A5C" d="M26.82,18.372c1.732,0,2.218-1.067,1.077-2.373l-8.309-9.504c-1.141-1.305-3.006-1.305-4.146,0
				l-8.307,9.504c-1.14,1.305-0.655,2.373,1.078,2.373H26.82z"/>
		</g>
		<path fill="#6ABDD5" d="M20.213,28.174c0,1.49-1.207,2.696-2.697,2.696l0,0c-1.489,0-2.698-1.206-2.698-2.696V23.05
			c0-1.49,1.209-2.699,2.698-2.699l0,0c1.49,0,2.697,1.209,2.697,2.699V28.174z"/>
	</g>
</g>
</svg>
