<?xml version="1.0" encoding="utf-8"?>
<!-- Generator: Adobe Illustrator 16.0.0, SVG Export Plug-In . SVG Version: 6.00 Build 0)  -->
<!DOCTYPE svg PUBLIC "-//W3C//DTD SVG 1.1//EN" "http://www.w3.org/Graphics/SVG/1.1/DTD/svg11.dtd">
<svg version="1.1" id="Layer_1" xmlns="http://www.w3.org/2000/svg" xmlns:xlink="http://www.w3.org/1999/xlink" x="0px" y="0px"
	 width="65px" height="116px" viewBox="0 0 65 116" enable-background="new 0 0 65 116" xml:space="preserve">
<g>
	<path fill-rule="evenodd" clip-rule="evenodd" fill="#FFFFFF" d="M32.632,61.514c0,0,0.26-4.057,0.045-5.387
		c-0.406-2.543-3.567-9.386-3.297-9.759c0.141-0.194,0.884,0.154,0.957-0.073c0.162-0.502-2.043-2.605-1.975-2.978
		c0.051-0.289,1.201-0.013,1.141-0.305c-0.191-0.947-6.903-2.358-7.952-2.269c-1.186,0.102-2.076,1.261-2.076,1.261
		s-2.748,0.626-3.278,1.278c-0.574,0.715,0,2.374,0,2.374s0.781-0.747,1.525-0.747c1.06,0,4.033,0.95,4.033,0.95l-2.981,1.135
		c0,0,1.693,0.712,3.695-0.177c0.575-0.252,0.32,0.906-2.085,1.634c-0.271,0.082,0.726,0.407,1.319,0.339
		c0.879-0.1,3.253-0.796,3.253-0.796s0.945,2.095,0.968,2.845c0.062,2.191-0.937,6.256-2.341,8.438
		c-0.609,0.949-2.337,1.83-2.337,1.83s-1.1-1.105-1.491-1.455c-1.067-0.954-3.828-1.592-4.846-3.356
		c-1.116-1.934-2.043-6.379-1.965-8.572c0.047-1.309,1.124-3.747,0.982-5.017c-0.068-0.61-0.65-0.9-1.085-0.915
		c-1.083-0.033-4.134,1.287-5.354,3.322C6.356,47,4.515,55.418,4.515,55.418s-1.957,8.203-1.771,10.976
		c0.027,0.395,0.382,1.127,0.457,1.514c0.711,3.557,0.459,9.365,1.457,14.432c0.459,2.322,0.595,9.293,1.544,9.494
		c0.399,0.086,0.23-1.334,0.635-1.396c0.302-0.045,0.557,0.773,0.849,0.689c0.436-0.125,0-1.693,0.448-1.756
		c0.267-0.039,0.28,0.947,0.547,0.92c0.431-0.041,0.154-1.52,0.569-1.633c0.273-0.072,0.396,1.055,0.65,0.93
		c0.342-0.168,2.503-9.061,2.503-9.061s0.406,0.924,0.681,0.883c1.319-0.186,1.963-4.951,1.963-4.951S15.47,78.967,16.163,79
		c0.875,0.045,1.729-3.049,1.729-3.049s0.289,1.965,0.826,1.988c1.193,0.053,2.213-4.229,2.213-4.229l-0.294,6.002
		c0,0-2.427,0.814-3.176,1.215c-0.808,0.428-3.01,1.58-2.987,2.105c0.012,0.391,1.918,0.82,1.918,0.82s-1.384,1.674-1.321,1.869
		c0.077,0.242,1.663,0.387,1.663,0.387s-0.781,2.049-0.422,2.268c0.336,0.205,1.885-0.836,1.885-0.836s1.271,2.566,1.684,2.563
		c0.488-0.006,0.858-1.75,0.858-1.75s1.63,1.41,1.933,1.32c0.255-0.074,0.68-1.43,0.68-1.43s0.728,0.971,1.078,0.916
		c0.188-0.029,0.323-0.475,0.4-0.648C27.677,82.09,32.632,61.514,32.632,61.514z"/>
	<path fill-rule="evenodd" clip-rule="evenodd" fill="#FFFFFF" d="M32.534,61.514c0,0-0.259-4.057-0.045-5.387
		c0.406-2.543,3.568-9.386,3.298-9.759c-0.142-0.194-0.884,0.154-0.958-0.073c-0.16-0.502,2.043-2.605,1.977-2.978
		c-0.054-0.289-1.205-0.013-1.143-0.305c0.191-0.947,6.901-2.358,7.95-2.269c1.187,0.102,2.08,1.261,2.08,1.261
		s2.746,0.626,3.276,1.278c0.576,0.715,0,2.374,0,2.374s-0.78-0.747-1.525-0.747c-1.06,0-4.034,0.95-4.034,0.95l2.983,1.135
		c0,0-1.695,0.712-3.694-0.177c-0.576-0.252-0.321,0.906,2.085,1.634c0.267,0.082-0.731,0.407-1.323,0.339
		c-0.878-0.1-3.25-0.796-3.25-0.796s-0.944,2.095-0.968,2.845c-0.061,2.191,0.938,6.256,2.339,8.438
		c0.609,0.949,2.34,1.83,2.34,1.83s1.1-1.105,1.49-1.455c1.068-0.954,3.829-1.592,4.843-3.356c1.116-1.934,2.045-6.379,1.969-8.572
		c-0.049-1.309-1.126-3.747-0.983-5.017c0.068-0.61,0.65-0.9,1.083-0.915c1.084-0.033,4.135,1.287,5.354,3.322
		C58.81,47,60.653,55.418,60.653,55.418s1.952,8.203,1.768,10.976c-0.025,0.395-0.377,1.127-0.458,1.514
		c-0.71,3.557-0.456,9.365-1.456,14.432c-0.456,2.322-0.593,9.293-1.543,9.494c-0.397,0.086-0.228-1.334-0.633-1.396
		c-0.301-0.045-0.557,0.773-0.849,0.689c-0.436-0.125,0-1.693-0.448-1.756c-0.264-0.039-0.278,0.947-0.548,0.92
		c-0.429-0.041-0.152-1.52-0.569-1.633c-0.276-0.072-0.396,1.055-0.649,0.93c-0.344-0.168-2.504-9.061-2.504-9.061
		s-0.405,0.924-0.683,0.883c-1.316-0.186-1.961-4.951-1.961-4.951S49.696,78.967,49.003,79c-0.875,0.045-1.729-3.049-1.729-3.049
		s-0.287,1.965-0.828,1.988c-1.189,0.053-2.21-4.229-2.21-4.229l0.295,6.002c0,0,2.425,0.814,3.174,1.215
		c0.806,0.428,3.007,1.58,2.989,2.105c-0.016,0.391-1.921,0.82-1.921,0.82s1.385,1.674,1.32,1.869
		c-0.076,0.242-1.662,0.387-1.662,0.387s0.779,2.049,0.424,2.268c-0.335,0.205-1.886-0.836-1.886-0.836s-1.271,2.566-1.683,2.563
		c-0.487-0.006-0.86-1.75-0.86-1.75s-1.629,1.41-1.931,1.32c-0.254-0.074-0.68-1.43-0.68-1.43s-0.729,0.971-1.077,0.916
		c-0.188-0.029-0.325-0.475-0.401-0.648C37.491,82.09,32.534,61.514,32.534,61.514z"/>
	<path fill="#48B5CE" stroke="#FFFFFF" stroke-width="0.9027" stroke-miterlimit="10" d="M21.022,60.672l23.181,0.104
		c0,0,0.561,16.561-0.154,20.432c-1.181,6.395-7.231,9.486-11.59,9.486c-6.415,0-10.991-5.84-11.181-9.486
		C21.022,76.283,21.022,60.672,21.022,60.672z"/>
	<path fill-rule="evenodd" clip-rule="evenodd" fill="#FFFFFF" d="M16.671,87.693c-1.42,1.379-5.285,5.896-5.285,5.896l-1.068,0.203
		c0,0-1.897-0.965-2.593-1.068c-0.438-0.064-1.761,0.168-1.761,0.168l3.252,2.035c0,0-2.997,1.037-3.489,1.896
		c-0.219,0.383,0.053,1.762,0.053,1.762l1.809-0.947c0,0,0.353,2.293,0.781,2.914c0.27,0.389,1.538,1.107,1.538,1.107
		s-0.575-1.203-0.488-1.615c0.116-0.547,1.178-1.211,1.459-1.695c0.342-0.588,0.146-2.1,0.508-2.678
		c0.14-0.225,0.651-0.498,0.915-0.541c0.495-0.084,1.47,0.475,1.966,0.406c0.79-0.109,1.853-1.678,2.643-1.795
		c0.306-0.047,1.12,0.525,1.12,0.525s-0.823-1.623-1.358-1.814c-0.844-0.303-3.49,0.848-3.49,0.848l5.661-5.828l-0.983-0.779
		C17.858,86.693,16.95,87.424,16.671,87.693z"/>
	<path fill-rule="evenodd" clip-rule="evenodd" fill="#FFFFFF" d="M48.495,87.693c1.42,1.379,5.285,5.896,5.285,5.896l1.067,0.203
		c0,0,1.9-0.965,2.594-1.068c0.438-0.064,1.76,0.168,1.76,0.168l-3.253,2.035c0,0,2.996,1.037,3.491,1.896
		c0.22,0.383-0.053,1.762-0.053,1.762l-1.81-0.947c0,0-0.35,2.293-0.781,2.914c-0.268,0.389-1.536,1.107-1.536,1.107
		s0.574-1.203,0.487-1.615c-0.117-0.547-1.18-1.211-1.455-1.695c-0.345-0.588-0.15-2.1-0.512-2.678
		c-0.143-0.225-0.653-0.498-0.915-0.541c-0.493-0.084-1.469,0.475-1.964,0.406c-0.791-0.109-1.855-1.678-2.645-1.795
		c-0.305-0.047-1.117,0.525-1.117,0.525s0.821-1.623,1.355-1.814c0.843-0.303,3.491,0.848,3.491,0.848l-5.66-5.828l0.982-0.779
		C47.309,86.693,48.218,87.424,48.495,87.693z"/>
	<path fill-rule="evenodd" clip-rule="evenodd" fill="#FFFFFF" d="M21.093,98.857c-0.568-0.258-1.635-0.057-2.166,0.068
		c0.024-0.348,0.023-0.652-0.019-0.881c-0.135-0.742-1.524-2.609-1.524-2.609s-1.518,1.85-1.662,2.609
		c-0.039,0.223-0.038,0.52-0.006,0.859c-0.556-0.127-1.538-0.291-2.078-0.047c-0.508,0.234-1.184,1.459-1.168,2.018
		c0.035,1.252,1.354,2.102,1.354,2.102s-0.05-1.527,0.831-1.779c0.367-0.105,1.138,0.311,1.675,0.646
		c0.233,0.848,0.442,1.488,0.442,1.488l0.135,0.014c-0.059,0.408-0.204,1.098-0.541,1.342c-0.35,0.254-1.494-0.191-1.627,0.219
		c-0.171,0.533,1.4,0.639,1.795,1.033c0.238,0.236,0.543,1.121,0.713,1.121c0.255,0,0.62-0.951,0.882-1.221
		c0.35-0.361,1.673-0.434,1.49-0.898c-0.142-0.365-1.142-0.156-1.455-0.391c-0.261-0.191-0.347-0.701-0.371-1.105l0.202,0.021
		c0,0,0.2-0.707,0.418-1.629c0.537-0.334,1.299-0.746,1.666-0.641c0.878,0.252,0.827,1.779,0.827,1.779s1.323-0.85,1.356-2.102
		C22.278,100.316,21.603,99.092,21.093,98.857z"/>
	<path fill-rule="evenodd" clip-rule="evenodd" fill="#FFFFFF" d="M51.974,98.857c-0.57-0.258-1.636-0.057-2.169,0.068
		c0.025-0.348,0.025-0.652-0.017-0.881c-0.136-0.742-1.524-2.609-1.524-2.609s-1.519,1.85-1.66,2.609
		c-0.044,0.223-0.039,0.52-0.007,0.859c-0.557-0.127-1.539-0.291-2.078-0.047c-0.508,0.234-1.186,1.459-1.17,2.018
		c0.034,1.252,1.356,2.102,1.356,2.102s-0.05-1.527,0.829-1.779c0.369-0.105,1.14,0.311,1.676,0.646
		c0.234,0.848,0.444,1.488,0.444,1.488l0.132,0.014c-0.058,0.408-0.203,1.098-0.54,1.342c-0.349,0.254-1.494-0.191-1.626,0.219
		c-0.173,0.533,1.399,0.639,1.796,1.033c0.235,0.236,0.543,1.121,0.712,1.121c0.253,0,0.62-0.951,0.881-1.221
		c0.35-0.361,1.673-0.434,1.491-0.898c-0.142-0.365-1.143-0.156-1.456-0.391c-0.262-0.191-0.346-0.701-0.371-1.105l0.2,0.021
		c0,0,0.201-0.707,0.421-1.629c0.536-0.334,1.299-0.746,1.664-0.641c0.879,0.252,0.83,1.779,0.83,1.779s1.321-0.85,1.357-2.102
		C53.159,100.316,52.483,99.092,51.974,98.857z"/>
	<path fill-rule="evenodd" clip-rule="evenodd" fill="#FFFFFF" d="M28.551,89.576c0,0-3.983,5.994-3.595,6.758
		c0.217,0.42,1.889,0.041,1.889,0.041s-3.463,4.484-3.016,5.289c0.255,0.455,2.095-0.096,2.095-0.096s-3.023,3.605-3.56,5.049
		c-0.189,0.51-0.727,1.77-0.293,2.055c0.477,0.311,2.021-1.055,2.021-1.055s-0.48,1.947,0.006,2.201
		c0.503,0.264,1.875-1.283,1.875-1.283s-0.318,1.766,0.131,1.98c0.473,0.223,1.699-1.221,1.699-1.221s-0.028,1.521,0.374,1.666
		c0.479,0.17,1.608-1.258,1.608-1.258s0.15,1.68,0.609,1.777c0.309,0.068,0.865-0.914,0.865-0.914s0.734,3.234,1.473,2.896
		c1.561-0.709-0.238-23.217-0.238-23.217L28.551,89.576z"/>
	<path fill-rule="evenodd" clip-rule="evenodd" fill="#FFFFFF" d="M37.11,89.354c0,0,3.873,6.217,3.482,6.98
		c-0.213,0.42-1.885,0.041-1.885,0.041s3.461,4.484,3.016,5.289c-0.255,0.455-2.096-0.096-2.096-0.096s3.023,3.605,3.56,5.049
		c0.187,0.51,0.727,1.77,0.294,2.055c-0.478,0.311-2.023-1.055-2.023-1.055s0.48,1.947-0.006,2.201
		c-0.504,0.264-1.874-1.283-1.874-1.283s0.319,1.766-0.129,1.98c-0.475,0.223-1.7-1.221-1.7-1.221s0.026,1.521-0.373,1.666
		c-0.483,0.17-1.611-1.258-1.611-1.258s-0.148,1.68-0.609,1.777c-0.308,0.068-0.861-0.914-0.861-0.914s-0.735,3.234-1.477,2.896
		c-1.559-0.709-0.322-23.217-0.322-23.217L37.11,89.354z"/>
	<path fill="#FFFFFF" d="M28.061,64.057c-0.513-0.344-2.859-0.787-3.743-0.463c-0.214,0.078-0.617,0.324-0.617,0.668
		c0,0.373,0.359,0.572,0.563,0.613c0.305,0.064,0.844-0.631,1.131-0.512c0.254,0.102,0.204,1.078,0.204,1.078
		s-0.668,0.578-0.668,1.076c0,0.871,0.771,1.486,0.771,1.486s-0.257,0.857-0.514,0.924c-0.259,0.064-0.73-0.463-1.01-0.361
		c-0.322,0.121-0.466,0.648-0.429,0.875c0.07,0.375,0.543,0.498,0.771,0.563c0.735,0.213,2.324-0.154,3.027-0.461
		c0.223-0.098,0.685-0.385,0.768-0.615c0.239-0.666,0.138-3.129,0.052-4.154C28.351,64.58,28.221,64.166,28.061,64.057z"/>
	<path fill="#FFFFFF" d="M37.319,64.057c0.512-0.344,2.856-0.787,3.743-0.463c0.211,0.078,0.613,0.324,0.613,0.668
		c0,0.373-0.358,0.572-0.563,0.613c-0.303,0.064-0.84-0.631-1.129-0.512c-0.254,0.102-0.205,1.078-0.205,1.078
		s0.669,0.578,0.669,1.076c0,0.871-0.77,1.486-0.77,1.486s0.257,0.857,0.513,0.924c0.258,0.064,0.729-0.463,1.008-0.361
		c0.325,0.121,0.47,0.648,0.427,0.875c-0.068,0.375-0.54,0.498-0.767,0.563c-0.734,0.213-2.326-0.154-3.027-0.461
		c-0.226-0.098-0.686-0.385-0.771-0.615c-0.239-0.666-0.135-3.129-0.05-4.154C37.027,64.58,37.154,64.166,37.319,64.057z"/>
	<path fill="#FFFFFF" d="M44.284,72.594h-9.695V60.723h-3.742v11.871h-9.693v3.82h9.693v13.68c0,0,0.984,0.152,1.771,0.152
		c0.835,0,1.971-0.152,1.971-0.152v-13.68h9.695V72.594z"/>
	<path fill-rule="evenodd" clip-rule="evenodd" fill="#FFFFFF" d="M56.661,17.385c-2.366-4.18-7.797-2.861-7.797-2.861
		s-0.441-3.413-4.18-4.399c-3.594-0.951-6.982-0.502-9.28,0.082c0.026-0.153,0.042-0.308,0.042-0.468
		c0-1.271-0.862-2.338-2.033-2.653c0-0.336,0-0.671,0-1.008c0.152,0,0.305,0,0.457,0c0.008,0.02,0.016,0.038,0.026,0.056
		c0.141,0.281,0.513,0.383,0.799,0.223c0.109-0.062,0.188-0.147,0.233-0.257c0.005-0.018,0.016-0.025,0.035-0.03
		c0.033-0.011,0.064-0.021,0.097-0.035c0.155-0.062,0.285-0.149,0.378-0.282c0.095-0.139,0.123-0.288,0.076-0.447
		c-0.037-0.127-0.12-0.229-0.229-0.314c-0.097-0.074-0.203-0.126-0.321-0.16c-0.02-0.004-0.03-0.015-0.037-0.029
		c-0.016-0.034-0.035-0.07-0.057-0.102c-0.127-0.18-0.359-0.268-0.59-0.219c-0.189,0.039-0.32,0.148-0.397,0.311
		c-0.005,0.013-0.009,0.021-0.013,0.03c-0.046,0.007-0.438,0.003-0.457-0.004c0-0.134,0-0.913,0-1.05
		c0.004-0.001,0.008-0.006,0.01-0.006c0.034-0.015,0.069-0.027,0.104-0.043c0.215-0.113,0.323-0.341,0.261-0.561
		c-0.05-0.171-0.171-0.285-0.352-0.35c-0.017-0.008-0.026-0.016-0.033-0.031c-0.015-0.042-0.034-0.08-0.054-0.119
		c-0.075-0.138-0.182-0.25-0.335-0.324c-0.126-0.063-0.264-0.083-0.407-0.06c-0.151,0.026-0.274,0.096-0.38,0.198
		c-0.088,0.088-0.148,0.193-0.19,0.305C32.03,2.793,32.021,2.8,32.005,2.808c-0.037,0.016-0.078,0.031-0.113,0.052
		c-0.188,0.117-0.281,0.278-0.252,0.484c0.028,0.199,0.154,0.333,0.357,0.411c0.008,0.003,0.02,0.006,0.03,0.011
		c0,0.138,0,0.917,0,1.054c-0.032,0.006-0.438,0.004-0.461,0c-0.003-0.012-0.008-0.022-0.011-0.033
		c-0.109-0.238-0.392-0.37-0.662-0.303c-0.186,0.049-0.311,0.155-0.383,0.316c-0.005,0.015-0.018,0.025-0.035,0.029
		c-0.049,0.019-0.1,0.034-0.147,0.057c-0.144,0.063-0.261,0.156-0.341,0.281c-0.074,0.119-0.104,0.246-0.074,0.381
		c0.024,0.121,0.086,0.223,0.181,0.311c0.104,0.1,0.234,0.167,0.38,0.208c0.02,0.007,0.029,0.015,0.04,0.033
		c0.018,0.038,0.036,0.078,0.065,0.112c0.127,0.162,0.303,0.238,0.521,0.216c0.218-0.023,0.365-0.135,0.455-0.317
		C31.559,6.1,31.563,6.09,31.566,6.08c0.038-0.006,0.438-0.004,0.461,0c0,0.332,0,0.663,0,0.994
		c-1.197,0.298-2.083,1.376-2.083,2.665c0,0.198,0.022,0.395,0.063,0.581c-2.292-0.633-5.884-1.206-9.708-0.195
		c-3.74,0.986-4.183,4.399-4.183,4.399s-5.43-1.318-7.793,2.861c-1.392,2.458-0.399,6.204,0.679,7.849
		c1.51,2.305,5.539,5.146,6.968,6.112v5.698c0,0,10.418-2.578,16.726-2.419c5.867,0.146,16.576,2.127,16.576,2.127v-5.429
		c0,0-0.059-0.014-0.162-0.04c1.505-1.023,5.393-3.792,6.873-6.05C57.06,23.589,58.05,19.843,56.661,17.385z"/>
	<path fill="#48B5CE" d="M26.436,68.844c0,0,0.177-1.342-0.017-1.727c-0.07-0.143-0.42-0.322-0.412-0.48
		c0.007-0.129,0.313-0.246,0.378-0.357c0.218-0.385,0.034-1.762,0.034-1.762s1.113,0.074,1.179,0.375
		c0.085,0.395,0.171,3.146,0,3.453C27.443,68.625,26.436,68.844,26.436,68.844z"/>
	<path fill="#48B5CE" d="M38.941,68.844c0,0-0.175-1.342,0.018-1.727c0.071-0.143,0.419-0.322,0.411-0.48
		c-0.007-0.129-0.313-0.246-0.377-0.357c-0.217-0.385-0.034-1.762-0.034-1.762s-1.112,0.074-1.179,0.375
		c-0.086,0.395-0.173,3.146,0,3.453C37.933,68.625,38.941,68.844,38.941,68.844z"/>
	<g>
		<path fill="#FFFFFF" d="M28.877,79.529c-0.512-0.346-2.856-0.787-3.742-0.463c-0.213,0.076-0.617,0.324-0.617,0.666
			c0,0.375,0.361,0.574,0.564,0.615c0.305,0.063,0.842-0.629,1.13-0.514c0.252,0.102,0.205,1.078,0.205,1.078
			s-0.668,0.578-0.668,1.076c0,0.873,0.77,1.486,0.77,1.486s-0.257,0.859-0.512,0.926c-0.258,0.063-0.729-0.463-1.009-0.361
			c-0.325,0.121-0.468,0.646-0.428,0.871c0.069,0.377,0.54,0.5,0.77,0.566c0.734,0.213,2.324-0.156,3.025-0.463
			c0.226-0.098,0.687-0.383,0.77-0.613c0.239-0.666,0.137-3.129,0.052-4.154C29.169,80.049,29.041,79.637,28.877,79.529z"/>
		<path fill="#48B5CE" d="M27.255,84.314c0,0,0.176-1.34-0.018-1.727c-0.07-0.143-0.42-0.324-0.411-0.48
			c0.008-0.129,0.313-0.246,0.378-0.357c0.218-0.383,0.033-1.76,0.033-1.76s1.113,0.072,1.18,0.375c0.086,0.395,0.171,3.146,0,3.451
			C28.264,84.092,27.255,84.314,27.255,84.314z"/>
	</g>
	<g>
		<path fill="#FFFFFF" d="M36.575,79.529c0.513-0.346,2.857-0.787,3.744-0.463c0.21,0.076,0.613,0.324,0.613,0.666
			c0,0.375-0.359,0.574-0.563,0.615c-0.303,0.063-0.841-0.629-1.128-0.514c-0.255,0.102-0.205,1.078-0.205,1.078
			s0.668,0.578,0.668,1.076c0,0.873-0.771,1.486-0.771,1.486s0.257,0.859,0.513,0.926c0.259,0.063,0.729-0.463,1.01-0.361
			c0.322,0.121,0.469,0.646,0.426,0.871c-0.068,0.377-0.543,0.5-0.771,0.566c-0.733,0.213-2.325-0.156-3.023-0.463
			c-0.227-0.098-0.687-0.383-0.771-0.613c-0.239-0.666-0.135-3.129-0.049-4.154C36.283,80.049,36.411,79.637,36.575,79.529z"/>
		<path fill="#48B5CE" d="M38.197,84.314c0,0-0.175-1.34,0.018-1.727c0.072-0.143,0.419-0.324,0.412-0.48
			c-0.006-0.129-0.313-0.246-0.377-0.357c-0.218-0.383-0.035-1.76-0.035-1.76s-1.112,0.072-1.179,0.375
			c-0.086,0.395-0.172,3.146,0,3.451C37.189,84.092,38.197,84.314,38.197,84.314z"/>
	</g>
</g>
</svg>
