<?xml version="1.0" encoding="utf-8"?>
<!-- Generator: Adobe Illustrator 16.0.0, SVG Export Plug-In . SVG Version: 6.00 Build 0)  -->
<!DOCTYPE svg PUBLIC "-//W3C//DTD SVG 1.1//EN" "http://www.w3.org/Graphics/SVG/1.1/DTD/svg11.dtd">
<svg version="1.1" id="Layer_1" xmlns="http://www.w3.org/2000/svg" xmlns:xlink="http://www.w3.org/1999/xlink" x="0px" y="0px"
	 width="270px" height="180px" viewBox="0 0 270 180" enable-background="new 0 0 270 180" xml:space="preserve">
<g>
	<path fill="#FFFFFF" d="M87.65,45.524l-23.144-8.9c0,0,13.575-19.509,39.168-25.518c25.443-5.974,41.014-0.314,49.854,2.968
		c31.156,11.571,36.496,43.024,36.496,43.024s-11.424-39.021-54.449-35.755C111.856,23.143,87.65,45.524,87.65,45.524z"/>
	<path fill="#FFFFFF" d="M165.278,75.341l23.32,8.432c0,0-13.177,19.779-38.645,26.309c-25.318,6.486-41.002,1.144-49.9-1.959
		C68.667,97.185,62.688,65.846,62.688,65.846s12.215,38.781,55.166,34.645C141.53,98.209,165.278,75.341,165.278,75.341z"/>
	<path fill="#FFFFFF" d="M126.117,32.692c-15.273,0-27.651,12.379-27.651,27.651c0,12.871,8.793,23.687,20.697,26.77v-4.91
		c-1.45-0.028-2.613-1.207-2.613-2.664V59.287c0-1.476,1.194-2.668,2.669-2.668h13.798c1.475,0,2.67,1.192,2.67,2.668v20.252
		c0,1.457-1.166,2.636-2.614,2.664v4.91c11.904-3.083,20.698-13.898,20.698-26.77C153.771,45.071,141.39,32.692,126.117,32.692z
		 M125.803,54.28c-3.071,0-5.563-2.491-5.563-5.563c0-3.075,2.491-5.565,5.563-5.565c3.074,0,5.563,2.49,5.563,5.565
		C131.366,51.789,128.877,54.28,125.803,54.28z"/>
</g>
<g>
	<path fill="#FFFFFF" d="M19.915,158.875c0,0.89-0.163,1.699-0.489,2.429c-0.326,0.73-0.808,1.356-1.444,1.879
		c-0.636,0.522-1.42,0.924-2.352,1.203s-2.002,0.419-3.213,0.419c-0.673,0-1.278-0.052-1.816-0.155s-1.004-0.228-1.397-0.372
		c-0.394-0.146-0.701-0.28-0.924-0.404s-0.378-0.225-0.465-0.303c-0.089-0.077-0.155-0.155-0.202-0.232
		c-0.047-0.078-0.08-0.176-0.101-0.295c-0.021-0.119-0.042-0.264-0.063-0.435s-0.031-0.381-0.031-0.629
		c0-0.32,0.031-0.538,0.094-0.652c0.062-0.113,0.155-0.171,0.279-0.171s0.297,0.068,0.52,0.202c0.223,0.135,0.515,0.293,0.877,0.474
		s0.805,0.339,1.327,0.474s1.146,0.201,1.871,0.201c0.683,0,1.307-0.085,1.87-0.256c0.564-0.171,1.046-0.411,1.444-0.722
		s0.708-0.683,0.931-1.118c0.223-0.435,0.334-0.915,0.334-1.443c0-0.569-0.104-1.087-0.311-1.552
		c-0.207-0.466-0.515-0.864-0.923-1.195c-0.409-0.332-0.919-0.591-1.529-0.776c-0.611-0.187-1.314-0.279-2.111-0.279H9.731
		c-0.124,0-0.223-0.019-0.295-0.055c-0.073-0.036-0.135-0.096-0.187-0.179s-0.088-0.194-0.108-0.334
		c-0.021-0.14-0.031-0.313-0.031-0.52c0-0.196,0.01-0.362,0.031-0.497c0.021-0.134,0.057-0.245,0.108-0.334
		c0.052-0.087,0.116-0.152,0.194-0.193c0.077-0.041,0.168-0.063,0.271-0.063h2.22c0.683,0,1.307-0.077,1.87-0.232
		c0.564-0.155,1.046-0.383,1.444-0.684c0.398-0.3,0.706-0.67,0.924-1.109c0.217-0.44,0.325-0.944,0.325-1.514
		c0-0.455-0.075-0.875-0.225-1.258c-0.15-0.383-0.378-0.706-0.684-0.97c-0.305-0.264-0.683-0.469-1.133-0.613
		s-0.98-0.218-1.591-0.218c-0.663,0-1.253,0.07-1.77,0.21c-0.518,0.14-0.963,0.295-1.335,0.466
		c-0.373,0.171-0.688,0.328-0.947,0.474c-0.259,0.145-0.45,0.217-0.574,0.217c-0.073,0-0.13-0.016-0.171-0.047
		c-0.042-0.03-0.078-0.085-0.108-0.162c-0.031-0.078-0.053-0.184-0.063-0.318c-0.011-0.135-0.016-0.301-0.016-0.497
		c0-0.135,0.005-0.267,0.016-0.396c0.01-0.13,0.028-0.246,0.055-0.35c0.025-0.104,0.059-0.199,0.101-0.287
		c0.041-0.088,0.104-0.173,0.187-0.256c0.082-0.083,0.279-0.204,0.59-0.365c0.311-0.16,0.693-0.311,1.148-0.45
		s0.971-0.259,1.545-0.356c0.574-0.099,1.192-0.147,1.854-0.147c0.994,0,1.86,0.118,2.601,0.356c0.739,0.238,1.36,0.574,1.862,1.009
		s0.875,0.958,1.118,1.568s0.364,1.288,0.364,2.033c0,0.684-0.101,1.297-0.303,1.84c-0.201,0.543-0.476,1.015-0.822,1.412
		c-0.347,0.399-0.753,0.725-1.219,0.979s-0.957,0.427-1.475,0.52v0.047c0.621,0.072,1.2,0.248,1.738,0.528
		c0.538,0.279,1.004,0.639,1.397,1.078c0.394,0.44,0.704,0.947,0.932,1.521S19.915,158.213,19.915,158.875z"/>
	<path fill="#FFFFFF" d="M34.212,164.137c0,0.125-0.042,0.218-0.125,0.28c-0.083,0.062-0.196,0.108-0.341,0.14
		c-0.146,0.03-0.357,0.046-0.637,0.046c-0.27,0-0.484-0.016-0.645-0.046c-0.16-0.031-0.276-0.078-0.349-0.14
		c-0.073-0.063-0.109-0.155-0.109-0.28v-1.396c-0.61,0.651-1.291,1.159-2.041,1.521c-0.75,0.361-1.545,0.543-2.383,0.543
		c-0.735,0-1.399-0.096-1.995-0.287c-0.595-0.191-1.102-0.468-1.521-0.83c-0.42-0.362-0.745-0.808-0.979-1.336
		c-0.232-0.527-0.35-1.127-0.35-1.8c0-0.787,0.161-1.47,0.481-2.05c0.321-0.579,0.781-1.061,1.382-1.443
		c0.6-0.383,1.335-0.67,2.204-0.861s1.848-0.287,2.935-0.287h1.925v-1.087c0-0.538-0.058-1.015-0.171-1.429
		c-0.114-0.413-0.298-0.758-0.552-1.032c-0.253-0.273-0.582-0.48-0.985-0.62c-0.403-0.141-0.9-0.21-1.49-0.21
		c-0.631,0-1.198,0.075-1.7,0.225c-0.502,0.15-0.941,0.316-1.319,0.497c-0.378,0.182-0.693,0.347-0.946,0.497
		c-0.254,0.15-0.442,0.225-0.567,0.225c-0.083,0-0.155-0.021-0.217-0.062c-0.063-0.042-0.116-0.104-0.163-0.187
		s-0.08-0.188-0.101-0.318c-0.021-0.129-0.031-0.271-0.031-0.427c0-0.259,0.018-0.463,0.054-0.613
		c0.037-0.149,0.125-0.292,0.265-0.427s0.38-0.292,0.722-0.474c0.342-0.181,0.734-0.347,1.18-0.497
		c0.445-0.149,0.932-0.273,1.459-0.372c0.528-0.099,1.061-0.147,1.6-0.147c1.003,0,1.857,0.114,2.561,0.342
		c0.704,0.228,1.273,0.562,1.708,1.001s0.75,0.985,0.947,1.638c0.196,0.652,0.295,1.412,0.295,2.282V164.137z M31.666,157.757
		h-2.189c-0.703,0-1.314,0.06-1.831,0.179c-0.518,0.119-0.947,0.295-1.289,0.527c-0.342,0.233-0.593,0.513-0.753,0.839
		s-0.24,0.701-0.24,1.125c0,0.725,0.23,1.302,0.69,1.731c0.461,0.43,1.104,0.644,1.933,0.644c0.673,0,1.297-0.17,1.871-0.512
		s1.177-0.864,1.809-1.568V157.757z"/>
	<path fill="#FFFFFF" d="M57.326,163.609c0,0.301-0.072,0.525-0.218,0.676c-0.145,0.149-0.336,0.225-0.574,0.225H39.707
		c-0.249,0-0.442-0.075-0.582-0.225c-0.14-0.15-0.21-0.375-0.21-0.676V150.15c0-0.083,0.018-0.152,0.055-0.209
		c0.036-0.058,0.105-0.109,0.209-0.155c0.104-0.047,0.238-0.078,0.404-0.094c0.165-0.016,0.372-0.023,0.62-0.023
		c0.249,0,0.456,0.008,0.621,0.023c0.166,0.016,0.295,0.047,0.389,0.094c0.093,0.046,0.16,0.098,0.201,0.155
		c0.042,0.057,0.063,0.126,0.063,0.209v12.155h5.387V150.15c0-0.083,0.018-0.152,0.054-0.209c0.037-0.058,0.102-0.109,0.194-0.155
		c0.094-0.047,0.218-0.078,0.373-0.094s0.362-0.023,0.621-0.023c0.237,0,0.439,0.008,0.604,0.023
		c0.166,0.016,0.296,0.047,0.389,0.094c0.093,0.046,0.16,0.098,0.202,0.155c0.041,0.057,0.062,0.126,0.062,0.209v12.155h5.402
		V150.15c0-0.083,0.018-0.152,0.055-0.209c0.036-0.058,0.103-0.109,0.201-0.155c0.099-0.047,0.228-0.078,0.389-0.094
		c0.16-0.016,0.364-0.023,0.613-0.023c0.258,0,0.471,0.008,0.636,0.023c0.166,0.016,0.298,0.047,0.396,0.094
		c0.098,0.046,0.168,0.098,0.209,0.155c0.041,0.057,0.063,0.126,0.063,0.209V163.609z"/>
	<path fill="#FFFFFF" d="M71.856,150.911c0,0.207-0.011,0.383-0.031,0.528c-0.021,0.145-0.055,0.264-0.102,0.356
		c-0.046,0.094-0.101,0.163-0.162,0.21c-0.063,0.046-0.14,0.069-0.233,0.069h-4.191v12.047c0,0.083-0.021,0.152-0.062,0.209
		c-0.042,0.058-0.109,0.106-0.202,0.147s-0.223,0.072-0.388,0.094c-0.166,0.021-0.378,0.03-0.637,0.03
		c-0.249,0-0.456-0.01-0.621-0.03c-0.166-0.021-0.298-0.053-0.396-0.094c-0.099-0.041-0.166-0.09-0.202-0.147
		c-0.036-0.057-0.055-0.126-0.055-0.209v-12.047h-4.191c-0.083,0-0.157-0.023-0.225-0.069c-0.067-0.047-0.122-0.116-0.163-0.21
		c-0.041-0.093-0.075-0.215-0.101-0.364c-0.026-0.15-0.039-0.329-0.039-0.536c0-0.187,0.013-0.352,0.039-0.496
		c0.025-0.146,0.062-0.267,0.108-0.365s0.101-0.171,0.163-0.218c0.062-0.046,0.134-0.069,0.217-0.069h10.944
		c0.083,0,0.158,0.023,0.226,0.069c0.066,0.047,0.121,0.119,0.163,0.218c0.041,0.099,0.074,0.223,0.101,0.372
		C71.843,150.557,71.856,150.725,71.856,150.911z"/>
	<path fill="#FFFFFF" d="M86.821,164.137c0,0.073-0.021,0.141-0.063,0.202c-0.041,0.063-0.108,0.111-0.201,0.147
		c-0.094,0.036-0.223,0.064-0.389,0.086c-0.165,0.021-0.372,0.03-0.621,0.03c-0.248,0-0.455-0.01-0.621-0.03
		c-0.165-0.021-0.3-0.05-0.403-0.086s-0.176-0.085-0.217-0.147c-0.042-0.062-0.063-0.129-0.063-0.202v-8.041
		c0-0.403,0.011-0.814,0.031-1.233c0.021-0.42,0.047-0.831,0.077-1.234c-0.238,0.414-0.499,0.82-0.783,1.219
		c-0.285,0.398-0.572,0.794-0.862,1.188l-5.93,8.103c-0.072,0.083-0.137,0.155-0.194,0.218c-0.057,0.063-0.129,0.111-0.217,0.147
		s-0.199,0.063-0.334,0.078c-0.135,0.015-0.3,0.022-0.497,0.022c-0.228,0-0.414-0.01-0.559-0.03c-0.145-0.021-0.262-0.05-0.35-0.086
		s-0.149-0.085-0.186-0.147c-0.037-0.062-0.055-0.129-0.055-0.202v-14.002c0-0.072,0.018-0.14,0.055-0.201
		c0.036-0.063,0.104-0.114,0.201-0.155c0.099-0.042,0.23-0.07,0.396-0.086c0.165-0.016,0.367-0.023,0.605-0.023
		c0.496,0,0.838,0.039,1.024,0.117c0.187,0.077,0.279,0.193,0.279,0.349v8.088c0,0.403-0.011,0.805-0.031,1.203
		s-0.047,0.794-0.077,1.188c0.237-0.394,0.479-0.778,0.722-1.156s0.504-0.748,0.784-1.11l6.007-8.212
		c0.063-0.082,0.127-0.155,0.194-0.217c0.067-0.063,0.15-0.111,0.248-0.147c0.099-0.036,0.215-0.063,0.35-0.078
		s0.311-0.023,0.528-0.023c0.217,0,0.4,0.008,0.551,0.023c0.149,0.016,0.269,0.044,0.356,0.086c0.088,0.041,0.15,0.093,0.187,0.155
		c0.036,0.062,0.055,0.134,0.055,0.217V164.137z"/>
	<path fill="#FFFFFF" d="M101.351,150.911c0,0.207-0.011,0.383-0.031,0.528c-0.021,0.145-0.055,0.264-0.102,0.356
		c-0.046,0.094-0.101,0.163-0.162,0.21c-0.063,0.046-0.14,0.069-0.233,0.069h-4.191v12.047c0,0.083-0.021,0.152-0.062,0.209
		c-0.042,0.058-0.109,0.106-0.202,0.147s-0.223,0.072-0.388,0.094c-0.166,0.021-0.378,0.03-0.637,0.03
		c-0.249,0-0.456-0.01-0.621-0.03c-0.166-0.021-0.298-0.053-0.396-0.094c-0.099-0.041-0.166-0.09-0.202-0.147
		c-0.036-0.057-0.055-0.126-0.055-0.209v-12.047h-4.191c-0.083,0-0.157-0.023-0.225-0.069c-0.067-0.047-0.122-0.116-0.163-0.21
		c-0.041-0.093-0.075-0.215-0.101-0.364c-0.026-0.15-0.039-0.329-0.039-0.536c0-0.187,0.013-0.352,0.039-0.496
		c0.025-0.146,0.062-0.267,0.108-0.365s0.101-0.171,0.163-0.218c0.062-0.046,0.134-0.069,0.217-0.069h10.944
		c0.083,0,0.158,0.023,0.226,0.069c0.066,0.047,0.121,0.119,0.163,0.218c0.041,0.099,0.074,0.223,0.101,0.372
		C101.337,150.557,101.351,150.725,101.351,150.911z"/>
	<path fill="#FFFFFF" d="M116.129,164.122c0,0.083-0.021,0.152-0.063,0.209c-0.041,0.058-0.108,0.106-0.201,0.147
		c-0.094,0.041-0.223,0.072-0.389,0.094c-0.165,0.021-0.372,0.03-0.62,0.03c-0.259,0-0.472-0.01-0.637-0.03
		c-0.166-0.021-0.295-0.053-0.389-0.094c-0.093-0.041-0.16-0.09-0.201-0.147c-0.042-0.057-0.063-0.126-0.063-0.209v-6.132h-7.125
		v6.132c0,0.083-0.021,0.152-0.063,0.209c-0.041,0.058-0.108,0.106-0.201,0.147c-0.094,0.041-0.223,0.072-0.389,0.094
		c-0.165,0.021-0.378,0.03-0.636,0.03c-0.249,0-0.456-0.01-0.621-0.03c-0.166-0.021-0.298-0.053-0.396-0.094
		c-0.098-0.041-0.165-0.09-0.201-0.147c-0.037-0.057-0.055-0.126-0.055-0.209V150.15c0-0.083,0.018-0.152,0.055-0.209
		c0.036-0.058,0.104-0.109,0.201-0.155c0.099-0.047,0.23-0.078,0.396-0.094c0.165-0.016,0.372-0.023,0.621-0.023
		c0.258,0,0.471,0.008,0.636,0.023c0.166,0.016,0.295,0.047,0.389,0.094c0.093,0.046,0.16,0.098,0.201,0.155
		c0.042,0.057,0.063,0.126,0.063,0.209v5.682h7.125v-5.682c0-0.083,0.021-0.152,0.063-0.209c0.041-0.058,0.108-0.109,0.201-0.155
		c0.094-0.047,0.223-0.078,0.389-0.094c0.165-0.016,0.378-0.023,0.637-0.023c0.248,0,0.455,0.008,0.62,0.023
		c0.166,0.016,0.295,0.047,0.389,0.094c0.093,0.046,0.16,0.098,0.201,0.155c0.042,0.057,0.063,0.126,0.063,0.209V164.122z"/>
	<path fill="#FFFFFF" d="M133.313,164.137c0,0.073-0.021,0.141-0.063,0.202c-0.041,0.063-0.108,0.111-0.201,0.147
		c-0.094,0.036-0.223,0.064-0.389,0.086c-0.165,0.021-0.372,0.03-0.621,0.03c-0.248,0-0.455-0.01-0.621-0.03
		c-0.165-0.021-0.3-0.05-0.403-0.086s-0.176-0.085-0.217-0.147c-0.042-0.062-0.063-0.129-0.063-0.202v-8.041
		c0-0.403,0.011-0.814,0.031-1.233c0.021-0.42,0.047-0.831,0.077-1.234c-0.238,0.414-0.499,0.82-0.783,1.219
		c-0.285,0.398-0.572,0.794-0.862,1.188l-5.93,8.103c-0.072,0.083-0.137,0.155-0.194,0.218c-0.057,0.063-0.129,0.111-0.217,0.147
		s-0.199,0.063-0.334,0.078c-0.135,0.015-0.3,0.022-0.497,0.022c-0.228,0-0.414-0.01-0.559-0.03c-0.145-0.021-0.262-0.05-0.35-0.086
		s-0.149-0.085-0.186-0.147c-0.037-0.062-0.055-0.129-0.055-0.202v-14.002c0-0.072,0.018-0.14,0.055-0.201
		c0.036-0.063,0.104-0.114,0.201-0.155c0.099-0.042,0.23-0.07,0.396-0.086c0.165-0.016,0.367-0.023,0.605-0.023
		c0.496,0,0.838,0.039,1.024,0.117c0.187,0.077,0.279,0.193,0.279,0.349v8.088c0,0.403-0.011,0.805-0.031,1.203
		s-0.047,0.794-0.077,1.188c0.237-0.394,0.479-0.778,0.722-1.156s0.504-0.748,0.784-1.11l6.007-8.212
		c0.063-0.082,0.127-0.155,0.194-0.217c0.067-0.063,0.15-0.111,0.248-0.147c0.099-0.036,0.215-0.063,0.35-0.078
		s0.311-0.023,0.528-0.023c0.217,0,0.4,0.008,0.551,0.023c0.149,0.016,0.269,0.044,0.356,0.086c0.088,0.041,0.15,0.093,0.187,0.155
		c0.036,0.062,0.055,0.134,0.055,0.217V164.137z"/>
	<path fill="#FFFFFF" d="M149.458,164.23c0,0.062-0.019,0.116-0.055,0.163c-0.036,0.046-0.104,0.085-0.202,0.116
		c-0.098,0.031-0.228,0.055-0.388,0.07c-0.16,0.015-0.364,0.022-0.613,0.022c-0.29,0-0.525-0.01-0.706-0.03
		c-0.182-0.021-0.329-0.05-0.442-0.086c-0.114-0.036-0.197-0.083-0.248-0.14c-0.053-0.057-0.089-0.121-0.109-0.194l-1.49-3.616
		c-0.186-0.466-0.386-0.867-0.598-1.203c-0.212-0.337-0.458-0.608-0.737-0.815s-0.595-0.356-0.946-0.45
		c-0.353-0.093-0.756-0.14-1.211-0.14h-1.087v6.287c0,0.052-0.026,0.104-0.078,0.155s-0.129,0.093-0.232,0.124
		s-0.238,0.057-0.403,0.078c-0.166,0.021-0.357,0.03-0.574,0.03c-0.218,0-0.409-0.01-0.575-0.03c-0.165-0.021-0.3-0.047-0.403-0.078
		s-0.179-0.072-0.225-0.124c-0.047-0.052-0.07-0.104-0.07-0.155v-14.188c0-0.052,0.023-0.101,0.07-0.147
		c0.046-0.047,0.121-0.085,0.225-0.116s0.238-0.055,0.403-0.07c0.166-0.016,0.357-0.023,0.575-0.023
		c0.217,0,0.408,0.008,0.574,0.023c0.165,0.016,0.3,0.039,0.403,0.07s0.181,0.069,0.232,0.116s0.078,0.096,0.078,0.147v5.853h1.087
		c0.393,0,0.753-0.044,1.078-0.132c0.326-0.088,0.624-0.233,0.893-0.435c0.27-0.202,0.51-0.464,0.723-0.784
		c0.212-0.321,0.405-0.709,0.582-1.164l1.304-3.214c0.021-0.083,0.057-0.155,0.108-0.217c0.052-0.063,0.13-0.114,0.233-0.155
		c0.104-0.042,0.24-0.07,0.411-0.086s0.396-0.023,0.675-0.023c0.249,0,0.453,0.008,0.613,0.023s0.285,0.039,0.373,0.07
		s0.147,0.069,0.179,0.116c0.03,0.047,0.046,0.096,0.046,0.147c0,0.093-0.013,0.191-0.038,0.295
		c-0.026,0.104-0.065,0.223-0.117,0.357l-1.335,3.073c-0.207,0.518-0.432,0.952-0.675,1.304c-0.243,0.353-0.489,0.645-0.737,0.877
		c-0.249,0.233-0.502,0.414-0.761,0.544c-0.259,0.129-0.508,0.23-0.745,0.303v0.031c0.362,0.124,0.695,0.273,1.001,0.45
		c0.306,0.176,0.59,0.393,0.854,0.651c0.265,0.259,0.51,0.566,0.737,0.924s0.44,0.769,0.637,1.234l1.537,3.539
		c0.041,0.072,0.072,0.14,0.093,0.202c0.021,0.062,0.036,0.121,0.047,0.178c0.01,0.058,0.018,0.104,0.023,0.141
		C149.455,164.166,149.458,164.199,149.458,164.23z"/>
	<path fill="#FFFFFF" d="M168.334,150.896c0,0.207-0.013,0.383-0.038,0.528c-0.026,0.145-0.063,0.264-0.109,0.356
		c-0.046,0.094-0.099,0.161-0.155,0.202s-0.127,0.062-0.209,0.062h-5.263v12.078c0,0.083-0.021,0.152-0.063,0.209
		c-0.041,0.058-0.108,0.106-0.201,0.147c-0.094,0.041-0.223,0.072-0.389,0.094c-0.165,0.021-0.378,0.03-0.636,0.03
		c-0.249,0-0.456-0.01-0.621-0.03c-0.166-0.021-0.298-0.053-0.396-0.094c-0.098-0.041-0.165-0.09-0.201-0.147
		c-0.037-0.057-0.055-0.126-0.055-0.209v-13.459c0-0.311,0.07-0.541,0.21-0.691c0.14-0.149,0.333-0.225,0.582-0.225h7.032
		c0.082,0,0.152,0.023,0.209,0.069c0.057,0.047,0.109,0.119,0.155,0.218c0.047,0.099,0.083,0.217,0.109,0.357
		C168.321,150.531,168.334,150.699,168.334,150.896z"/>
	<path fill="#FFFFFF" d="M183.843,156.919c0,1.221-0.132,2.318-0.396,3.291c-0.265,0.973-0.652,1.798-1.165,2.476
		c-0.512,0.678-1.146,1.201-1.901,1.568c-0.755,0.367-1.619,0.551-2.592,0.551c-0.414,0-0.798-0.041-1.149-0.124
		s-0.696-0.212-1.032-0.389c-0.336-0.176-0.67-0.397-1.001-0.667s-0.684-0.585-1.056-0.947v6.985c0,0.083-0.021,0.155-0.063,0.218
		c-0.041,0.063-0.108,0.114-0.201,0.155c-0.094,0.041-0.223,0.072-0.389,0.093c-0.165,0.021-0.378,0.031-0.636,0.031
		c-0.249,0-0.456-0.011-0.621-0.031c-0.166-0.021-0.298-0.052-0.396-0.093c-0.098-0.041-0.165-0.093-0.201-0.155
		c-0.037-0.063-0.055-0.135-0.055-0.218V150.15c0-0.093,0.016-0.168,0.047-0.225s0.093-0.106,0.187-0.147
		c0.093-0.042,0.212-0.07,0.356-0.086s0.32-0.023,0.528-0.023c0.217,0,0.396,0.008,0.535,0.023s0.256,0.044,0.35,0.086
		c0.093,0.041,0.157,0.091,0.193,0.147s0.055,0.132,0.055,0.225v1.879c0.424-0.435,0.833-0.813,1.227-1.134
		c0.393-0.32,0.789-0.587,1.188-0.799c0.398-0.213,0.807-0.373,1.227-0.481c0.419-0.109,0.861-0.163,1.327-0.163
		c1.014,0,1.878,0.196,2.592,0.59c0.715,0.394,1.297,0.932,1.747,1.614c0.45,0.684,0.778,1.478,0.985,2.383
		C183.739,154.945,183.843,155.904,183.843,156.919z M181.188,157.214c0-0.714-0.055-1.405-0.164-2.072
		c-0.109-0.668-0.297-1.26-0.563-1.777s-0.622-0.932-1.069-1.242c-0.448-0.311-1.005-0.466-1.672-0.466
		c-0.333,0-0.661,0.05-0.983,0.147c-0.323,0.099-0.651,0.254-0.984,0.466s-0.682,0.491-1.047,0.838
		c-0.364,0.348-0.749,0.774-1.155,1.281v5.558c0.708,0.858,1.38,1.516,2.015,1.971c0.635,0.456,1.302,0.684,1.999,0.684
		c0.646,0,1.2-0.155,1.663-0.466c0.464-0.311,0.839-0.725,1.125-1.242s0.497-1.097,0.633-1.738
		C181.12,158.513,181.188,157.865,181.188,157.214z"/>
	<path fill="#FFFFFF" d="M198.218,164.137c0,0.125-0.042,0.218-0.125,0.28c-0.083,0.062-0.196,0.108-0.341,0.14
		c-0.146,0.03-0.357,0.046-0.637,0.046c-0.27,0-0.484-0.016-0.645-0.046c-0.16-0.031-0.276-0.078-0.349-0.14
		c-0.073-0.063-0.109-0.155-0.109-0.28v-1.396c-0.61,0.651-1.291,1.159-2.041,1.521c-0.75,0.361-1.545,0.543-2.383,0.543
		c-0.735,0-1.399-0.096-1.995-0.287c-0.595-0.191-1.102-0.468-1.521-0.83c-0.42-0.362-0.745-0.808-0.979-1.336
		c-0.232-0.527-0.35-1.127-0.35-1.8c0-0.787,0.161-1.47,0.481-2.05c0.321-0.579,0.781-1.061,1.382-1.443
		c0.6-0.383,1.335-0.67,2.204-0.861s1.848-0.287,2.935-0.287h1.925v-1.087c0-0.538-0.058-1.015-0.171-1.429
		c-0.114-0.413-0.298-0.758-0.552-1.032c-0.253-0.273-0.582-0.48-0.985-0.62c-0.403-0.141-0.9-0.21-1.49-0.21
		c-0.631,0-1.198,0.075-1.7,0.225c-0.502,0.15-0.941,0.316-1.319,0.497c-0.378,0.182-0.693,0.347-0.946,0.497
		c-0.254,0.15-0.442,0.225-0.567,0.225c-0.083,0-0.155-0.021-0.217-0.062c-0.063-0.042-0.116-0.104-0.163-0.187
		s-0.08-0.188-0.101-0.318c-0.021-0.129-0.031-0.271-0.031-0.427c0-0.259,0.018-0.463,0.054-0.613
		c0.037-0.149,0.125-0.292,0.265-0.427s0.38-0.292,0.722-0.474c0.342-0.181,0.734-0.347,1.18-0.497
		c0.445-0.149,0.932-0.273,1.459-0.372c0.528-0.099,1.061-0.147,1.6-0.147c1.003,0,1.857,0.114,2.561,0.342
		c0.704,0.228,1.273,0.562,1.708,1.001s0.75,0.985,0.947,1.638c0.196,0.652,0.295,1.412,0.295,2.282V164.137z M195.672,157.757
		h-2.189c-0.703,0-1.314,0.06-1.831,0.179c-0.518,0.119-0.947,0.295-1.289,0.527c-0.342,0.233-0.593,0.513-0.753,0.839
		s-0.24,0.701-0.24,1.125c0,0.725,0.23,1.302,0.69,1.731c0.461,0.43,1.104,0.644,1.933,0.644c0.673,0,1.297-0.17,1.871-0.512
		s1.177-0.864,1.809-1.568V157.757z"/>
	<path fill="#FFFFFF" d="M215.526,158.72c0,1.5-0.067,2.828-0.202,3.981c-0.135,1.154-0.331,2.155-0.59,3.004
		s-0.572,1.561-0.939,2.135s-0.789,1.032-1.265,1.373c-0.477,0.342-1.004,0.588-1.584,0.738c-0.579,0.149-1.2,0.225-1.862,0.225
		c-0.094,0-0.174-0.016-0.241-0.047c-0.067-0.03-0.121-0.088-0.162-0.17c-0.042-0.083-0.07-0.192-0.086-0.326
		c-0.016-0.135-0.023-0.316-0.023-0.544c0-0.238,0.008-0.435,0.023-0.59s0.039-0.276,0.07-0.364c0.03-0.088,0.074-0.147,0.132-0.179
		c0.057-0.031,0.126-0.047,0.209-0.047c0.414,0,0.8-0.041,1.157-0.124c0.356-0.083,0.678-0.238,0.962-0.466s0.541-0.549,0.769-0.962
		c0.228-0.414,0.416-0.952,0.566-1.615c0.15-0.662,0.264-1.464,0.342-2.405c0.077-0.942,0.116-2.06,0.116-3.354
		c0-1.231-0.069-2.29-0.209-3.175c-0.141-0.885-0.35-1.614-0.629-2.188s-0.621-0.993-1.024-1.258
		c-0.404-0.264-0.87-0.396-1.397-0.396c-0.673,0-1.322,0.223-1.948,0.668c-0.626,0.444-1.291,1.102-1.995,1.971v9.517
		c0,0.083-0.021,0.152-0.062,0.209c-0.042,0.058-0.108,0.106-0.202,0.147c-0.093,0.041-0.223,0.072-0.388,0.094
		c-0.166,0.021-0.378,0.03-0.637,0.03c-0.248,0-0.455-0.01-0.621-0.03c-0.165-0.021-0.298-0.053-0.396-0.094
		c-0.099-0.041-0.166-0.09-0.202-0.147c-0.036-0.057-0.054-0.126-0.054-0.209v-16.734h-2.189c-0.165,0-0.295-0.08-0.388-0.241
		c-0.094-0.16-0.14-0.416-0.14-0.769c0-0.176,0.013-0.328,0.038-0.457c0.026-0.13,0.063-0.235,0.109-0.318
		c0.046-0.083,0.101-0.143,0.163-0.179c0.062-0.036,0.134-0.055,0.217-0.055h2.189v-2.002c0-0.083,0.018-0.155,0.054-0.218
		s0.104-0.113,0.202-0.155c0.098-0.041,0.23-0.072,0.396-0.093c0.166-0.021,0.373-0.031,0.621-0.031
		c0.259,0,0.471,0.011,0.637,0.031c0.165,0.021,0.295,0.052,0.388,0.093c0.094,0.042,0.16,0.093,0.202,0.155
		c0.041,0.063,0.062,0.135,0.062,0.218v2.002h3.711c0.082,0,0.154,0.019,0.217,0.055s0.116,0.096,0.163,0.179
		s0.08,0.188,0.101,0.318c0.021,0.129,0.031,0.281,0.031,0.457c0,0.353-0.044,0.608-0.132,0.769
		c-0.088,0.161-0.215,0.241-0.38,0.241h-3.711v4.642c0.632-0.693,1.307-1.247,2.026-1.661c0.719-0.414,1.523-0.621,2.414-0.621
		c0.848,0,1.601,0.179,2.259,0.535c0.656,0.357,1.218,0.9,1.684,1.63s0.82,1.661,1.063,2.795
		C215.404,155.84,215.526,157.178,215.526,158.72z"/>
	<path fill="#FFFFFF" d="M230.631,164.137c0,0.125-0.042,0.218-0.125,0.28c-0.083,0.062-0.196,0.108-0.341,0.14
		c-0.146,0.03-0.357,0.046-0.637,0.046c-0.27,0-0.484-0.016-0.645-0.046c-0.16-0.031-0.276-0.078-0.349-0.14
		c-0.073-0.063-0.109-0.155-0.109-0.28v-1.396c-0.61,0.651-1.291,1.159-2.041,1.521c-0.75,0.361-1.545,0.543-2.383,0.543
		c-0.735,0-1.399-0.096-1.995-0.287c-0.595-0.191-1.102-0.468-1.521-0.83c-0.42-0.362-0.745-0.808-0.979-1.336
		c-0.232-0.527-0.35-1.127-0.35-1.8c0-0.787,0.161-1.47,0.481-2.05c0.321-0.579,0.781-1.061,1.382-1.443
		c0.6-0.383,1.335-0.67,2.204-0.861s1.848-0.287,2.935-0.287h1.925v-1.087c0-0.538-0.058-1.015-0.171-1.429
		c-0.114-0.413-0.298-0.758-0.552-1.032c-0.253-0.273-0.582-0.48-0.985-0.62c-0.403-0.141-0.9-0.21-1.49-0.21
		c-0.631,0-1.198,0.075-1.7,0.225c-0.502,0.15-0.941,0.316-1.319,0.497c-0.378,0.182-0.693,0.347-0.946,0.497
		c-0.254,0.15-0.442,0.225-0.567,0.225c-0.083,0-0.155-0.021-0.217-0.062c-0.063-0.042-0.116-0.104-0.163-0.187
		s-0.08-0.188-0.101-0.318c-0.021-0.129-0.031-0.271-0.031-0.427c0-0.259,0.018-0.463,0.054-0.613
		c0.037-0.149,0.125-0.292,0.265-0.427s0.38-0.292,0.722-0.474c0.342-0.181,0.734-0.347,1.18-0.497
		c0.445-0.149,0.932-0.273,1.459-0.372c0.528-0.099,1.061-0.147,1.6-0.147c1.003,0,1.857,0.114,2.561,0.342
		c0.704,0.228,1.273,0.562,1.708,1.001s0.75,0.985,0.947,1.638c0.196,0.652,0.295,1.412,0.295,2.282V164.137z M228.085,157.757
		h-2.189c-0.703,0-1.314,0.06-1.831,0.179c-0.518,0.119-0.947,0.295-1.289,0.527c-0.342,0.233-0.593,0.513-0.753,0.839
		s-0.24,0.701-0.24,1.125c0,0.725,0.23,1.302,0.69,1.731c0.461,0.43,1.104,0.644,1.933,0.644c0.673,0,1.297-0.17,1.871-0.512
		s1.177-0.864,1.809-1.568V157.757z"/>
	<path fill="#FFFFFF" d="M247.582,164.122c0,0.083-0.021,0.152-0.063,0.209c-0.041,0.058-0.108,0.106-0.201,0.147
		c-0.094,0.041-0.223,0.072-0.389,0.094c-0.165,0.021-0.372,0.03-0.62,0.03c-0.259,0-0.472-0.01-0.637-0.03
		c-0.166-0.021-0.295-0.053-0.389-0.094c-0.093-0.041-0.16-0.09-0.201-0.147c-0.042-0.057-0.063-0.126-0.063-0.209v-6.132h-7.125
		v6.132c0,0.083-0.021,0.152-0.063,0.209c-0.041,0.058-0.108,0.106-0.201,0.147c-0.094,0.041-0.223,0.072-0.389,0.094
		c-0.165,0.021-0.378,0.03-0.636,0.03c-0.249,0-0.456-0.01-0.621-0.03c-0.166-0.021-0.298-0.053-0.396-0.094
		c-0.098-0.041-0.165-0.09-0.201-0.147c-0.037-0.057-0.055-0.126-0.055-0.209V150.15c0-0.083,0.018-0.152,0.055-0.209
		c0.036-0.058,0.104-0.109,0.201-0.155c0.099-0.047,0.23-0.078,0.396-0.094c0.165-0.016,0.372-0.023,0.621-0.023
		c0.258,0,0.471,0.008,0.636,0.023c0.166,0.016,0.295,0.047,0.389,0.094c0.093,0.046,0.16,0.098,0.201,0.155
		c0.042,0.057,0.063,0.126,0.063,0.209v5.682h7.125v-5.682c0-0.083,0.021-0.152,0.063-0.209c0.041-0.058,0.108-0.109,0.201-0.155
		c0.094-0.047,0.223-0.078,0.389-0.094c0.165-0.016,0.378-0.023,0.637-0.023c0.248,0,0.455,0.008,0.62,0.023
		c0.166,0.016,0.295,0.047,0.389,0.094c0.093,0.046,0.16,0.098,0.201,0.155c0.042,0.057,0.063,0.126,0.063,0.209V164.122z"/>
	<path fill="#FFFFFF" d="M262.857,164.137c0,0.125-0.042,0.218-0.125,0.28c-0.083,0.062-0.196,0.108-0.341,0.14
		c-0.146,0.03-0.357,0.046-0.637,0.046c-0.27,0-0.484-0.016-0.645-0.046c-0.16-0.031-0.276-0.078-0.349-0.14
		c-0.073-0.063-0.109-0.155-0.109-0.28v-1.396c-0.61,0.651-1.291,1.159-2.041,1.521c-0.75,0.361-1.545,0.543-2.383,0.543
		c-0.735,0-1.399-0.096-1.995-0.287c-0.595-0.191-1.102-0.468-1.521-0.83c-0.42-0.362-0.745-0.808-0.979-1.336
		c-0.232-0.527-0.35-1.127-0.35-1.8c0-0.787,0.161-1.47,0.481-2.05c0.321-0.579,0.781-1.061,1.382-1.443
		c0.6-0.383,1.335-0.67,2.204-0.861s1.848-0.287,2.935-0.287h1.925v-1.087c0-0.538-0.058-1.015-0.171-1.429
		c-0.114-0.413-0.298-0.758-0.552-1.032c-0.253-0.273-0.582-0.48-0.985-0.62c-0.403-0.141-0.9-0.21-1.49-0.21
		c-0.631,0-1.198,0.075-1.7,0.225c-0.502,0.15-0.941,0.316-1.319,0.497c-0.378,0.182-0.693,0.347-0.946,0.497
		c-0.254,0.15-0.442,0.225-0.567,0.225c-0.083,0-0.155-0.021-0.217-0.062c-0.063-0.042-0.116-0.104-0.163-0.187
		s-0.08-0.188-0.101-0.318c-0.021-0.129-0.031-0.271-0.031-0.427c0-0.259,0.018-0.463,0.054-0.613
		c0.037-0.149,0.125-0.292,0.265-0.427s0.38-0.292,0.722-0.474c0.342-0.181,0.734-0.347,1.18-0.497
		c0.445-0.149,0.932-0.273,1.459-0.372c0.528-0.099,1.061-0.147,1.6-0.147c1.003,0,1.857,0.114,2.561,0.342
		c0.704,0.228,1.273,0.562,1.708,1.001s0.75,0.985,0.947,1.638c0.196,0.652,0.295,1.412,0.295,2.282V164.137z M260.312,157.757
		h-2.189c-0.703,0-1.314,0.06-1.831,0.179c-0.518,0.119-0.947,0.295-1.289,0.527c-0.342,0.233-0.593,0.513-0.753,0.839
		s-0.24,0.701-0.24,1.125c0,0.725,0.23,1.302,0.69,1.731c0.461,0.43,1.104,0.644,1.933,0.644c0.673,0,1.297-0.17,1.871-0.512
		s1.177-0.864,1.809-1.568V157.757z"/>
</g>
</svg>
