<?xml version="1.0" encoding="utf-8"?>
<!-- Generator: Adobe Illustrator 16.0.0, SVG Export Plug-In . SVG Version: 6.00 Build 0)  -->
<!DOCTYPE svg PUBLIC "-//W3C//DTD SVG 1.1//EN" "http://www.w3.org/Graphics/SVG/1.1/DTD/svg11.dtd">
<svg version="1.1" id="Layer_1" xmlns="http://www.w3.org/2000/svg" xmlns:xlink="http://www.w3.org/1999/xlink" x="0px" y="0px"
	 width="270px" height="115px" viewBox="0 0 270 115" enable-background="new 0 0 270 115" xml:space="preserve">
<g>
	<g>
		<path fill="#FFFFFF" d="M95.999,9.411v12.218H93.77V11.242h-4.931v10.387h-2.229V9.411H95.999z"/>
		<path fill="#FFFFFF" d="M109.16,15.393c0,4.098-2.483,6.436-5.854,6.436c-3.444,0-5.62-2.628-5.62-6.218
			c0-3.752,2.356-6.398,5.801-6.398C107.058,9.212,109.16,11.912,109.16,15.393z M100.042,15.574c0,2.483,1.251,4.459,3.391,4.459
			c2.157,0,3.371-1.993,3.371-4.55c0-2.302-1.142-4.478-3.371-4.478C101.221,11.006,100.042,13.055,100.042,15.574z"/>
		<path fill="#FFFFFF" d="M110.829,9.574c0.707-0.146,1.994-0.254,3.245-0.254c1.649,0,2.664,0.199,3.498,0.779
			c0.762,0.453,1.27,1.251,1.27,2.284c0,1.124-0.707,2.157-2.03,2.646v0.036c1.286,0.326,2.465,1.342,2.465,3.027
			c0,1.088-0.472,1.939-1.179,2.52c-0.869,0.762-2.302,1.143-4.531,1.143c-1.232,0-2.176-0.091-2.737-0.163V9.574z M113.041,14.396
			h1.142c1.541,0,2.411-0.726,2.411-1.759c0-1.142-0.87-1.668-2.284-1.668c-0.652,0-1.033,0.036-1.269,0.091V14.396z
			 M113.041,20.016c0.29,0.036,0.67,0.055,1.178,0.055c1.433,0,2.701-0.544,2.701-2.049c0-1.414-1.232-1.994-2.773-1.994h-1.105
			V20.016z"/>
		<path fill="#FFFFFF" d="M127.852,16.209h-4.604v3.589h5.148v1.831h-7.378V9.411h7.105v1.831h-4.876v3.154h4.604V16.209z"/>
		<path fill="#FFFFFF" d="M130.1,9.574c0.798-0.146,1.903-0.254,3.408-0.254c1.631,0,2.827,0.345,3.607,0.997
			c0.725,0.599,1.196,1.559,1.196,2.701c0,1.16-0.362,2.121-1.052,2.773c-0.888,0.888-2.284,1.305-3.861,1.305
			c-0.417,0-0.797-0.018-1.087-0.072v4.604H130.1V9.574z M132.312,15.267c0.271,0.072,0.634,0.09,1.087,0.09
			c1.668,0,2.684-0.815,2.684-2.247c0-1.36-0.943-2.085-2.484-2.085c-0.616,0-1.051,0.055-1.286,0.108V15.267z"/>
		<path fill="#FFFFFF" d="M146.814,16.209h-4.604v3.589h5.148v1.831h-7.378V9.411h7.105v1.831h-4.876v3.154h4.604V16.209z"/>
		<path fill="#FFFFFF" d="M151.292,9.411v4.895h5.166V9.411h2.23v12.218h-2.23v-5.384h-5.166v5.384h-2.229V9.411H151.292z"/>
		<path fill="#FFFFFF" d="M163.058,9.411v4.314c0,1.939-0.055,3.734-0.145,5.365l0.036,0.019c0.634-1.378,1.432-2.846,2.229-4.224
			l3.227-5.475h2.266v12.218h-2.066v-4.332c0-1.922,0.019-3.48,0.163-5.058h-0.036c-0.58,1.396-1.396,2.918-2.175,4.224
			l-3.082,5.166h-2.483V9.411H163.058z"/>
		<path fill="#FFFFFF" d="M175.167,9.411v5.238h0.362l3.734-5.238h2.701l-4.423,5.511c1.776,0.326,2.52,1.486,3.063,3.027
			c0.453,1.287,0.834,2.52,1.377,3.68h-2.393c-0.417-0.834-0.707-1.849-1.015-2.773c-0.489-1.486-1.143-2.556-2.883-2.556h-0.525
			v5.329h-2.193V9.411H175.167z"/>
		<path fill="#FFFFFF" d="M86.138,32.594c0.853-0.525,2.013-0.96,3.554-0.96c2.429,0,3.951,1.232,3.951,3.063
			c0,1.522-1.051,2.592-2.483,2.937v0.036c1.613,0.182,2.919,1.269,2.919,2.955c0,2.646-2.502,3.625-4.768,3.625
			c-1.196,0-2.466-0.254-3.463-0.834l0.526-1.722c0.598,0.326,1.776,0.743,2.846,0.743c1.595,0,2.502-0.762,2.502-1.922
			c0-1.559-1.56-1.957-2.9-1.957H87.86v-1.668h0.961c1.413,0,2.501-0.743,2.501-1.85c0-0.996-0.779-1.595-2.012-1.595
			c-0.943,0-1.939,0.381-2.629,0.743L86.138,32.594z"/>
		<path fill="#FFFFFF" d="M98.229,40.589l-1.052,3.462h-2.302l3.915-12.218h2.847l3.97,12.218h-2.393l-1.106-3.462H98.229z
			 M101.728,38.902l-0.96-3.009c-0.236-0.743-0.436-1.577-0.617-2.284h-0.036c-0.181,0.707-0.362,1.559-0.58,2.284l-0.942,3.009
			H101.728z"/>
		<path fill="#FFFFFF" d="M112.622,31.833v4.314c0,1.939-0.055,3.734-0.145,5.365l0.036,0.019c0.634-1.378,1.432-2.846,2.229-4.224
			l3.227-5.475h2.266v12.218h-2.066v-4.332c0-1.922,0.019-3.48,0.163-5.058h-0.036c-0.58,1.396-1.396,2.918-2.175,4.224
			l-3.082,5.166h-2.483V31.833H112.622z"/>
		<path fill="#FFFFFF" d="M124.768,31.833v4.895h5.166v-4.895h2.23v12.218h-2.23v-5.384h-5.166v5.384h-2.229V31.833H124.768z"/>
		<path fill="#FFFFFF" d="M141.139,31.325v1.088c2.592,0.163,5.185,1.686,5.185,5.511c0,3.807-2.556,5.293-5.221,5.511v1.124H139
			v-1.124c-2.61-0.182-5.167-1.632-5.167-5.438c0-3.915,2.847-5.42,5.203-5.583v-1.088H141.139z M139.018,33.954
			c-1.305,0.127-2.937,1.142-2.937,3.987c0,2.629,1.522,3.771,2.937,3.916V33.954z M141.12,41.857
			c1.378-0.127,2.937-1.16,2.937-3.934c0-2.828-1.504-3.843-2.937-3.97V41.857z"/>
		<path fill="#FFFFFF" d="M158.831,37.814c0,4.098-2.483,6.436-5.854,6.436c-3.444,0-5.62-2.628-5.62-6.218
			c0-3.752,2.356-6.398,5.801-6.398C156.729,31.634,158.831,34.334,158.831,37.814z M149.713,37.996
			c0,2.483,1.251,4.459,3.391,4.459c2.156,0,3.371-1.993,3.371-4.55c0-2.302-1.142-4.478-3.371-4.478
			C150.892,33.428,149.713,35.477,149.713,37.996z"/>
		<path fill="#FFFFFF" d="M160.5,31.996c0.798-0.146,1.903-0.254,3.408-0.254c1.631,0,2.827,0.345,3.607,0.997
			c0.725,0.599,1.196,1.559,1.196,2.701c0,1.16-0.362,2.121-1.052,2.773c-0.888,0.888-2.284,1.305-3.861,1.305
			c-0.417,0-0.797-0.018-1.087-0.072v4.604H160.5V31.996z M162.712,37.688c0.271,0.072,0.634,0.09,1.087,0.09
			c1.668,0,2.684-0.815,2.684-2.247c0-1.36-0.943-2.085-2.484-2.085c-0.616,0-1.051,0.055-1.286,0.108V37.688z"/>
		<path fill="#FFFFFF" d="M180.404,39.065c-0.072-1.577-0.163-3.48-0.145-5.13h-0.055c-0.399,1.486-0.906,3.136-1.45,4.677
			l-1.776,5.294h-1.723l-1.631-5.221c-0.472-1.56-0.906-3.228-1.233-4.75h-0.036c-0.054,1.596-0.127,3.535-0.217,5.203l-0.272,4.912
			h-2.085l0.816-12.218h2.937l1.595,4.912c0.436,1.433,0.816,2.883,1.124,4.242h0.055c0.326-1.323,0.743-2.828,1.215-4.26
			l1.686-4.895h2.9l0.707,12.218h-2.176L180.404,39.065z"/>
		<path fill="#FFFFFF" d="M187.186,40.589l-1.052,3.462h-2.302l3.915-12.218h2.847l3.97,12.218h-2.393l-1.106-3.462H187.186z
			 M190.684,38.902l-0.96-3.009c-0.236-0.743-0.436-1.577-0.616-2.284h-0.037c-0.181,0.707-0.362,1.559-0.58,2.284l-0.942,3.009
			H190.684z"/>
		<path fill="#FFFFFF" d="M198.243,31.833V42.22h4.876V31.833h2.23v10.441l1.16,0.055l-0.127,4.749h-1.723l-0.127-3.027h-8.52
			V31.833H198.243z"/>
		<path fill="#FFFFFF" d="M210.063,31.833v4.314c0,1.939-0.055,3.734-0.145,5.365l0.036,0.019c0.634-1.378,1.432-2.846,2.229-4.224
			l3.227-5.475h2.266v12.218h-2.066v-4.332c0-1.922,0.019-3.48,0.163-5.058h-0.036c-0.58,1.396-1.396,2.918-2.175,4.224
			l-3.082,5.166h-2.483V31.833H210.063z"/>
		<path fill="#FFFFFF" d="M222.407,31.833h2.229v7.922c0,3.371-1.631,4.495-4.061,4.495c-0.616,0-1.396-0.108-1.866-0.29
			l0.271-1.794c0.362,0.108,0.852,0.217,1.378,0.217c1.269,0,2.048-0.58,2.048-2.701V31.833z"/>
		<path fill="#FFFFFF" d="M233.665,38.631h-4.604v3.589h5.148v1.831h-7.378V31.833h7.105v1.831h-4.876v3.154h4.604V38.631z"/>
		<path fill="#FFFFFF" d="M97.449,60.236c0,4.098-2.483,6.436-5.854,6.436c-3.444,0-5.62-2.628-5.62-6.218
			c0-3.752,2.356-6.398,5.801-6.398C95.347,54.056,97.449,56.756,97.449,60.236z M88.331,60.418c0,2.483,1.251,4.459,3.391,4.459
			c2.157,0,3.371-1.993,3.371-4.55c0-2.302-1.142-4.478-3.371-4.478C89.51,55.85,88.331,57.898,88.331,60.418z"/>
		<path fill="#FFFFFF" d="M107.783,54.255v10.441l1.16,0.055l-0.127,4.749h-1.704l-0.127-3.027h-7.414L99.444,69.5H97.74
			l-0.108-4.749l0.979-0.055c0.472-0.853,0.906-1.74,1.179-2.701c0.381-1.305,0.525-2.792,0.525-4.55v-3.19H107.783z
			 M102.381,58.007c0,1.668-0.182,3.173-0.58,4.46c-0.235,0.797-0.58,1.577-0.906,2.175h4.659v-8.556h-3.173V58.007z"/>
		<path fill="#FFFFFF" d="M116.375,54.255h2.23v7.922c0,3.371-1.632,4.495-4.061,4.495c-0.617,0-1.396-0.108-1.867-0.29l0.271-1.794
			c0.362,0.108,0.852,0.217,1.378,0.217c1.269,0,2.048-0.58,2.048-2.701V54.255z"/>
		<path fill="#FFFFFF" d="M123.102,63.011l-1.052,3.462h-2.302l3.915-12.218h2.847l3.97,12.218h-2.393l-1.106-3.462H123.102z
			 M126.6,61.324l-0.96-3.009c-0.236-0.743-0.436-1.577-0.616-2.284h-0.037c-0.181,0.707-0.362,1.559-0.58,2.284l-0.942,3.009H126.6
			z"/>
		<path fill="#FFFFFF" d="M131.931,54.418c0.707-0.146,1.994-0.254,3.245-0.254c1.649,0,2.664,0.199,3.498,0.779
			c0.762,0.453,1.27,1.251,1.27,2.284c0,1.124-0.707,2.157-2.03,2.646v0.036c1.286,0.326,2.465,1.342,2.465,3.027
			c0,1.088-0.472,1.939-1.179,2.52c-0.869,0.762-2.302,1.143-4.531,1.143c-1.232,0-2.176-0.091-2.737-0.163V54.418z M134.143,59.24
			h1.142c1.541,0,2.411-0.726,2.411-1.759c0-1.142-0.87-1.668-2.284-1.668c-0.652,0-1.033,0.036-1.269,0.091V59.24z M134.143,64.859
			c0.29,0.036,0.67,0.055,1.178,0.055c1.433,0,2.701-0.544,2.701-2.049c0-1.414-1.232-1.994-2.773-1.994h-1.105V64.859z"/>
		<path fill="#FFFFFF" d="M144.349,54.255v4.895h5.166v-4.895h2.23v12.218h-2.23v-5.384h-5.166v5.384h-2.229V54.255H144.349z"/>
		<path fill="#FFFFFF" d="M164.888,60.236c0,4.098-2.483,6.436-5.854,6.436c-3.444,0-5.62-2.628-5.62-6.218
			c0-3.752,2.356-6.398,5.801-6.398C162.785,54.056,164.888,56.756,164.888,60.236z M155.77,60.418c0,2.483,1.251,4.459,3.391,4.459
			c2.156,0,3.371-1.993,3.371-4.55c0-2.302-1.142-4.478-3.371-4.478C156.948,55.85,155.77,57.898,155.77,60.418z"/>
		<path fill="#FFFFFF" d="M173.535,54.255v1.831h-4.749v10.387h-2.229V54.255H173.535z"/>
		<path fill="#FFFFFF" d="M177.74,55.016c0.853-0.525,2.013-0.96,3.554-0.96c2.429,0,3.951,1.232,3.951,3.063
			c0,1.522-1.051,2.592-2.483,2.937v0.036c1.613,0.182,2.919,1.269,2.919,2.955c0,2.646-2.502,3.625-4.768,3.625
			c-1.196,0-2.466-0.254-3.463-0.834l0.526-1.722c0.598,0.326,1.776,0.743,2.846,0.743c1.595,0,2.502-0.762,2.502-1.922
			c0-1.559-1.56-1.957-2.9-1.957h-0.961v-1.668h0.961c1.413,0,2.501-0.743,2.501-1.85c0-0.996-0.779-1.595-2.012-1.595
			c-0.942,0-1.939,0.381-2.629,0.743L177.74,55.016z"/>
		<path fill="#FFFFFF" d="M189.614,54.255v4.895h5.166v-4.895h2.23v12.218h-2.23v-5.384h-5.166v5.384h-2.229V54.255H189.614z"/>
		<path fill="#FFFFFF" d="M201.761,63.011l-1.052,3.462h-2.302l3.915-12.218h2.847l3.97,12.218h-2.393l-1.106-3.462H201.761z
			 M205.259,61.324l-0.96-3.009c-0.236-0.743-0.436-1.577-0.617-2.284h-0.036c-0.181,0.707-0.362,1.559-0.58,2.284l-0.942,3.009
			H205.259z"/>
		<path fill="#FFFFFF" d="M212.71,54.255v3.68c0,1.522,0.798,2.32,2.284,2.32c0.725,0,1.504-0.235,2.066-0.562v-5.438h2.229v12.218
			h-2.212V61.36h-0.054c-0.87,0.472-1.776,0.689-2.828,0.689c-1.939,0-3.716-0.961-3.716-3.734v-4.061H212.71z"/>
		<path fill="#FFFFFF" d="M224.06,63.011l-1.052,3.462h-2.302l3.915-12.218h2.847l3.97,12.218h-2.393l-1.106-3.462H224.06z
			 M227.558,61.324l-0.96-3.009c-0.236-0.743-0.436-1.577-0.617-2.284h-0.036c-0.181,0.707-0.362,1.559-0.58,2.284l-0.942,3.009
			H227.558z"/>
		<path fill="#FFFFFF" d="M235.588,54.255h2.23v7.922c0,3.371-1.632,4.495-4.061,4.495c-0.617,0-1.396-0.108-1.867-0.29l0.271-1.794
			c0.362,0.108,0.852,0.217,1.378,0.217c1.269,0,2.048-0.58,2.048-2.701V54.255z"/>
		<path fill="#FFFFFF" d="M242.314,63.011l-1.052,3.462h-2.302l3.915-12.218h2.847l3.97,12.218H247.3l-1.106-3.462H242.314z
			 M245.813,61.324l-0.96-3.009c-0.236-0.743-0.436-1.577-0.616-2.284h-0.037c-0.181,0.707-0.362,1.559-0.58,2.284l-0.942,3.009
			H245.813z"/>
		<path fill="#FFFFFF" d="M88.676,76.677v4.314c0,1.939-0.055,3.734-0.145,5.365l0.036,0.019c0.634-1.378,1.432-2.846,2.229-4.224
			l3.227-5.475h2.266v12.218h-2.066v-4.332c0-1.922,0.019-3.48,0.163-5.058H94.35c-0.58,1.396-1.396,2.918-2.175,4.224l-3.082,5.166
			h-2.483V76.677H88.676z"/>
		<path fill="#FFFFFF" d="M101.618,77.438c0.853-0.525,2.013-0.96,3.554-0.96c2.429,0,3.951,1.232,3.951,3.063
			c0,1.522-1.051,2.592-2.483,2.937v0.036c1.613,0.182,2.919,1.269,2.919,2.955c0,2.646-2.502,3.625-4.768,3.625
			c-1.196,0-2.466-0.254-3.463-0.834l0.526-1.722c0.598,0.326,1.776,0.743,2.846,0.743c1.595,0,2.502-0.762,2.502-1.922
			c0-1.559-1.56-1.957-2.9-1.957h-0.961v-1.668h0.961c1.413,0,2.501-0.743,2.501-1.85c0-0.996-0.779-1.595-2.012-1.595
			c-0.943,0-1.939,0.381-2.629,0.743L101.618,77.438z"/>
		<path fill="#FFFFFF" d="M113.71,85.433l-1.052,3.462h-2.302l3.915-12.218h2.847l3.97,12.218h-2.393l-1.106-3.462H113.71z
			 M117.208,83.746l-0.96-3.009c-0.236-0.743-0.436-1.577-0.617-2.284h-0.036c-0.181,0.707-0.362,1.559-0.58,2.284l-0.942,3.009
			H117.208z"/>
		<path fill="#FFFFFF" d="M124.713,76.677v10.387h3.444V76.677h2.193v10.387h3.444V76.677h2.193v12.218h-13.45V76.677H124.713z"/>
		<path fill="#FFFFFF" d="M140.648,78.544h-3.48v-1.867h9.228v1.867h-3.517v10.351h-2.23V78.544z"/>
		<path fill="#FFFFFF" d="M149.641,76.677v4.314c0,1.939-0.055,3.734-0.145,5.365l0.036,0.019c0.634-1.378,1.432-2.846,2.229-4.224
			l3.227-5.475h2.266v12.218h-2.066v-4.332c0-1.922,0.019-3.48,0.163-5.058h-0.036c-0.58,1.396-1.396,2.918-2.175,4.224
			l-3.082,5.166h-2.483V76.677H149.641z"/>
		<path fill="#FFFFFF" d="M161.895,78.544h-3.48v-1.867h9.228v1.867h-3.517v10.351h-2.23V78.544z"/>
		<path fill="#FFFFFF" d="M170.688,76.677l2.066,4.713c0.326,0.798,0.58,1.522,0.87,2.248h0.055
			c0.181-0.563,0.398-1.342,0.688-2.303l1.596-4.658h2.356l-2.411,6.091c-0.707,1.776-1.486,3.625-2.356,4.768
			c-0.798,0.997-1.759,1.559-3.046,1.559c-0.525,0-0.852-0.055-1.142-0.163l0.181-1.795c0.182,0.055,0.417,0.073,0.762,0.073
			c1.033,0,1.686-0.87,1.994-1.56c0.108-0.254,0.072-0.417-0.055-0.652l-4.078-8.32H170.688z"/>
		<path fill="#FFFFFF" d="M192.15,76.677v12.218h-2.229V78.508h-4.931v10.387h-2.229V76.677H192.15z"/>
		<path fill="#FFFFFF" d="M205.312,82.658c0,4.098-2.483,6.436-5.854,6.436c-3.444,0-5.62-2.628-5.62-6.218
			c0-3.752,2.356-6.398,5.801-6.398C203.209,76.478,205.312,79.178,205.312,82.658z M196.193,82.84c0,2.483,1.251,4.459,3.391,4.459
			c2.156,0,3.371-1.993,3.371-4.55c0-2.302-1.142-4.478-3.371-4.478C197.372,78.271,196.193,80.32,196.193,82.84z"/>
		<path fill="#FFFFFF" d="M215.646,76.677v10.441l1.16,0.055l-0.127,4.749h-1.704l-0.127-3.027h-7.414l-0.127,3.027h-1.704
			l-0.108-4.749l0.979-0.055c0.472-0.853,0.906-1.74,1.179-2.701c0.38-1.305,0.525-2.792,0.525-4.55v-3.19H215.646z M210.243,80.429
			c0,1.668-0.181,3.173-0.58,4.46c-0.235,0.797-0.58,1.577-0.906,2.175h4.659v-8.556h-3.173V80.429z"/>
		<path fill="#FFFFFF" d="M220.866,85.433l-1.052,3.462h-2.302l3.915-12.218h2.847l3.97,12.218h-2.393l-1.106-3.462H220.866z
			 M224.364,83.746l-0.96-3.009c-0.236-0.743-0.436-1.577-0.617-2.284h-0.036c-0.181,0.707-0.362,1.559-0.58,2.284l-0.942,3.009
			H224.364z"/>
		<path fill="#FFFFFF" d="M231.02,78.544h-3.48v-1.867h9.227v1.867h-3.517v10.351h-2.229V78.544z"/>
		<path fill="#FFFFFF" d="M238.978,85.433l-1.052,3.462h-2.302l3.915-12.218h2.847l3.97,12.218h-2.393l-1.106-3.462H238.978z
			 M242.476,83.746l-0.96-3.009c-0.236-0.743-0.436-1.577-0.617-2.284h-0.036c-0.181,0.707-0.362,1.559-0.58,2.284l-0.942,3.009
			H242.476z"/>
		<path fill="#FFFFFF" d="M249.999,76.677v5.238h0.362l3.734-5.238h2.701l-4.423,5.511c1.776,0.326,2.52,1.486,3.063,3.027
			c0.453,1.287,0.834,2.52,1.377,3.68h-2.393c-0.417-0.834-0.707-1.849-1.015-2.773c-0.489-1.486-1.143-2.556-2.883-2.556h-0.525
			v5.329h-2.193V76.677H249.999z"/>
		<path fill="#FFFFFF" d="M260.622,85.433l-1.052,3.462h-2.302l3.915-12.218h2.847L268,88.895h-2.393l-1.106-3.462H260.622z
			 M264.12,83.746l-0.96-3.009c-0.236-0.743-0.436-1.577-0.617-2.284h-0.036c-0.181,0.707-0.362,1.559-0.58,2.284l-0.942,3.009
			H264.12z"/>
		<path fill="#FFFFFF" d="M97.449,105.08c0,4.098-2.483,6.436-5.854,6.436c-3.444,0-5.62-2.628-5.62-6.218
			c0-3.752,2.356-6.398,5.801-6.398C95.347,98.899,97.449,101.6,97.449,105.08z M88.331,105.262c0,2.483,1.251,4.459,3.391,4.459
			c2.157,0,3.371-1.993,3.371-4.55c0-2.302-1.142-4.478-3.371-4.478C89.51,100.693,88.331,102.742,88.331,105.262z"/>
		<path fill="#FFFFFF" d="M111.317,99.099v12.218h-2.229V100.93h-3.336v3.263c0,2.937-0.271,5.583-2.066,6.688
			c-0.525,0.327-1.323,0.599-2.175,0.599l-0.272-1.795c0.544-0.09,1.033-0.344,1.342-0.652c0.852-0.852,0.979-2.773,0.979-4.677
			v-5.257H111.317z"/>
		<path fill="#FFFFFF" d="M115.705,99.099v4.314c0,1.939-0.055,3.734-0.145,5.365l0.036,0.019c0.634-1.378,1.432-2.846,2.229-4.224
			l3.227-5.475h2.266v12.218h-2.066v-4.332c0-1.922,0.019-3.48,0.163-5.058h-0.036c-0.58,1.396-1.396,2.918-2.175,4.224
			l-3.082,5.166h-2.483V99.099H115.705z"/>
		<path fill="#FFFFFF" d="M127.634,99.099v3.68c0,1.522,0.798,2.32,2.284,2.32c0.725,0,1.504-0.235,2.066-0.562v-5.438h2.229v12.218
			h-2.212v-5.112h-0.054c-0.87,0.472-1.776,0.689-2.828,0.689c-1.939,0-3.716-0.961-3.716-3.734v-4.061H127.634z"/>
		<path fill="#FFFFFF" d="M138.766,99.099v4.895h5.166v-4.895h2.23v12.218h-2.23v-5.384h-5.166v5.384h-2.229V99.099H138.766z"/>
		<path fill="#FFFFFF" d="M159.305,105.08c0,4.098-2.483,6.436-5.854,6.436c-3.444,0-5.62-2.628-5.62-6.218
			c0-3.752,2.356-6.398,5.801-6.398C157.202,98.899,159.305,101.6,159.305,105.08z M150.187,105.262
			c0,2.483,1.251,4.459,3.391,4.459c2.157,0,3.371-1.993,3.371-4.55c0-2.302-1.142-4.478-3.371-4.478
			C151.365,100.693,150.187,102.742,150.187,105.262z"/>
		<path fill="#FFFFFF" d="M169.729,110.954c-0.526,0.271-1.687,0.544-3.154,0.544c-3.88,0-6.236-2.43-6.236-6.146
			c0-4.024,2.792-6.453,6.526-6.453c1.468,0,2.52,0.308,2.973,0.544l-0.489,1.776c-0.58-0.254-1.378-0.472-2.393-0.472
			c-2.483,0-4.278,1.559-4.278,4.496c0,2.683,1.577,4.404,4.26,4.404c0.906,0,1.849-0.181,2.429-0.453L169.729,110.954z"/>
		<path fill="#FFFFFF" d="M174.188,100.966h-3.48v-1.867h9.228v1.867h-3.517v10.351h-2.23V100.966z"/>
		<path fill="#FFFFFF" d="M183.18,99.099v4.314c0,1.939-0.055,3.734-0.145,5.365l0.036,0.019c0.634-1.378,1.432-2.846,2.229-4.224
			l3.227-5.475h2.266v12.218h-2.066v-4.332c0-1.922,0.019-3.48,0.163-5.058h-0.036c-0.58,1.396-1.396,2.918-2.175,4.224
			l-3.082,5.166h-2.483V99.099H183.18z"/>
	</g>
	<g>
		<path fill-rule="evenodd" clip-rule="evenodd" fill="#FFFFFF" d="M32.563,60.995c0,0,0.26-4.058,0.045-5.388
			c-0.406-2.543-3.567-9.386-3.297-9.759c0.141-0.194,0.884,0.154,0.957-0.073c0.162-0.502-2.043-2.605-1.975-2.978
			c0.051-0.289,1.201-0.013,1.141-0.305c-0.191-0.947-6.903-2.358-7.952-2.269c-1.186,0.102-2.076,1.261-2.076,1.261
			s-2.748,0.626-3.278,1.278c-0.574,0.715,0,2.374,0,2.374s0.781-0.747,1.525-0.747c1.06,0,4.033,0.95,4.033,0.95l-2.981,1.135
			c0,0,1.693,0.712,3.695-0.177c0.575-0.252,0.32,0.906-2.085,1.634c-0.271,0.082,0.726,0.407,1.319,0.339
			c0.879-0.1,3.253-0.796,3.253-0.796s0.945,2.095,0.968,2.845c0.062,2.191-0.937,6.256-2.341,8.438
			c-0.609,0.949-2.337,1.83-2.337,1.83s-1.1-1.106-1.491-1.455c-1.067-0.954-3.828-1.593-4.846-3.356
			c-1.116-1.934-2.043-6.379-1.965-8.572c0.047-1.309,1.124-3.747,0.982-5.017c-0.068-0.61-0.65-0.9-1.085-0.915
			c-1.083-0.033-4.134,1.287-5.354,3.322C6.287,46.48,4.445,54.899,4.445,54.899s-1.957,8.202-1.771,10.977
			c0.027,0.394,0.382,1.126,0.457,1.513c0.711,3.557,0.459,9.365,1.457,14.433c0.459,2.321,0.595,9.292,1.544,9.493
			c0.399,0.086,0.23-1.334,0.635-1.396c0.302-0.045,0.557,0.773,0.849,0.689c0.436-0.124,0-1.693,0.448-1.756
			c0.267-0.039,0.28,0.948,0.547,0.921c0.431-0.042,0.154-1.521,0.569-1.634c0.273-0.072,0.396,1.055,0.65,0.93
			c0.342-0.167,2.503-9.061,2.503-9.061s0.406,0.924,0.681,0.884c1.319-0.186,1.963-4.951,1.963-4.951s0.424,2.507,1.117,2.541
			c0.875,0.044,1.729-3.049,1.729-3.049s0.289,1.964,0.826,1.988c1.193,0.053,2.213-4.229,2.213-4.229l-0.294,6.001
			c0,0-2.427,0.814-3.176,1.215c-0.808,0.429-3.01,1.58-2.987,2.105c0.012,0.391,1.918,0.821,1.918,0.821s-1.384,1.674-1.321,1.868
			c0.077,0.242,1.663,0.387,1.663,0.387s-0.781,2.05-0.422,2.268c0.336,0.205,1.885-0.835,1.885-0.835s1.271,2.565,1.684,2.562
			c0.488-0.005,0.858-1.75,0.858-1.75s1.63,1.41,1.933,1.32c0.255-0.073,0.68-1.429,0.68-1.429s0.728,0.971,1.078,0.916
			c0.188-0.029,0.323-0.476,0.4-0.648C27.607,81.57,32.563,60.995,32.563,60.995z"/>
		<path fill-rule="evenodd" clip-rule="evenodd" fill="#FFFFFF" d="M32.465,60.995c0,0-0.259-4.058-0.045-5.388
			c0.406-2.543,3.568-9.386,3.298-9.759c-0.142-0.194-0.884,0.154-0.958-0.073c-0.16-0.502,2.043-2.605,1.977-2.978
			c-0.054-0.289-1.205-0.013-1.143-0.305c0.191-0.947,6.901-2.358,7.95-2.269c1.187,0.102,2.08,1.261,2.08,1.261
			s2.746,0.626,3.276,1.278c0.576,0.715,0,2.374,0,2.374s-0.78-0.747-1.525-0.747c-1.06,0-4.034,0.95-4.034,0.95l2.983,1.135
			c0,0-1.695,0.712-3.694-0.177c-0.576-0.252-0.321,0.906,2.085,1.634c0.267,0.082-0.731,0.407-1.323,0.339
			c-0.878-0.1-3.25-0.796-3.25-0.796s-0.944,2.095-0.968,2.845c-0.061,2.191,0.938,6.256,2.339,8.438
			c0.609,0.949,2.34,1.83,2.34,1.83s1.1-1.106,1.49-1.455c1.068-0.954,3.829-1.593,4.843-3.356c1.116-1.934,2.045-6.379,1.969-8.572
			c-0.049-1.309-1.126-3.747-0.983-5.017c0.068-0.61,0.65-0.9,1.083-0.915c1.084-0.033,4.135,1.287,5.354,3.322
			c1.133,1.885,2.977,10.304,2.977,10.304s1.952,8.202,1.768,10.977c-0.025,0.394-0.377,1.126-0.458,1.513
			c-0.71,3.557-0.456,9.365-1.456,14.433c-0.456,2.321-0.593,9.292-1.543,9.493c-0.397,0.086-0.228-1.334-0.633-1.396
			c-0.301-0.045-0.557,0.773-0.849,0.689c-0.436-0.124,0-1.693-0.448-1.756c-0.264-0.039-0.278,0.948-0.548,0.921
			c-0.429-0.042-0.152-1.521-0.569-1.634c-0.276-0.072-0.396,1.055-0.649,0.93c-0.344-0.167-2.504-9.061-2.504-9.061
			s-0.405,0.924-0.683,0.884c-1.316-0.186-1.961-4.951-1.961-4.951s-0.424,2.507-1.117,2.541c-0.875,0.044-1.729-3.049-1.729-3.049
			s-0.287,1.964-0.828,1.988c-1.189,0.053-2.21-4.229-2.21-4.229l0.295,6.001c0,0,2.425,0.814,3.174,1.215
			c0.806,0.429,3.007,1.58,2.989,2.105c-0.016,0.391-1.921,0.821-1.921,0.821s1.385,1.674,1.32,1.868
			c-0.076,0.242-1.662,0.387-1.662,0.387s0.779,2.05,0.424,2.268c-0.335,0.205-1.886-0.835-1.886-0.835s-1.271,2.565-1.683,2.562
			c-0.487-0.005-0.86-1.75-0.86-1.75s-1.629,1.41-1.931,1.32c-0.254-0.073-0.68-1.429-0.68-1.429s-0.729,0.971-1.077,0.916
			c-0.188-0.029-0.325-0.476-0.401-0.648C37.422,81.57,32.465,60.995,32.465,60.995z"/>
		<path fill="#48B5CE" stroke="#FFFFFF" stroke-width="0.9027" stroke-miterlimit="10" d="M20.953,60.152l23.181,0.104
			c0,0,0.561,16.56-0.154,20.432c-1.181,6.394-7.231,9.485-11.59,9.485c-6.415,0-10.991-5.839-11.181-9.485
			C20.953,75.764,20.953,60.152,20.953,60.152z"/>
		<path fill-rule="evenodd" clip-rule="evenodd" fill="#FFFFFF" d="M16.602,87.174c-1.42,1.379-5.285,5.897-5.285,5.897
			l-1.068,0.203c0,0-1.897-0.965-2.593-1.069c-0.438-0.064-1.761,0.168-1.761,0.168l3.252,2.036c0,0-2.997,1.036-3.489,1.896
			c-0.219,0.382,0.053,1.761,0.053,1.761l1.809-0.947c0,0,0.353,2.293,0.781,2.915c0.27,0.389,1.538,1.107,1.538,1.107
			s-0.575-1.203-0.488-1.616c0.116-0.546,1.178-1.211,1.459-1.695c0.342-0.588,0.146-2.1,0.508-2.677
			c0.14-0.226,0.651-0.498,0.915-0.541c0.495-0.084,1.47,0.475,1.966,0.406c0.79-0.11,1.853-1.678,2.643-1.796
			c0.306-0.047,1.12,0.526,1.12,0.526s-0.823-1.623-1.358-1.815c-0.844-0.302-3.49,0.849-3.49,0.849l5.661-5.829l-0.983-0.779
			C17.789,86.174,16.881,86.904,16.602,87.174z"/>
		<path fill-rule="evenodd" clip-rule="evenodd" fill="#FFFFFF" d="M48.426,87.174c1.42,1.379,5.285,5.897,5.285,5.897l1.067,0.203
			c0,0,1.9-0.965,2.594-1.069c0.438-0.064,1.76,0.168,1.76,0.168l-3.253,2.036c0,0,2.996,1.036,3.491,1.896
			c0.22,0.382-0.053,1.761-0.053,1.761l-1.81-0.947c0,0-0.35,2.293-0.781,2.915c-0.268,0.389-1.536,1.107-1.536,1.107
			s0.574-1.203,0.487-1.616c-0.117-0.546-1.18-1.211-1.455-1.695c-0.345-0.588-0.15-2.1-0.512-2.677
			c-0.143-0.226-0.653-0.498-0.915-0.541c-0.493-0.084-1.469,0.475-1.964,0.406c-0.791-0.11-1.855-1.678-2.645-1.796
			c-0.305-0.047-1.117,0.526-1.117,0.526s0.821-1.623,1.355-1.815c0.843-0.302,3.491,0.849,3.491,0.849l-5.66-5.829l0.982-0.779
			C47.239,86.174,48.148,86.904,48.426,87.174z"/>
		<path fill-rule="evenodd" clip-rule="evenodd" fill="#FFFFFF" d="M21.023,98.338c-0.568-0.258-1.635-0.057-2.166,0.069
			c0.024-0.349,0.023-0.653-0.019-0.882c-0.135-0.741-1.524-2.608-1.524-2.608s-1.518,1.849-1.662,2.608
			c-0.039,0.224-0.038,0.521-0.006,0.86c-0.556-0.128-1.538-0.292-2.078-0.048c-0.508,0.234-1.184,1.459-1.168,2.019
			c0.035,1.252,1.354,2.101,1.354,2.101s-0.05-1.526,0.831-1.779c0.367-0.105,1.138,0.312,1.675,0.646
			c0.233,0.849,0.442,1.488,0.442,1.488l0.135,0.014c-0.059,0.408-0.204,1.099-0.541,1.343c-0.35,0.254-1.494-0.192-1.627,0.218
			c-0.171,0.533,1.4,0.64,1.795,1.034c0.238,0.236,0.543,1.12,0.713,1.12c0.255,0,0.62-0.951,0.882-1.22
			c0.35-0.361,1.673-0.434,1.49-0.898c-0.142-0.366-1.142-0.157-1.455-0.392c-0.261-0.191-0.347-0.701-0.371-1.105l0.202,0.021
			c0,0,0.2-0.706,0.418-1.628c0.537-0.335,1.299-0.747,1.666-0.642c0.878,0.253,0.827,1.779,0.827,1.779s1.323-0.849,1.356-2.101
			C22.209,99.797,21.533,98.572,21.023,98.338z"/>
		<path fill-rule="evenodd" clip-rule="evenodd" fill="#FFFFFF" d="M51.904,98.338c-0.57-0.258-1.636-0.057-2.169,0.069
			c0.025-0.349,0.025-0.653-0.017-0.882c-0.136-0.741-1.524-2.608-1.524-2.608s-1.519,1.849-1.66,2.608
			c-0.044,0.224-0.039,0.521-0.007,0.86c-0.557-0.128-1.539-0.292-2.078-0.048c-0.508,0.234-1.186,1.459-1.17,2.019
			c0.034,1.252,1.356,2.101,1.356,2.101s-0.05-1.526,0.829-1.779c0.369-0.105,1.14,0.312,1.676,0.646
			c0.234,0.849,0.444,1.488,0.444,1.488l0.132,0.014c-0.058,0.408-0.203,1.099-0.54,1.343c-0.349,0.254-1.494-0.192-1.626,0.218
			c-0.173,0.533,1.399,0.64,1.796,1.034c0.235,0.236,0.543,1.12,0.712,1.12c0.253,0,0.62-0.951,0.881-1.22
			c0.35-0.361,1.673-0.434,1.491-0.898c-0.142-0.366-1.143-0.157-1.456-0.392c-0.262-0.191-0.346-0.701-0.371-1.105l0.2,0.021
			c0,0,0.201-0.706,0.421-1.628c0.536-0.335,1.299-0.747,1.664-0.642c0.879,0.253,0.83,1.779,0.83,1.779s1.321-0.849,1.357-2.101
			C53.09,99.797,52.414,98.572,51.904,98.338z"/>
		<path fill-rule="evenodd" clip-rule="evenodd" fill="#FFFFFF" d="M28.481,89.057c0,0-3.983,5.994-3.595,6.758
			c0.217,0.42,1.889,0.041,1.889,0.041s-3.463,4.484-3.016,5.289c0.255,0.456,2.095-0.096,2.095-0.096s-3.023,3.605-3.56,5.05
			c-0.189,0.51-0.727,1.77-0.293,2.055c0.477,0.31,2.021-1.055,2.021-1.055s-0.48,1.947,0.006,2.2
			c0.503,0.264,1.875-1.283,1.875-1.283s-0.318,1.767,0.131,1.98c0.473,0.223,1.699-1.221,1.699-1.221s-0.028,1.522,0.374,1.666
			c0.479,0.17,1.608-1.258,1.608-1.258s0.15,1.68,0.609,1.777c0.309,0.068,0.865-0.914,0.865-0.914s0.734,3.234,1.473,2.896
			c1.561-0.709-0.238-23.216-0.238-23.216L28.481,89.057z"/>
		<path fill-rule="evenodd" clip-rule="evenodd" fill="#FFFFFF" d="M37.041,88.834c0,0,3.873,6.217,3.482,6.98
			c-0.213,0.42-1.885,0.041-1.885,0.041s3.461,4.484,3.016,5.289c-0.255,0.456-2.096-0.096-2.096-0.096s3.023,3.605,3.56,5.05
			c0.187,0.51,0.727,1.77,0.294,2.055c-0.478,0.31-2.023-1.055-2.023-1.055s0.48,1.947-0.006,2.2
			c-0.504,0.264-1.874-1.283-1.874-1.283s0.319,1.767-0.129,1.98c-0.475,0.223-1.7-1.221-1.7-1.221s0.026,1.522-0.373,1.666
			c-0.483,0.17-1.611-1.258-1.611-1.258s-0.148,1.68-0.609,1.777c-0.308,0.068-0.861-0.914-0.861-0.914s-0.735,3.234-1.477,2.896
			c-1.559-0.709-0.322-23.216-0.322-23.216L37.041,88.834z"/>
		<path fill="#FFFFFF" d="M27.991,63.538c-0.513-0.344-2.859-0.787-3.743-0.463c-0.214,0.077-0.617,0.323-0.617,0.667
			c0,0.374,0.359,0.573,0.563,0.613c0.305,0.064,0.844-0.63,1.131-0.511c0.254,0.102,0.204,1.077,0.204,1.077
			s-0.668,0.579-0.668,1.076c0,0.872,0.771,1.486,0.771,1.486s-0.257,0.858-0.514,0.924c-0.259,0.065-0.73-0.462-1.01-0.36
			c-0.322,0.121-0.466,0.647-0.429,0.874c0.07,0.375,0.543,0.498,0.771,0.563c0.735,0.214,2.324-0.153,3.027-0.461
			c0.223-0.098,0.685-0.384,0.768-0.615c0.239-0.665,0.138-3.128,0.052-4.154C28.281,64.061,28.151,63.646,27.991,63.538z"/>
		<path fill="#FFFFFF" d="M37.25,63.538c0.512-0.344,2.856-0.787,3.743-0.463c0.211,0.077,0.613,0.323,0.613,0.667
			c0,0.374-0.358,0.573-0.563,0.613c-0.303,0.064-0.84-0.63-1.129-0.511c-0.254,0.102-0.205,1.077-0.205,1.077
			s0.669,0.579,0.669,1.076c0,0.872-0.77,1.486-0.77,1.486s0.257,0.858,0.513,0.924c0.258,0.065,0.729-0.462,1.008-0.36
			c0.325,0.121,0.47,0.647,0.427,0.874c-0.068,0.375-0.54,0.498-0.767,0.563c-0.734,0.214-2.326-0.153-3.027-0.461
			c-0.226-0.098-0.686-0.384-0.771-0.615c-0.239-0.665-0.135-3.128-0.05-4.154C36.958,64.061,37.085,63.646,37.25,63.538z"/>
		<path fill="#FFFFFF" d="M44.215,72.074H34.52V60.203h-3.742v11.871h-9.693v3.82h9.693v13.68c0,0,0.984,0.153,1.771,0.153
			c0.835,0,1.971-0.153,1.971-0.153v-13.68h9.695V72.074z"/>
		<path fill-rule="evenodd" clip-rule="evenodd" fill="#FFFFFF" d="M56.592,16.866c-2.366-4.18-7.797-2.861-7.797-2.861
			s-0.441-3.413-4.18-4.399c-3.594-0.951-6.982-0.502-9.28,0.082c0.026-0.153,0.042-0.308,0.042-0.468
			c0-1.271-0.862-2.338-2.033-2.653c0-0.336,0-0.671,0-1.008c0.152,0,0.305,0,0.457,0c0.008,0.02,0.016,0.038,0.026,0.056
			c0.141,0.281,0.513,0.383,0.799,0.223c0.109-0.062,0.188-0.147,0.233-0.257c0.005-0.018,0.016-0.025,0.035-0.03
			c0.033-0.011,0.064-0.021,0.097-0.035c0.155-0.062,0.285-0.149,0.378-0.282c0.095-0.139,0.123-0.288,0.076-0.447
			c-0.037-0.127-0.12-0.229-0.229-0.314c-0.097-0.074-0.203-0.126-0.321-0.16c-0.02-0.004-0.03-0.015-0.037-0.029
			c-0.016-0.034-0.035-0.07-0.057-0.102c-0.127-0.18-0.359-0.268-0.59-0.219C34.021,4,33.891,4.109,33.813,4.271
			c-0.005,0.013-0.009,0.021-0.013,0.03c-0.046,0.007-0.438,0.003-0.457-0.004c0-0.134,0-0.913,0-1.05
			c0.004-0.001,0.008-0.006,0.01-0.006c0.034-0.015,0.069-0.027,0.104-0.043c0.215-0.113,0.323-0.341,0.261-0.561
			c-0.05-0.171-0.171-0.285-0.352-0.35c-0.017-0.008-0.026-0.016-0.033-0.031c-0.015-0.042-0.034-0.08-0.054-0.119
			c-0.075-0.138-0.182-0.25-0.335-0.324c-0.126-0.063-0.264-0.083-0.407-0.06c-0.151,0.026-0.274,0.096-0.38,0.198
			c-0.088,0.088-0.148,0.193-0.19,0.305c-0.006,0.017-0.016,0.023-0.031,0.031c-0.037,0.016-0.078,0.031-0.113,0.052
			c-0.188,0.117-0.281,0.278-0.252,0.484c0.028,0.199,0.154,0.333,0.357,0.411c0.008,0.003,0.02,0.006,0.03,0.011
			c0,0.138,0,0.917,0,1.054c-0.032,0.006-0.438,0.004-0.461,0c-0.003-0.012-0.008-0.022-0.011-0.033
			c-0.109-0.238-0.392-0.37-0.662-0.303c-0.186,0.049-0.311,0.155-0.383,0.316c-0.005,0.015-0.018,0.025-0.035,0.029
			c-0.049,0.019-0.1,0.034-0.147,0.057c-0.144,0.063-0.261,0.156-0.341,0.281c-0.074,0.119-0.104,0.246-0.074,0.381
			c0.024,0.121,0.086,0.223,0.181,0.311c0.104,0.1,0.234,0.167,0.38,0.208c0.02,0.007,0.029,0.015,0.04,0.033
			c0.018,0.038,0.036,0.078,0.065,0.112c0.127,0.162,0.303,0.238,0.521,0.216c0.218-0.023,0.365-0.135,0.455-0.317
			c0.003-0.011,0.008-0.021,0.011-0.031c0.038-0.006,0.438-0.004,0.461,0c0,0.332,0,0.663,0,0.994
			c-1.197,0.298-2.083,1.376-2.083,2.665c0,0.198,0.022,0.395,0.063,0.581c-2.292-0.633-5.884-1.206-9.708-0.195
			c-3.74,0.986-4.183,4.399-4.183,4.399s-5.43-1.318-7.793,2.861c-1.392,2.458-0.399,6.204,0.679,7.849
			c1.51,2.305,5.539,5.146,6.968,6.112v5.698c0,0,10.418-2.578,16.726-2.419c5.867,0.146,16.576,2.127,16.576,2.127v-5.429
			c0,0-0.059-0.014-0.162-0.04c1.505-1.023,5.393-3.792,6.873-6.05C56.99,23.07,57.98,19.324,56.592,16.866z"/>
		<path fill="#48B5CE" d="M26.366,68.324c0,0,0.177-1.342-0.017-1.727c-0.07-0.142-0.42-0.322-0.412-0.48
			c0.007-0.129,0.313-0.246,0.378-0.357c0.218-0.385,0.034-1.762,0.034-1.762s1.113,0.075,1.179,0.375
			c0.085,0.395,0.171,3.146,0,3.453C27.374,68.105,26.366,68.324,26.366,68.324z"/>
		<path fill="#48B5CE" d="M38.872,68.324c0,0-0.175-1.342,0.018-1.727c0.071-0.142,0.419-0.322,0.411-0.48
			c-0.007-0.129-0.313-0.246-0.377-0.357c-0.217-0.385-0.034-1.762-0.034-1.762s-1.112,0.075-1.179,0.375
			c-0.086,0.395-0.173,3.146,0,3.453C37.863,68.105,38.872,68.324,38.872,68.324z"/>
		<g>
			<path fill="#FFFFFF" d="M28.808,79.01c-0.512-0.345-2.856-0.787-3.742-0.463c-0.213,0.077-0.617,0.324-0.617,0.666
				c0,0.376,0.361,0.574,0.564,0.615c0.305,0.063,0.842-0.629,1.13-0.513c0.252,0.102,0.205,1.077,0.205,1.077
				s-0.668,0.579-0.668,1.076c0,0.873,0.77,1.487,0.77,1.487s-0.257,0.858-0.512,0.925c-0.258,0.063-0.729-0.463-1.009-0.361
				c-0.325,0.121-0.468,0.646-0.428,0.871c0.069,0.377,0.54,0.5,0.77,0.566c0.734,0.214,2.324-0.156,3.025-0.462
				c0.226-0.099,0.687-0.383,0.77-0.614c0.239-0.666,0.137-3.129,0.052-4.154C29.1,79.529,28.972,79.117,28.808,79.01z"/>
			<path fill="#48B5CE" d="M27.186,83.795c0,0,0.176-1.34-0.018-1.727c-0.07-0.143-0.42-0.323-0.411-0.48
				c0.008-0.129,0.313-0.246,0.378-0.357c0.218-0.383,0.033-1.76,0.033-1.76s1.113,0.073,1.18,0.375
				c0.086,0.395,0.171,3.146,0,3.451C28.194,83.573,27.186,83.795,27.186,83.795z"/>
		</g>
		<g>
			<path fill="#FFFFFF" d="M36.506,79.01c0.513-0.345,2.857-0.787,3.744-0.463c0.21,0.077,0.613,0.324,0.613,0.666
				c0,0.376-0.359,0.574-0.563,0.615c-0.303,0.063-0.841-0.629-1.128-0.513c-0.255,0.102-0.205,1.077-0.205,1.077
				s0.668,0.579,0.668,1.076c0,0.873-0.771,1.487-0.771,1.487s0.257,0.858,0.513,0.925c0.259,0.063,0.729-0.463,1.01-0.361
				c0.322,0.121,0.469,0.646,0.426,0.871c-0.068,0.377-0.543,0.5-0.771,0.566c-0.733,0.214-2.325-0.156-3.023-0.462
				c-0.227-0.099-0.687-0.383-0.771-0.614c-0.239-0.666-0.135-3.129-0.049-4.154C36.214,79.529,36.342,79.117,36.506,79.01z"/>
			<path fill="#48B5CE" d="M38.128,83.795c0,0-0.175-1.34,0.018-1.727c0.072-0.143,0.419-0.323,0.412-0.48
				c-0.006-0.129-0.313-0.246-0.377-0.357c-0.218-0.383-0.035-1.76-0.035-1.76s-1.112,0.073-1.179,0.375
				c-0.086,0.395-0.172,3.146,0,3.451C37.12,83.573,38.128,83.795,38.128,83.795z"/>
		</g>
	</g>
</g>
</svg>
