<?xml version="1.0" encoding="utf-8"?>
<!-- Generator: Adobe Illustrator 16.0.0, SVG Export Plug-In . SVG Version: 6.00 Build 0)  -->
<!DOCTYPE svg PUBLIC "-//W3C//DTD SVG 1.1//EN" "http://www.w3.org/Graphics/SVG/1.1/DTD/svg11.dtd">
<svg version="1.1" id="Layer_1" xmlns="http://www.w3.org/2000/svg" xmlns:xlink="http://www.w3.org/1999/xlink" x="0px" y="0px"
	 width="270px" height="90px" viewBox="0 0 270 90" enable-background="new 0 0 270 90" xml:space="preserve">
<g>
	<g>
		<path fill="#FFFFFF" d="M266.285,88.073V74.066h-2.439l-5.455,8.973v-8.973h-2.727v14.007h2.438l5.447-8.992v8.992H266.285z
			 M253.76,76.507v-2.44h-10.057v2.44h3.664v11.566h2.732V76.507H253.76z M242.484,83.77h-2.775
			c-0.271,1.115-0.982,1.982-2.359,1.982c-0.748,0-1.352-0.274-1.75-0.729c-0.537-0.589-0.688-1.254-0.688-3.954
			c0-2.692,0.15-3.36,0.688-3.953c0.398-0.454,1.002-0.726,1.75-0.726c1.377,0,2.088,0.863,2.359,1.986h2.775
			c-0.488-2.932-2.533-4.428-5.154-4.428c-1.531,0-2.793,0.551-3.775,1.537c-1.422,1.415-1.381,3.168-1.381,5.583
			c0,2.417-0.041,4.17,1.381,5.585c0.982,0.984,2.244,1.536,3.775,1.536C239.93,88.19,241.996,86.693,242.484,83.77 M227.453,81.069
			c0,2.7-0.158,3.342-0.688,3.933c-0.396,0.458-1.002,0.75-1.752,0.75s-1.377-0.292-1.773-0.75
			c-0.527-0.591-0.666-1.232-0.666-3.933c0-2.692,0.139-3.341,0.666-3.935c0.396-0.449,1.023-0.744,1.773-0.744
			s1.355,0.295,1.752,0.744C227.295,77.729,227.453,78.377,227.453,81.069 M230.184,81.069c0-2.415,0.023-4.168-1.396-5.583
			c-0.982-0.986-2.184-1.537-3.773-1.537c-1.598,0-2.816,0.551-3.797,1.537c-1.418,1.415-1.377,3.168-1.377,5.583
			c0,2.417-0.041,4.17,1.377,5.585c0.98,0.984,2.199,1.536,3.797,1.536c1.59,0,2.791-0.552,3.773-1.536
			C230.207,85.239,230.184,83.486,230.184,81.069 M217.422,88.073V74.066h-2.736v5.727h-4.738v-5.727h-2.732v14.007h2.732v-5.861
			h4.738v5.861H217.422z M197.514,85.636v-3.442h2.85c1.119,0,1.826,0.65,1.826,1.708c0,1.063-0.707,1.734-1.826,1.734H197.514z
			 M197.514,79.733v-3.227h2.672c1.127,0,1.816,0.609,1.816,1.612c0,1.006-0.689,1.614-1.816,1.614H197.514z M202.996,80.893
			c1.164-0.646,1.73-1.634,1.73-2.967c0-2.361-1.686-3.859-4.324-3.859h-5.629v14.007h5.861c2.637,0,4.295-1.555,4.295-4.015
			c0-0.98-0.26-1.769-0.869-2.42C203.768,81.346,203.551,81.188,202.996,80.893 M188.686,83.292h-3.48l1.764-5.093L188.686,83.292z
			 M193.088,88.073l-5.111-14.007h-2.146l-5.092,14.007h2.857l0.84-2.479h4.979l0.832,2.479H193.088z M173.832,80.341v-3.834h2.551
			c1.225,0,2.037,0.767,2.037,1.931c0,1.159-0.813,1.903-2.037,1.903H173.832z M171.098,74.066v14.007h2.734v-5.271h2.697
			c2.709,0,4.615-1.81,4.615-4.365c0-2.557-1.922-4.371-4.615-4.371H171.098z M168.326,88.073V74.066h-10.213v14.007h2.732V76.507
			h4.744v11.566H168.326z M152.961,81.069c0,2.7-0.156,3.342-0.691,3.933c-0.393,0.458-1.002,0.75-1.752,0.75
			c-0.746,0-1.371-0.292-1.768-0.75c-0.529-0.591-0.67-1.232-0.67-3.933c0-2.692,0.141-3.341,0.67-3.935
			c0.396-0.449,1.021-0.744,1.768-0.744c0.75,0,1.359,0.295,1.752,0.744C152.805,77.729,152.961,78.377,152.961,81.069
			 M155.693,81.069c0-2.415,0.02-4.168-1.398-5.583c-0.986-0.986-2.18-1.537-3.777-1.537c-1.594,0-2.811,0.551-3.791,1.537
			c-1.418,1.415-1.379,3.168-1.379,5.583c0,2.417-0.039,4.17,1.379,5.585c0.98,0.984,2.197,1.536,3.791,1.536
			c1.598,0,2.791-0.552,3.777-1.536C155.713,85.239,155.693,83.486,155.693,81.069 M142.93,88.073V74.066h-2.734v5.727h-4.735
			v-5.727h-2.741v14.007h2.741v-5.861h4.735v5.861H142.93z M123.02,85.636v-3.442h2.852c1.121,0,1.83,0.65,1.83,1.708
			c0,1.063-0.709,1.734-1.83,1.734H123.02z M123.02,79.733v-3.227h2.676c1.124,0,1.812,0.609,1.812,1.612
			c0,1.006-0.688,1.614-1.812,1.614H123.02z M128.508,80.893c1.158-0.646,1.727-1.634,1.727-2.967c0-2.361-1.69-3.859-4.327-3.859
			h-5.622v14.007h5.859c2.637,0,4.293-1.555,4.293-4.015c0-0.98-0.262-1.769-0.866-2.42C129.27,81.346,129.06,81.188,128.508,80.893
			 M114.189,83.292h-3.474l1.767-5.093L114.189,83.292z M118.594,88.073l-5.107-14.007h-2.146l-5.095,14.007h2.854l0.849-2.479h4.97
			l0.825,2.479H118.594z M99.337,80.341v-3.834h2.558c1.22,0,2.026,0.767,2.026,1.931c0,1.159-0.807,1.903-2.026,1.903H99.337z
			 M96.604,74.066v14.007h2.733v-5.271h2.696c2.718,0,4.621-1.81,4.621-4.365c0-2.557-1.925-4.371-4.621-4.371H96.604z"/>
		<path fill="#FFFFFF" d="M186.736,53.289H183.9l-2.652,6.75l-2.926-6.75h-2.857l4.48,9.717l-0.412,0.966
			c-0.254,0.568-0.707,0.884-1.457,0.884h-1.1v2.439h1.672c1.639,0,2.6-1.104,3.127-2.36L186.736,53.289z M174.279,55.729v-2.439
			h-10.051v2.439h3.656v11.566h2.734V55.729H174.279z M162.311,67.295V53.289h-2.438l-5.453,8.972v-8.972h-2.732v14.006h2.438
			l5.451-8.989v8.989H162.311z M149.787,55.729v-2.439h-10.049v2.439h3.656v11.566h2.727V55.729H149.787z M137.797,67.295V53.289
			h-2.734v11.566h-3.977V53.289h-2.729v11.566h-3.993V53.289h-2.73v14.006H137.797z M115.537,62.515h-3.483l1.771-5.092
			L115.537,62.515z M119.943,67.295l-5.118-14.006h-2.141l-5.093,14.006h2.849l0.848-2.48h4.979l0.824,2.48H119.943z
			 M101.698,67.413c2.895,0,4.997-1.633,4.997-4.169c0-1.535-0.788-2.638-2.024-3.187c1.102-0.591,1.822-1.653,1.822-3.012
			c0-2.358-2.004-3.877-4.734-3.877c-2.595,0-4.647,1.499-5.129,4.365h2.729c0.273-1.118,1.024-2.022,2.383-2.022
			c1.238,0,2.024,0.65,2.024,1.73c0,1.122-0.709,1.771-1.913,1.771h-1.828v2.241h1.811c1.417,0,2.125,0.706,2.125,1.89
			c0,1.119-0.866,1.886-2.241,1.886c-1.358,0-2.106-0.863-2.402-1.985h-2.712C97.094,65.92,99.141,67.413,101.698,67.413"/>
		<path fill="#FFFFFF" d="M231.475,41.738h-3.48l1.77-5.1L231.475,41.738z M235.875,46.514l-5.111-14.005h-2.143l-5.096,14.005
			h2.854l0.85-2.479h4.969l0.828,2.479H235.875z M217.635,46.63c2.889,0,4.992-1.631,4.992-4.167c0-1.534-0.787-2.636-2.027-3.183
			c1.105-0.594,1.84-1.655,1.84-3.014c0-2.362-2.012-3.873-4.752-3.873c-2.594,0-4.637,1.495-5.137,4.363h2.744
			c0.271-1.123,1.02-2.027,2.373-2.027c1.242,0,2.031,0.653,2.031,1.733c0,1.123-0.709,1.772-1.904,1.772h-1.832v2.241h1.811
			c1.408,0,2.117,0.706,2.117,1.885c0,1.127-0.861,1.892-2.236,1.892c-1.361,0-2.107-0.863-2.402-1.985h-2.713
			C213.033,45.139,215.074,46.63,217.635,46.63 M207.191,46.514l-4.977-8.437l4.643-5.568h-3.326l-4.939,6.097v-6.097h-2.73v14.005
			h2.73v-4.211l1.813-2.161L204,46.514H207.191z M193.039,46.514V32.509h-2.436l-5.453,8.969v-8.969h-2.723v14.005h2.428
			l5.447-8.986v8.986H193.039z M179.633,46.514V32.509h-2.729v5.727h-4.74v-5.727h-2.738v14.005h2.738v-5.859h4.74v5.859H179.633z
			 M167.166,46.514v-2.438h-6.492v-3.404h5.529v-2.437h-5.529v-3.289h6.492v-2.438h-9.229v14.005H167.166z M148.672,38.783v-3.837
			h2.559c1.215,0,2.029,0.769,2.029,1.932c0,1.159-0.814,1.905-2.029,1.905H148.672z M145.938,32.509v14.005h2.734v-5.271h2.697
			c2.709,0,4.619-1.807,4.619-4.364s-1.932-4.369-4.619-4.369H145.938z M143.676,46.514v-2.438h-6.49v-3.404h5.52v-2.437h-5.52
			v-3.289h6.49v-2.438h-9.228v14.005H143.676z M124.702,44.076v-3.443h2.85c1.125,0,1.833,0.649,1.833,1.715
			c0,1.059-0.708,1.729-1.833,1.729H124.702z M124.702,38.176v-3.229h2.676c1.121,0,1.81,0.611,1.81,1.614
			c0,1.002-0.688,1.615-1.81,1.615H124.702z M130.189,39.335c1.164-0.648,1.726-1.633,1.726-2.97c0-2.359-1.686-3.856-4.318-3.856
			h-5.63v14.005h5.861c2.641,0,4.291-1.555,4.291-4.012c0-0.983-0.261-1.771-0.866-2.42
			C130.958,39.788,130.738,39.629,130.189,39.335 M116.83,39.514c0,2.692-0.154,3.343-0.688,3.932
			c-0.393,0.451-1.003,0.748-1.75,0.748c-0.746,0-1.382-0.297-1.772-0.748c-0.529-0.589-0.67-1.239-0.67-3.932
			c0-2.697,0.141-3.344,0.67-3.933c0.391-0.454,1.026-0.75,1.772-0.75c0.747,0,1.357,0.296,1.75,0.75
			C116.675,36.17,116.83,36.816,116.83,39.514 M119.568,39.514c0-2.42,0.018-4.17-1.402-5.586c-0.979-0.985-2.184-1.534-3.773-1.534
			c-1.592,0-2.813,0.549-3.798,1.534c-1.415,1.416-1.378,3.166-1.378,5.586c0,2.418-0.037,4.166,1.378,5.585
			c0.984,0.98,2.206,1.531,3.798,1.531c1.59,0,2.795-0.551,3.773-1.531C119.585,43.68,119.568,41.932,119.568,39.514
			 M106.813,46.514V32.509H96.604v14.005h2.736V34.946h4.736v11.567H106.813z"/>
	</g>
	<g>
		<path fill="#FFFFFF" d="M24.857,55.725c5.202,0,9.406-4.212,9.406-9.412c0-5.193-4.204-9.405-9.406-9.405
			c-5.197,0-9.408,4.212-9.408,9.405C15.449,51.513,19.66,55.725,24.857,55.725"/>
		<path fill="#FFFFFF" d="M38.971,88.187V69.369c0-5.196-4.21-9.41-9.405-9.41h-9.409c-5.198,0-9.413,4.214-9.413,9.41v18.817
			H38.971z"/>
		<path fill="#FFFFFF" d="M62.493,55.725c5.2,0,9.414-4.212,9.414-9.412c0-5.193-4.214-9.405-9.414-9.405
			c-5.191,0-9.408,4.212-9.408,9.405C53.084,51.513,57.301,55.725,62.493,55.725"/>
		<path fill="#FFFFFF" d="M76.611,88.187V69.369c0-5.196-4.216-9.41-9.409-9.41h-9.405c-5.204,0-9.419,4.214-9.419,9.41v18.817
			H76.611z"/>
		<rect x="42.108" y="31.734" fill="#FFFFFF" width="3.135" height="56.456"/>
		<path fill="#FFFFFF" d="M83.598,31.731C77.792,15.286,62.11,3.506,43.676,3.506c-18.436,0-34.108,11.78-39.924,28.226H83.598z"/>
		<rect x="42.182" y="2.072" fill="#FFFFFF" width="3.089" height="5.073"/>
	</g>
</g>
</svg>
