<?xml version="1.0" encoding="utf-8"?>
<!-- Generator: Adobe Illustrator 16.0.0, SVG Export Plug-In . SVG Version: 6.00 Build 0)  -->
<!DOCTYPE svg PUBLIC "-//W3C//DTD SVG 1.1//EN" "http://www.w3.org/Graphics/SVG/1.1/DTD/svg11.dtd">
<svg version="1.1" id="Layer_1" xmlns="http://www.w3.org/2000/svg" xmlns:xlink="http://www.w3.org/1999/xlink" x="0px" y="0px"
	 width="85px" height="91px" viewBox="0 0 85 91" enable-background="new 0 0 85 91" xml:space="preserve">
<g>
	<path fill="#FFFFFF" d="M24.056,55.254c5.202,0,9.406-4.211,9.406-9.412c0-5.193-4.204-9.405-9.406-9.405
		c-5.197,0-9.408,4.212-9.408,9.405C14.648,51.043,18.859,55.254,24.056,55.254"/>
	<path fill="#FFFFFF" d="M38.17,87.717V68.898c0-5.195-4.21-9.41-9.405-9.41h-9.409c-5.198,0-9.413,4.215-9.413,9.41v18.818H38.17z"
		/>
	<path fill="#FFFFFF" d="M61.691,55.254c5.201,0,9.414-4.211,9.414-9.412c0-5.193-4.213-9.405-9.414-9.405
		c-5.191,0-9.408,4.212-9.408,9.405C52.283,51.043,56.5,55.254,61.691,55.254"/>
	<path fill="#FFFFFF" d="M75.811,87.717V68.898c0-5.195-4.217-9.41-9.41-9.41h-9.404c-5.205,0-9.42,4.215-9.42,9.41v18.818H75.811z"
		/>
	<rect x="41.307" y="31.264" fill="#FFFFFF" width="3.134" height="56.457"/>
	<path fill="#FFFFFF" d="M82.797,31.261C76.99,14.816,61.309,3.036,42.875,3.036c-18.436,0-34.108,11.78-39.924,28.226H82.797z"/>
	<rect x="41.381" y="1.602" fill="#FFFFFF" width="3.089" height="5.073"/>
</g>
</svg>
