<?xml version="1.0" encoding="utf-8"?>
<!-- Generator: Adobe Illustrator 18.0.0, SVG Export Plug-In . SVG Version: 6.00 Build 0)  -->
<!DOCTYPE svg PUBLIC "-//W3C//DTD SVG 1.1//EN" "http://www.w3.org/Graphics/SVG/1.1/DTD/svg11.dtd">
<svg version="1.1" id="Layer_1" xmlns="http://www.w3.org/2000/svg" xmlns:xlink="http://www.w3.org/1999/xlink" x="0px" y="0px"
	 viewBox="0 0 40 40" enable-background="new 0 0 40 40" xml:space="preserve">
<g>
	<path fill="#706F6F" d="M20,0C9,0,0,8.9,0,20c0,11,9,20,20,20S40,31,40,20C40,8.9,31,0,20,0z M31.2,16.2v0.4c0,2.3-0.5,4.6-1.6,6.8
		c-1.1,2.2-2.8,4-5.1,5.5c-2.4,1.8-5.1,2.5-8,2.5S11,30.5,8.6,29l0.4-1.2c0.2,0,0.7,0,1.1,0c1.6,0,3.1-0.4,4.4-1.1
		C14,26.6,13.5,26.3,13,26c-1-0.7-1.6-1.6-2-2.8l0.6-0.5c-0.4-0.3-0.8-0.6-1.1-1.1c-0.8-1.1-1.2-2.2-1.2-3.6l0.8-0.5
		c-0.5-0.9-0.8-1.9-0.8-3c0-1,0.3-1.9,0.8-2.8l1.1-0.1c2.4,2.9,5.3,4.5,8.9,4.8c0-0.1,0-0.3,0-0.4c0-1.5,0.5-2.8,1.6-3.9
		c1.1-1.1,2.4-1.6,3.9-1.6c1.4,0,2.8,0.5,3.7,1.4c0.9-0.2,1.8-0.5,2.7-1l0.9,0.7c-0.2,0.4-0.4,0.9-0.6,1.3c0.2-0.1,0.3-0.1,0.4-0.2
		l0.8,0.9C32.9,14.6,32.1,15.5,31.2,16.2z"/>
	<path fill="#706F6F" d="M29.8,13.9c0.4-0.3,0.8-0.5,1.1-0.9c-0.5,0.2-1.1,0.4-1.6,0.4l-0.6-0.2c-0.8-0.9-1.9-1.3-3.1-1.3
		s-2.2,0.4-3.1,1.2c-0.8,0.8-1.2,1.9-1.2,3c0,0.4,0,0.6,0.1,0.9l-0.6,0.8c-3.9-0.1-7.3-1.7-10-4.6c-0.2,0.4-0.2,0.9-0.2,1.3
		c0,1.5,0.6,2.7,2,3.6L12,19.3c-0.5,0-1-0.1-1.4-0.3c0.2,0.6,0.4,1.2,0.9,1.8c0.6,0.8,1.4,1.2,2.5,1.5v1.2c-0.4,0.1-0.9,0.2-1.3,0.2
		c0.3,0.4,0.6,0.9,1.1,1.2c0.7,0.5,1.5,0.8,2.5,0.9l0.4,1.1c-1.4,1.2-3.2,2-5.1,2.2c1.6,0.6,3.3,1,5.1,1c2.7,0,5.2-0.7,7.2-2
		c2-1.3,3.6-3,4.6-5.1c1-2,1.5-4.1,1.5-6.2v-0.6l0.3-0.5c0.4-0.3,0.6-0.5,1-0.8c-0.3,0.1-0.5,0.1-0.9,0.2L29.8,13.9z"/>
</g>
</svg>
