<?xml version="1.0" encoding="utf-8"?>
<!-- Generator: Adobe Illustrator 16.0.0, SVG Export Plug-In . SVG Version: 6.00 Build 0)  -->
<!DOCTYPE svg PUBLIC "-//W3C//DTD SVG 1.1//EN" "http://www.w3.org/Graphics/SVG/1.1/DTD/svg11.dtd">
<svg version="1.1" id="Layer_1" xmlns="http://www.w3.org/2000/svg" xmlns:xlink="http://www.w3.org/1999/xlink" x="0px" y="0px"
	 width="35.43px" height="35.43px" viewBox="0 0 35.43 35.43" enable-background="new 0 0 35.43 35.43" xml:space="preserve">
<path fill="#6ABDD5" d="M34.773,17.715c0,9.425-7.637,17.059-17.058,17.059c-9.422,0-17.06-7.634-17.06-17.059
	c0-9.419,7.638-17.059,17.06-17.059C27.137,0.656,34.773,8.296,34.773,17.715z"/>
<path fill-rule="evenodd" clip-rule="evenodd" fill="#555C57" d="M5.291,17.699C5.277,10.945,10.717,5.443,17.489,5.502
	c6.985,0.061,12.158,5.568,12.205,12.127c0.048,6.421-4.832,12.071-11.763,12.271C10.637,30.11,5.32,24.415,5.291,17.699z
	 M22.964,21.186c0.587-2.31,0.56-4.607,0.056-6.909c-1.468,0-2.908,0-4.351,0c0,2.314,0,4.609,0,6.909
	C20.111,21.186,21.533,21.186,22.964,21.186z M16.905,14.276c-0.039-0.014-0.057-0.025-0.074-0.025
	c-1.367-0.003-2.733-0.003-4.1-0.011c-0.175-0.001-0.192,0.094-0.22,0.229c-0.449,2.168-0.455,4.332,0.056,6.493
	c0.044,0.187,0.119,0.226,0.288,0.224c0.876-0.005,1.752-0.002,2.627-0.002c0.469,0,0.938,0,1.423,0
	C16.905,18.863,16.905,16.576,16.905,14.276z M10.768,14.261c-0.119-0.008-0.194-0.018-0.269-0.018
	c-0.885-0.001-1.771,0.006-2.657-0.006c-0.2-0.003-0.287,0.062-0.343,0.25c-0.255,0.85-0.424,1.712-0.484,2.6
	c-0.09,1.334,0.104,2.625,0.493,3.896c0.051,0.166,0.134,0.222,0.307,0.219c0.539-0.01,1.078-0.003,1.617-0.003
	c0.451,0,0.901,0,1.403,0C10.329,18.875,10.339,16.575,10.768,14.261z M24.809,14.201c0.414,2.346,0.455,4.653-0.057,6.979
	c0.83,0,1.607-0.01,2.385,0.007c0.223,0.005,0.295-0.088,0.355-0.273c0.313-0.967,0.481-1.96,0.505-2.973
	c0.028-1.21-0.155-2.393-0.549-3.54c-0.028-0.082-0.144-0.19-0.221-0.192C26.44,14.196,25.652,14.201,24.809,14.201z M22.545,12.504
	c-0.554-1.594-1.25-3.05-2.446-4.212c-0.408-0.396-0.866-0.725-1.426-0.9c0,1.712,0,3.409,0,5.112
	C19.965,12.504,21.232,12.504,22.545,12.504z M16.913,7.348c-2.199,1.092-3.097,3.063-3.885,5.146c1.325,0,2.6,0,3.885,0
	C16.913,10.791,16.913,9.107,16.913,7.348z M22.436,22.951c-1.292,0-2.533,0-3.761,0c0,1.699,0,3.373,0,5.118
	C20.738,26.91,21.6,24.961,22.436,22.951z M13.121,22.937c0.291,0.641,0.542,1.262,0.849,1.855c0.573,1.11,1.253,2.146,2.298,2.883
	c0.191,0.134,0.405,0.235,0.633,0.365c0-1.736,0-3.415,0-5.104C15.649,22.937,14.42,22.937,13.121,22.937z M8.386,22.926
	c1.244,2.103,2.93,3.587,5.197,4.537c-0.153-0.222-0.26-0.37-0.36-0.521c-0.78-1.175-1.371-2.438-1.817-3.773
	c-0.031-0.095-0.144-0.229-0.22-0.231C10.274,22.921,9.363,22.926,8.386,22.926z M13.272,8.157
	c-2.105,0.907-3.715,2.352-4.873,4.373c0.934,0,1.816,0.003,2.698-0.008c0.06,0,0.144-0.103,0.171-0.176
	c0.149-0.395,0.274-0.798,0.425-1.192C12.101,10.095,12.623,9.095,13.272,8.157z M26.598,22.926c-0.713,0-1.363,0.014-2.014-0.006
	c-0.254-0.009-0.368,0.07-0.447,0.313c-0.414,1.275-0.979,2.479-1.72,3.6c-0.028,0.043-0.048,0.092-0.104,0.201
	C24.145,26.048,25.554,24.731,26.598,22.926z M26.599,12.515c-0.988-1.692-2.288-2.978-3.946-3.91
	c0.116,0.252,0.281,0.475,0.389,0.722c0.43,0.984,0.844,1.973,1.252,2.965c0.057,0.137,0.094,0.229,0.271,0.227
	C25.217,12.509,25.871,12.515,26.599,12.515z"/>
</svg>
