<?xml version="1.0" encoding="utf-8"?>
<!-- Generator: Adobe Illustrator 16.0.0, SVG Export Plug-In . SVG Version: 6.00 Build 0)  -->
<!DOCTYPE svg PUBLIC "-//W3C//DTD SVG 1.1//EN" "http://www.w3.org/Graphics/SVG/1.1/DTD/svg11.dtd">
<svg version="1.1" id="Layer_1" xmlns="http://www.w3.org/2000/svg" xmlns:xlink="http://www.w3.org/1999/xlink" x="0px" y="0px"
	 width="132px" height="109px" viewBox="0 0 132 109" enable-background="new 0 0 132 109" xml:space="preserve">
<g>
	<path fill="#FFFFFF" d="M26.915,39.344l-23.144-8.9c0,0,13.575-19.509,39.168-25.518c25.444-5.974,41.014-0.314,49.854,2.968
		c31.156,11.571,36.496,43.024,36.496,43.024S117.865,11.897,74.84,15.163C51.121,16.962,26.915,39.344,26.915,39.344z"/>
	<path fill="#FFFFFF" d="M104.543,69.16l23.32,8.432c0,0-13.178,19.779-38.645,26.309c-25.319,6.486-41.002,1.144-49.901-1.959
		C7.931,91.004,1.953,59.665,1.953,59.665S14.167,98.446,57.119,94.31C80.795,92.028,104.543,69.16,104.543,69.16z"/>
	<path fill="#FFFFFF" d="M65.381,26.512c-15.273,0-27.651,12.379-27.651,27.651c0,12.871,8.793,23.687,20.697,26.77v-4.91
		c-1.45-0.028-2.613-1.207-2.613-2.664V53.106c0-1.476,1.194-2.668,2.669-2.668h13.798c1.475,0,2.67,1.192,2.67,2.668v20.252
		c0,1.457-1.166,2.636-2.615,2.664v4.91c11.904-3.083,20.699-13.898,20.699-26.77C93.035,38.891,80.654,26.512,65.381,26.512z
		 M65.067,48.1c-3.071,0-5.563-2.491-5.563-5.563c0-3.075,2.491-5.565,5.563-5.565c3.074,0,5.564,2.49,5.564,5.565
		C70.631,45.608,68.141,48.1,65.067,48.1z"/>
</g>
</svg>
